<?xml version="1.0" standalone="no"?>
<!DOCTYPE svg PUBLIC "-//W3C//DTD SVG 1.1//EN" "http://www.w3.org/Graphics/SVG/1.1/DTD/svg11.dtd">
<svg width="128mm" height="102mm" viewBox="-64 -140 128 102" xmlns="http://www.w3.org/2000/svg" version="1.1">
<title>OpenSCAD Model</title>
<path d="
M -12.8108,-63.5884 L 12.6146,-63.5884 L 12.6146,-89.0138 L 38.04,-89.0138 L 38.04,-114.439 L 63.5005,-114.439
 L 63.5005,-139.7 L -63.5005,-139.7 L -63.5005,-114.39 L -63.3922,-114.39 L -63.3922,-88.965 L -37.9668,-88.965
 L -37.9668,-38.163 L -12.8108,-38.163 z
M -0.124817,-123.903 L -0.224533,-123.908 L -0.324036,-123.917 L -0.423187,-123.929 L -0.521896,-123.944 L -0.620071,-123.963
 L -0.717606,-123.984 L -0.814392,-124.009 L -0.910324,-124.037 L -1.00531,-124.068 L -1.09927,-124.101 L -1.19208,-124.138
 L -1.28365,-124.178 L -1.37389,-124.221 L -1.46269,-124.267 L -1.54999,-124.315 L -1.63568,-124.367 L -1.71967,-124.421
 L -1.80186,-124.477 L -1.8822,-124.537 L -1.96057,-124.599 L -2.03691,-124.663 L -2.11115,-124.73 L -2.18318,-124.799
 L -2.25294,-124.871 L -2.32037,-124.944 L -2.38539,-125.02 L -2.44794,-125.098 L -2.50795,-125.178 L -2.56534,-125.26
 L -2.62009,-125.343 L -2.6721,-125.428 L -2.72134,-125.515 L -2.76776,-125.604 L -2.81131,-125.694 L -2.85193,-125.785
 L -2.88959,-125.877 L -2.92426,-125.971 L -2.95589,-126.066 L -2.98445,-126.162 L -3.00992,-126.258 L -3.03226,-126.355
 L -3.05144,-126.454 L -3.06746,-126.552 L -3.08031,-126.651 L -3.08994,-126.751 L -3.09637,-126.85 L -3.09959,-126.95
 L -3.09959,-127.05 L -3.09637,-127.15 L -3.08994,-127.249 L -3.08031,-127.349 L -3.06746,-127.448 L -3.05144,-127.546
 L -3.03226,-127.645 L -3.00992,-127.742 L -2.98445,-127.838 L -2.95589,-127.934 L -2.92426,-128.029 L -2.88959,-128.123
 L -2.85193,-128.215 L -2.81131,-128.306 L -2.76776,-128.396 L -2.72134,-128.485 L -2.6721,-128.572 L -2.62009,-128.657
 L -2.56534,-128.74 L -2.50795,-128.822 L -2.44794,-128.902 L -2.38539,-128.98 L -2.32037,-129.056 L -2.25294,-129.129
 L -2.18318,-129.201 L -2.11115,-129.27 L -2.03691,-129.337 L -1.96057,-129.401 L -1.8822,-129.463 L -1.80186,-129.523
 L -1.71967,-129.579 L -1.63568,-129.633 L -1.54999,-129.685 L -1.46269,-129.733 L -1.37389,-129.779 L -1.28365,-129.822
 L -1.19208,-129.862 L -1.09927,-129.899 L -1.00531,-129.932 L -0.910324,-129.963 L -0.814392,-129.991 L -0.717606,-130.016
 L -0.620071,-130.037 L -0.521896,-130.056 L -0.423187,-130.071 L -0.324036,-130.083 L -0.224533,-130.092 L -0.124817,-130.097
 L -0.0249634,-130.1 L 0.0749054,-130.099 L 0.174698,-130.095 L 0.274323,-130.088 L 0.373657,-130.077 L 0.47261,-130.064
 L 0.57106,-130.047 L 0.66893,-130.027 L 0.766098,-130.004 L 0.862473,-129.978 L 0.957947,-129.948 L 1.05243,-129.916
 L 1.14581,-129.88 L 1.23802,-129.842 L 1.32893,-129.801 L 1.41847,-129.756 L 1.50655,-129.709 L 1.59305,-129.659
 L 1.67789,-129.607 L 1.76099,-129.551 L 1.84227,-129.493 L 1.92163,-129.433 L 1.99901,-129.369 L 2.0743,-129.304
 L 2.14743,-129.236 L 2.21835,-129.165 L 2.28696,-129.093 L 2.3532,-129.018 L 2.41698,-128.941 L 2.47827,-128.862
 L 2.53697,-128.781 L 2.59305,-128.699 L 2.64644,-128.614 L 2.69707,-128.528 L 2.7449,-128.441 L 2.78989,-128.351
 L 2.83199,-128.261 L 2.87114,-128.169 L 2.9073,-128.076 L 2.94046,-127.982 L 2.97055,-127.886 L 2.99757,-127.79
 L 3.02147,-127.693 L 3.04224,-127.596 L 3.05984,-127.497 L 3.07428,-127.398 L 3.08553,-127.299 L 3.09355,-127.2
 L 3.09839,-127.1 L 3.09999,-127 L 3.09839,-126.9 L 3.09355,-126.8 L 3.08553,-126.701 L 3.07428,-126.602
 L 3.05984,-126.503 L 3.04224,-126.404 L 3.02147,-126.307 L 2.99757,-126.21 L 2.97055,-126.114 L 2.94046,-126.018
 L 2.9073,-125.924 L 2.87114,-125.831 L 2.83199,-125.739 L 2.78989,-125.649 L 2.7449,-125.559 L 2.69707,-125.472
 L 2.64644,-125.386 L 2.59305,-125.301 L 2.53697,-125.219 L 2.47827,-125.138 L 2.41698,-125.059 L 2.3532,-124.982
 L 2.28696,-124.907 L 2.21835,-124.835 L 2.14743,-124.764 L 2.0743,-124.696 L 1.99901,-124.631 L 1.92163,-124.567
 L 1.84227,-124.507 L 1.76099,-124.449 L 1.67789,-124.393 L 1.59305,-124.341 L 1.50655,-124.291 L 1.41847,-124.244
 L 1.32893,-124.199 L 1.23802,-124.158 L 1.14581,-124.12 L 1.05243,-124.084 L 0.957947,-124.052 L 0.862473,-124.022
 L 0.766098,-123.996 L 0.66893,-123.973 L 0.57106,-123.953 L 0.47261,-123.936 L 0.373657,-123.923 L 0.274323,-123.912
 L 0.174698,-123.905 L 0.0749054,-123.901 L -0.0249634,-123.9 z
M -25.5248,-123.903 L -25.6245,-123.908 L -25.724,-123.917 L -25.8232,-123.929 L -25.9219,-123.944 L -26.0201,-123.963
 L -26.1176,-123.984 L -26.2144,-124.009 L -26.3103,-124.037 L -26.4053,-124.068 L -26.4993,-124.101 L -26.5921,-124.138
 L -26.6836,-124.178 L -26.7739,-124.221 L -26.8627,-124.267 L -26.95,-124.315 L -27.0357,-124.367 L -27.1197,-124.421
 L -27.2019,-124.477 L -27.2822,-124.537 L -27.3606,-124.599 L -27.4369,-124.663 L -27.5111,-124.73 L -27.5832,-124.799
 L -27.6529,-124.871 L -27.7204,-124.944 L -27.7854,-125.02 L -27.8479,-125.098 L -27.9079,-125.178 L -27.9653,-125.26
 L -28.0201,-125.343 L -28.0721,-125.428 L -28.1213,-125.515 L -28.1678,-125.604 L -28.2113,-125.694 L -28.2519,-125.785
 L -28.2896,-125.877 L -28.3242,-125.971 L -28.3559,-126.066 L -28.3844,-126.162 L -28.4099,-126.258 L -28.4323,-126.355
 L -28.4514,-126.454 L -28.4675,-126.552 L -28.4803,-126.651 L -28.4899,-126.751 L -28.4964,-126.85 L -28.4996,-126.95
 L -28.4996,-127.05 L -28.4964,-127.15 L -28.4899,-127.249 L -28.4803,-127.349 L -28.4675,-127.448 L -28.4514,-127.546
 L -28.4323,-127.645 L -28.4099,-127.742 L -28.3844,-127.838 L -28.3559,-127.934 L -28.3242,-128.029 L -28.2896,-128.123
 L -28.2519,-128.215 L -28.2113,-128.306 L -28.1678,-128.396 L -28.1213,-128.485 L -28.0721,-128.572 L -28.0201,-128.657
 L -27.9653,-128.74 L -27.9079,-128.822 L -27.8479,-128.902 L -27.7854,-128.98 L -27.7204,-129.056 L -27.6529,-129.129
 L -27.5832,-129.201 L -27.5111,-129.27 L -27.4369,-129.337 L -27.3606,-129.401 L -27.2822,-129.463 L -27.2019,-129.523
 L -27.1197,-129.579 L -27.0357,-129.633 L -26.95,-129.685 L -26.8627,-129.733 L -26.7739,-129.779 L -26.6836,-129.822
 L -26.5921,-129.862 L -26.4993,-129.899 L -26.4053,-129.932 L -26.3103,-129.963 L -26.2144,-129.991 L -26.1176,-130.016
 L -26.0201,-130.037 L -25.9219,-130.056 L -25.8232,-130.071 L -25.724,-130.083 L -25.6245,-130.092 L -25.5248,-130.097
 L -25.425,-130.1 L -25.3251,-130.099 L -25.2253,-130.095 L -25.1257,-130.088 L -25.0263,-130.077 L -24.9274,-130.064
 L -24.8289,-130.047 L -24.7311,-130.027 L -24.6339,-130.004 L -24.5375,-129.978 L -24.442,-129.948 L -24.3476,-129.916
 L -24.2542,-129.88 L -24.162,-129.842 L -24.0711,-129.801 L -23.9815,-129.756 L -23.8934,-129.709 L -23.8069,-129.659
 L -23.7221,-129.607 L -23.639,-129.551 L -23.5577,-129.493 L -23.4784,-129.433 L -23.401,-129.369 L -23.3257,-129.304
 L -23.2526,-129.236 L -23.1816,-129.165 L -23.113,-129.093 L -23.0468,-129.018 L -22.983,-128.941 L -22.9217,-128.862
 L -22.863,-128.781 L -22.8069,-128.699 L -22.7536,-128.614 L -22.7029,-128.528 L -22.6551,-128.441 L -22.6101,-128.351
 L -22.568,-128.261 L -22.5289,-128.169 L -22.4927,-128.076 L -22.4595,-127.982 L -22.4294,-127.886 L -22.4024,-127.79
 L -22.3785,-127.693 L -22.3578,-127.596 L -22.3401,-127.497 L -22.3257,-127.398 L -22.3145,-127.299 L -22.3064,-127.2
 L -22.3016,-127.1 L -22.3,-127 L -22.3016,-126.9 L -22.3064,-126.8 L -22.3145,-126.701 L -22.3257,-126.602
 L -22.3401,-126.503 L -22.3578,-126.404 L -22.3785,-126.307 L -22.4024,-126.21 L -22.4294,-126.114 L -22.4595,-126.018
 L -22.4927,-125.924 L -22.5289,-125.831 L -22.568,-125.739 L -22.6101,-125.649 L -22.6551,-125.559 L -22.7029,-125.472
 L -22.7536,-125.386 L -22.8069,-125.301 L -22.863,-125.219 L -22.9217,-125.138 L -22.983,-125.059 L -23.0468,-124.982
 L -23.113,-124.907 L -23.1816,-124.835 L -23.2526,-124.764 L -23.3257,-124.696 L -23.401,-124.631 L -23.4784,-124.567
 L -23.5577,-124.507 L -23.639,-124.449 L -23.7221,-124.393 L -23.8069,-124.341 L -23.8934,-124.291 L -23.9815,-124.244
 L -24.0711,-124.199 L -24.162,-124.158 L -24.2542,-124.12 L -24.3476,-124.084 L -24.442,-124.052 L -24.5375,-124.022
 L -24.6339,-123.996 L -24.7311,-123.973 L -24.8289,-123.953 L -24.9274,-123.936 L -25.0263,-123.923 L -25.1257,-123.912
 L -25.2253,-123.905 L -25.3251,-123.901 L -25.425,-123.9 z
M -50.9248,-123.903 L -51.0245,-123.908 L -51.124,-123.917 L -51.2232,-123.929 L -51.3219,-123.944 L -51.4201,-123.963
 L -51.5176,-123.984 L -51.6144,-124.009 L -51.7103,-124.037 L -51.8053,-124.068 L -51.8993,-124.101 L -51.9921,-124.138
 L -52.0836,-124.178 L -52.1739,-124.221 L -52.2627,-124.267 L -52.35,-124.315 L -52.4357,-124.367 L -52.5197,-124.421
 L -52.6019,-124.477 L -52.6822,-124.537 L -52.7606,-124.599 L -52.8369,-124.663 L -52.9111,-124.73 L -52.9832,-124.799
 L -53.0529,-124.871 L -53.1204,-124.944 L -53.1854,-125.02 L -53.2479,-125.098 L -53.3079,-125.178 L -53.3653,-125.26
 L -53.4201,-125.343 L -53.4721,-125.428 L -53.5213,-125.515 L -53.5677,-125.604 L -53.6113,-125.694 L -53.6519,-125.785
 L -53.6896,-125.877 L -53.7242,-125.971 L -53.7559,-126.066 L -53.7844,-126.162 L -53.8099,-126.258 L -53.8322,-126.355
 L -53.8514,-126.454 L -53.8674,-126.552 L -53.8803,-126.651 L -53.8899,-126.751 L -53.8964,-126.85 L -53.8996,-126.95
 L -53.8996,-127.05 L -53.8964,-127.15 L -53.8899,-127.249 L -53.8803,-127.349 L -53.8674,-127.448 L -53.8514,-127.546
 L -53.8322,-127.645 L -53.8099,-127.742 L -53.7844,-127.838 L -53.7559,-127.934 L -53.7242,-128.029 L -53.6896,-128.123
 L -53.6519,-128.215 L -53.6113,-128.306 L -53.5677,-128.396 L -53.5213,-128.485 L -53.4721,-128.572 L -53.4201,-128.657
 L -53.3653,-128.74 L -53.3079,-128.822 L -53.2479,-128.902 L -53.1854,-128.98 L -53.1204,-129.056 L -53.0529,-129.129
 L -52.9832,-129.201 L -52.9111,-129.27 L -52.8369,-129.337 L -52.7606,-129.401 L -52.6822,-129.463 L -52.6019,-129.523
 L -52.5197,-129.579 L -52.4357,-129.633 L -52.35,-129.685 L -52.2627,-129.733 L -52.1739,-129.779 L -52.0836,-129.822
 L -51.9921,-129.862 L -51.8993,-129.899 L -51.8053,-129.932 L -51.7103,-129.963 L -51.6144,-129.991 L -51.5176,-130.016
 L -51.4201,-130.037 L -51.3219,-130.056 L -51.2232,-130.071 L -51.124,-130.083 L -51.0245,-130.092 L -50.9248,-130.097
 L -50.825,-130.1 L -50.7251,-130.099 L -50.6253,-130.095 L -50.5257,-130.088 L -50.4263,-130.077 L -50.3274,-130.064
 L -50.2289,-130.047 L -50.1311,-130.027 L -50.0339,-130.004 L -49.9375,-129.978 L -49.842,-129.948 L -49.7476,-129.916
 L -49.6542,-129.88 L -49.562,-129.842 L -49.4711,-129.801 L -49.3815,-129.756 L -49.2934,-129.709 L -49.2069,-129.659
 L -49.1221,-129.607 L -49.039,-129.551 L -48.9577,-129.493 L -48.8784,-129.433 L -48.801,-129.369 L -48.7257,-129.304
 L -48.6526,-129.236 L -48.5816,-129.165 L -48.513,-129.093 L -48.4468,-129.018 L -48.383,-128.941 L -48.3217,-128.862
 L -48.263,-128.781 L -48.2069,-128.699 L -48.1535,-128.614 L -48.1029,-128.528 L -48.0551,-128.441 L -48.0101,-128.351
 L -47.968,-128.261 L -47.9288,-128.169 L -47.8927,-128.076 L -47.8595,-127.982 L -47.8294,-127.886 L -47.8024,-127.79
 L -47.7785,-127.693 L -47.7578,-127.596 L -47.7401,-127.497 L -47.7257,-127.398 L -47.7145,-127.299 L -47.7064,-127.2
 L -47.7016,-127.1 L -47.7,-127 L -47.7016,-126.9 L -47.7064,-126.8 L -47.7145,-126.701 L -47.7257,-126.602
 L -47.7401,-126.503 L -47.7578,-126.404 L -47.7785,-126.307 L -47.8024,-126.21 L -47.8294,-126.114 L -47.8595,-126.018
 L -47.8927,-125.924 L -47.9288,-125.831 L -47.968,-125.739 L -48.0101,-125.649 L -48.0551,-125.559 L -48.1029,-125.472
 L -48.1535,-125.386 L -48.2069,-125.301 L -48.263,-125.219 L -48.3217,-125.138 L -48.383,-125.059 L -48.4468,-124.982
 L -48.513,-124.907 L -48.5816,-124.835 L -48.6526,-124.764 L -48.7257,-124.696 L -48.801,-124.631 L -48.8784,-124.567
 L -48.9577,-124.507 L -49.039,-124.449 L -49.1221,-124.393 L -49.2069,-124.341 L -49.2934,-124.291 L -49.3815,-124.244
 L -49.4711,-124.199 L -49.562,-124.158 L -49.6542,-124.12 L -49.7476,-124.084 L -49.842,-124.052 L -49.9375,-124.022
 L -50.0339,-123.996 L -50.1311,-123.973 L -50.2289,-123.953 L -50.3274,-123.936 L -50.4263,-123.923 L -50.5257,-123.912
 L -50.6253,-123.905 L -50.7251,-123.901 L -50.825,-123.9 z
M 25.2752,-123.903 L 25.1755,-123.908 L 25.076,-123.917 L 24.9768,-123.929 L 24.8781,-123.944 L 24.7799,-123.963
 L 24.6824,-123.984 L 24.5856,-124.009 L 24.4897,-124.037 L 24.3947,-124.068 L 24.3007,-124.101 L 24.2079,-124.138
 L 24.1163,-124.178 L 24.0261,-124.221 L 23.9373,-124.267 L 23.85,-124.315 L 23.7643,-124.367 L 23.6803,-124.421
 L 23.5981,-124.477 L 23.5178,-124.537 L 23.4394,-124.599 L 23.3631,-124.663 L 23.2888,-124.73 L 23.2168,-124.799
 L 23.147,-124.871 L 23.0796,-124.944 L 23.0146,-125.02 L 22.9521,-125.098 L 22.892,-125.178 L 22.8347,-125.26
 L 22.7799,-125.343 L 22.7279,-125.428 L 22.6786,-125.515 L 22.6322,-125.604 L 22.5887,-125.694 L 22.5481,-125.785
 L 22.5104,-125.877 L 22.4757,-125.971 L 22.4441,-126.066 L 22.4155,-126.162 L 22.3901,-126.258 L 22.3677,-126.355
 L 22.3486,-126.454 L 22.3325,-126.552 L 22.3197,-126.651 L 22.3101,-126.751 L 22.3036,-126.85 L 22.3004,-126.95
 L 22.3004,-127.05 L 22.3036,-127.15 L 22.3101,-127.249 L 22.3197,-127.349 L 22.3325,-127.448 L 22.3486,-127.546
 L 22.3677,-127.645 L 22.3901,-127.742 L 22.4155,-127.838 L 22.4441,-127.934 L 22.4757,-128.029 L 22.5104,-128.123
 L 22.5481,-128.215 L 22.5887,-128.306 L 22.6322,-128.396 L 22.6786,-128.485 L 22.7279,-128.572 L 22.7799,-128.657
 L 22.8347,-128.74 L 22.892,-128.822 L 22.9521,-128.902 L 23.0146,-128.98 L 23.0796,-129.056 L 23.147,-129.129
 L 23.2168,-129.201 L 23.2888,-129.27 L 23.3631,-129.337 L 23.4394,-129.401 L 23.5178,-129.463 L 23.5981,-129.523
 L 23.6803,-129.579 L 23.7643,-129.633 L 23.85,-129.685 L 23.9373,-129.733 L 24.0261,-129.779 L 24.1163,-129.822
 L 24.2079,-129.862 L 24.3007,-129.899 L 24.3947,-129.932 L 24.4897,-129.963 L 24.5856,-129.991 L 24.6824,-130.016
 L 24.7799,-130.037 L 24.8781,-130.056 L 24.9768,-130.071 L 25.076,-130.083 L 25.1755,-130.092 L 25.2752,-130.097
 L 25.375,-130.1 L 25.4749,-130.099 L 25.5747,-130.095 L 25.6743,-130.088 L 25.7737,-130.077 L 25.8726,-130.064
 L 25.9711,-130.047 L 26.0689,-130.027 L 26.1661,-130.004 L 26.2625,-129.978 L 26.3579,-129.948 L 26.4524,-129.916
 L 26.5458,-129.88 L 26.638,-129.842 L 26.7289,-129.801 L 26.8185,-129.756 L 26.9065,-129.709 L 26.993,-129.659
 L 27.0779,-129.607 L 27.161,-129.551 L 27.2423,-129.493 L 27.3216,-129.433 L 27.399,-129.369 L 27.4743,-129.304
 L 27.5474,-129.236 L 27.6183,-129.165 L 27.687,-129.093 L 27.7532,-129.018 L 27.817,-128.941 L 27.8783,-128.862
 L 27.937,-128.781 L 27.993,-128.699 L 28.0464,-128.614 L 28.0971,-128.528 L 28.1449,-128.441 L 28.1899,-128.351
 L 28.232,-128.261 L 28.2711,-128.169 L 28.3073,-128.076 L 28.3405,-127.982 L 28.3705,-127.886 L 28.3976,-127.79
 L 28.4215,-127.693 L 28.4422,-127.596 L 28.4598,-127.497 L 28.4743,-127.398 L 28.4855,-127.299 L 28.4935,-127.2
 L 28.4984,-127.1 L 28.5,-127 L 28.4984,-126.9 L 28.4935,-126.8 L 28.4855,-126.701 L 28.4743,-126.602
 L 28.4598,-126.503 L 28.4422,-126.404 L 28.4215,-126.307 L 28.3976,-126.21 L 28.3705,-126.114 L 28.3405,-126.018
 L 28.3073,-125.924 L 28.2711,-125.831 L 28.232,-125.739 L 28.1899,-125.649 L 28.1449,-125.559 L 28.0971,-125.472
 L 28.0464,-125.386 L 27.993,-125.301 L 27.937,-125.219 L 27.8783,-125.138 L 27.817,-125.059 L 27.7532,-124.982
 L 27.687,-124.907 L 27.6183,-124.835 L 27.5474,-124.764 L 27.4743,-124.696 L 27.399,-124.631 L 27.3216,-124.567
 L 27.2423,-124.507 L 27.161,-124.449 L 27.0779,-124.393 L 26.993,-124.341 L 26.9065,-124.291 L 26.8185,-124.244
 L 26.7289,-124.199 L 26.638,-124.158 L 26.5458,-124.12 L 26.4524,-124.084 L 26.3579,-124.052 L 26.2625,-124.022
 L 26.1661,-123.996 L 26.0689,-123.973 L 25.9711,-123.953 L 25.8726,-123.936 L 25.7737,-123.923 L 25.6743,-123.912
 L 25.5747,-123.905 L 25.4749,-123.901 L 25.375,-123.9 z
M 50.6752,-123.903 L 50.5755,-123.908 L 50.476,-123.917 L 50.3768,-123.929 L 50.2781,-123.944 L 50.1799,-123.963
 L 50.0824,-123.984 L 49.9856,-124.009 L 49.8897,-124.037 L 49.7947,-124.068 L 49.7007,-124.101 L 49.6079,-124.138
 L 49.5163,-124.178 L 49.4261,-124.221 L 49.3373,-124.267 L 49.25,-124.315 L 49.1643,-124.367 L 49.0803,-124.421
 L 48.9981,-124.477 L 48.9178,-124.537 L 48.8394,-124.599 L 48.7631,-124.663 L 48.6888,-124.73 L 48.6168,-124.799
 L 48.547,-124.871 L 48.4796,-124.944 L 48.4146,-125.02 L 48.3521,-125.098 L 48.292,-125.178 L 48.2346,-125.26
 L 48.1799,-125.343 L 48.1279,-125.428 L 48.0786,-125.515 L 48.0322,-125.604 L 47.9887,-125.694 L 47.9481,-125.785
 L 47.9104,-125.877 L 47.8757,-125.971 L 47.8441,-126.066 L 47.8155,-126.162 L 47.7901,-126.258 L 47.7677,-126.355
 L 47.7486,-126.454 L 47.7325,-126.552 L 47.7197,-126.651 L 47.7101,-126.751 L 47.7036,-126.85 L 47.7004,-126.95
 L 47.7004,-127.05 L 47.7036,-127.15 L 47.7101,-127.249 L 47.7197,-127.349 L 47.7325,-127.448 L 47.7486,-127.546
 L 47.7677,-127.645 L 47.7901,-127.742 L 47.8155,-127.838 L 47.8441,-127.934 L 47.8757,-128.029 L 47.9104,-128.123
 L 47.9481,-128.215 L 47.9887,-128.306 L 48.0322,-128.396 L 48.0786,-128.485 L 48.1279,-128.572 L 48.1799,-128.657
 L 48.2346,-128.74 L 48.292,-128.822 L 48.3521,-128.902 L 48.4146,-128.98 L 48.4796,-129.056 L 48.547,-129.129
 L 48.6168,-129.201 L 48.6888,-129.27 L 48.7631,-129.337 L 48.8394,-129.401 L 48.9178,-129.463 L 48.9981,-129.523
 L 49.0803,-129.579 L 49.1643,-129.633 L 49.25,-129.685 L 49.3373,-129.733 L 49.4261,-129.779 L 49.5163,-129.822
 L 49.6079,-129.862 L 49.7007,-129.899 L 49.7947,-129.932 L 49.8897,-129.963 L 49.9856,-129.991 L 50.0824,-130.016
 L 50.1799,-130.037 L 50.2781,-130.056 L 50.3768,-130.071 L 50.476,-130.083 L 50.5755,-130.092 L 50.6752,-130.097
 L 50.775,-130.1 L 50.8749,-130.099 L 50.9747,-130.095 L 51.0743,-130.088 L 51.1736,-130.077 L 51.2726,-130.064
 L 51.371,-130.047 L 51.4689,-130.027 L 51.5661,-130.004 L 51.6625,-129.978 L 51.7579,-129.948 L 51.8524,-129.916
 L 51.9458,-129.88 L 52.038,-129.842 L 52.1289,-129.801 L 52.2185,-129.756 L 52.3065,-129.709 L 52.393,-129.659
 L 52.4779,-129.607 L 52.561,-129.551 L 52.6423,-129.493 L 52.7216,-129.433 L 52.799,-129.369 L 52.8743,-129.304
 L 52.9474,-129.236 L 53.0183,-129.165 L 53.0869,-129.093 L 53.1532,-129.018 L 53.217,-128.941 L 53.2783,-128.862
 L 53.337,-128.781 L 53.393,-128.699 L 53.4464,-128.614 L 53.4971,-128.528 L 53.5449,-128.441 L 53.5899,-128.351
 L 53.632,-128.261 L 53.6711,-128.169 L 53.7073,-128.076 L 53.7404,-127.982 L 53.7705,-127.886 L 53.7976,-127.79
 L 53.8215,-127.693 L 53.8422,-127.596 L 53.8598,-127.497 L 53.8743,-127.398 L 53.8855,-127.299 L 53.8935,-127.2
 L 53.8984,-127.1 L 53.9,-127 L 53.8984,-126.9 L 53.8935,-126.8 L 53.8855,-126.701 L 53.8743,-126.602
 L 53.8598,-126.503 L 53.8422,-126.404 L 53.8215,-126.307 L 53.7976,-126.21 L 53.7705,-126.114 L 53.7404,-126.018
 L 53.7073,-125.924 L 53.6711,-125.831 L 53.632,-125.739 L 53.5899,-125.649 L 53.5449,-125.559 L 53.4971,-125.472
 L 53.4464,-125.386 L 53.393,-125.301 L 53.337,-125.219 L 53.2783,-125.138 L 53.217,-125.059 L 53.1532,-124.982
 L 53.0869,-124.907 L 53.0183,-124.835 L 52.9474,-124.764 L 52.8743,-124.696 L 52.799,-124.631 L 52.7216,-124.567
 L 52.6423,-124.507 L 52.561,-124.449 L 52.4779,-124.393 L 52.393,-124.341 L 52.3065,-124.291 L 52.2185,-124.244
 L 52.1289,-124.199 L 52.038,-124.158 L 51.9458,-124.12 L 51.8524,-124.084 L 51.7579,-124.052 L 51.6625,-124.022
 L 51.5661,-123.996 L 51.4689,-123.973 L 51.371,-123.953 L 51.2726,-123.936 L 51.1736,-123.923 L 51.0743,-123.912
 L 50.9747,-123.905 L 50.8749,-123.901 L 50.775,-123.9 z
M -50.9248,-98.5025 L -51.0245,-98.5081 L -51.124,-98.517 L -51.2232,-98.529 L -51.3219,-98.5443 L -51.4201,-98.5627
 L -51.5176,-98.5842 L -51.6144,-98.6089 L -51.7103,-98.6367 L -51.8053,-98.6675 L -51.8993,-98.7014 L -51.9921,-98.7384
 L -52.0836,-98.7783 L -52.1739,-98.8211 L -52.2627,-98.8668 L -52.35,-98.9153 L -52.4357,-98.9666 L -52.5197,-99.0207
 L -52.6019,-99.0775 L -52.6822,-99.1368 L -52.7606,-99.1987 L -52.8369,-99.2631 L -52.9111,-99.33 L -52.9832,-99.3992
 L -53.0529,-99.4706 L -53.1204,-99.5443 L -53.1854,-99.6201 L -53.2479,-99.698 L -53.3079,-99.7779 L -53.3653,-99.8596
 L -53.4201,-99.9432 L -53.4721,-100.028 L -53.5213,-100.115 L -53.5677,-100.204 L -53.6113,-100.294 L -53.6519,-100.385
 L -53.6896,-100.477 L -53.7242,-100.571 L -53.7559,-100.666 L -53.7844,-100.762 L -53.8099,-100.858 L -53.8322,-100.955
 L -53.8514,-101.053 L -53.8674,-101.152 L -53.8803,-101.251 L -53.8899,-101.351 L -53.8964,-101.45 L -53.8996,-101.55
 L -53.8996,-101.65 L -53.8964,-101.75 L -53.8899,-101.849 L -53.8803,-101.949 L -53.8674,-102.048 L -53.8514,-102.146
 L -53.8322,-102.245 L -53.8099,-102.342 L -53.7844,-102.438 L -53.7559,-102.534 L -53.7242,-102.629 L -53.6896,-102.723
 L -53.6519,-102.815 L -53.6113,-102.906 L -53.5677,-102.996 L -53.5213,-103.085 L -53.4721,-103.172 L -53.4201,-103.257
 L -53.3653,-103.34 L -53.3079,-103.422 L -53.2479,-103.502 L -53.1854,-103.58 L -53.1204,-103.656 L -53.0529,-103.729
 L -52.9832,-103.801 L -52.9111,-103.87 L -52.8369,-103.937 L -52.7606,-104.001 L -52.6822,-104.063 L -52.6019,-104.123
 L -52.5197,-104.179 L -52.4357,-104.233 L -52.35,-104.285 L -52.2627,-104.333 L -52.1739,-104.379 L -52.0836,-104.422
 L -51.9921,-104.462 L -51.8993,-104.499 L -51.8053,-104.532 L -51.7103,-104.563 L -51.6144,-104.591 L -51.5176,-104.616
 L -51.4201,-104.637 L -51.3219,-104.656 L -51.2232,-104.671 L -51.124,-104.683 L -51.0245,-104.692 L -50.9248,-104.697
 L -50.825,-104.7 L -50.7251,-104.699 L -50.6253,-104.695 L -50.5257,-104.688 L -50.4263,-104.677 L -50.3274,-104.664
 L -50.2289,-104.647 L -50.1311,-104.627 L -50.0339,-104.604 L -49.9375,-104.578 L -49.842,-104.548 L -49.7476,-104.516
 L -49.6542,-104.48 L -49.562,-104.442 L -49.4711,-104.401 L -49.3815,-104.356 L -49.2934,-104.309 L -49.2069,-104.259
 L -49.1221,-104.207 L -49.039,-104.151 L -48.9577,-104.093 L -48.8784,-104.033 L -48.801,-103.969 L -48.7257,-103.904
 L -48.6526,-103.836 L -48.5816,-103.765 L -48.513,-103.693 L -48.4468,-103.618 L -48.383,-103.541 L -48.3217,-103.462
 L -48.263,-103.381 L -48.2069,-103.299 L -48.1535,-103.214 L -48.1029,-103.128 L -48.0551,-103.041 L -48.0101,-102.951
 L -47.968,-102.861 L -47.9288,-102.769 L -47.8927,-102.676 L -47.8595,-102.582 L -47.8294,-102.486 L -47.8024,-102.39
 L -47.7785,-102.293 L -47.7578,-102.196 L -47.7401,-102.097 L -47.7257,-101.998 L -47.7145,-101.899 L -47.7064,-101.8
 L -47.7016,-101.7 L -47.7,-101.6 L -47.7016,-101.5 L -47.7064,-101.4 L -47.7145,-101.301 L -47.7257,-101.202
 L -47.7401,-101.103 L -47.7578,-101.004 L -47.7785,-100.907 L -47.8024,-100.81 L -47.8294,-100.714 L -47.8595,-100.618
 L -47.8927,-100.524 L -47.9288,-100.431 L -47.968,-100.339 L -48.0101,-100.249 L -48.0551,-100.159 L -48.1029,-100.072
 L -48.1535,-99.9856 L -48.2069,-99.9012 L -48.263,-99.8185 L -48.3217,-99.7377 L -48.383,-99.6588 L -48.4468,-99.582
 L -48.513,-99.5072 L -48.5816,-99.4346 L -48.6526,-99.3643 L -48.7257,-99.2962 L -48.801,-99.2306 L -48.8784,-99.1674
 L -48.9577,-99.1068 L -49.039,-99.0488 L -49.1221,-98.9933 L -49.2069,-98.9406 L -49.2934,-98.8907 L -49.3815,-98.8436
 L -49.4711,-98.7993 L -49.562,-98.7579 L -49.6542,-98.7195 L -49.7476,-98.6841 L -49.842,-98.6517 L -49.9375,-98.6224
 L -50.0339,-98.5961 L -50.1311,-98.573 L -50.2289,-98.5531 L -50.3274,-98.5362 L -50.4263,-98.5226 L -50.5257,-98.5122
 L -50.6253,-98.5049 L -50.7251,-98.5009 L -50.825,-98.5001 z
M -0.124817,-98.5025 L -0.224533,-98.5081 L -0.324036,-98.517 L -0.423187,-98.529 L -0.521896,-98.5443 L -0.620071,-98.5627
 L -0.717606,-98.5842 L -0.814392,-98.6089 L -0.910324,-98.6367 L -1.00531,-98.6675 L -1.09927,-98.7014 L -1.19208,-98.7384
 L -1.28365,-98.7783 L -1.37389,-98.8211 L -1.46269,-98.8668 L -1.54999,-98.9153 L -1.63568,-98.9666 L -1.71967,-99.0207
 L -1.80186,-99.0775 L -1.8822,-99.1368 L -1.96057,-99.1987 L -2.03691,-99.2631 L -2.11115,-99.33 L -2.18318,-99.3992
 L -2.25294,-99.4706 L -2.32037,-99.5443 L -2.38539,-99.6201 L -2.44794,-99.698 L -2.50795,-99.7779 L -2.56534,-99.8596
 L -2.62009,-99.9432 L -2.6721,-100.028 L -2.72134,-100.115 L -2.76776,-100.204 L -2.81131,-100.294 L -2.85193,-100.385
 L -2.88959,-100.477 L -2.92426,-100.571 L -2.95589,-100.666 L -2.98445,-100.762 L -3.00992,-100.858 L -3.03226,-100.955
 L -3.05144,-101.053 L -3.06746,-101.152 L -3.08031,-101.251 L -3.08994,-101.351 L -3.09637,-101.45 L -3.09959,-101.55
 L -3.09959,-101.65 L -3.09637,-101.75 L -3.08994,-101.849 L -3.08031,-101.949 L -3.06746,-102.048 L -3.05144,-102.146
 L -3.03226,-102.245 L -3.00992,-102.342 L -2.98445,-102.438 L -2.95589,-102.534 L -2.92426,-102.629 L -2.88959,-102.723
 L -2.85193,-102.815 L -2.81131,-102.906 L -2.76776,-102.996 L -2.72134,-103.085 L -2.6721,-103.172 L -2.62009,-103.257
 L -2.56534,-103.34 L -2.50795,-103.422 L -2.44794,-103.502 L -2.38539,-103.58 L -2.32037,-103.656 L -2.25294,-103.729
 L -2.18318,-103.801 L -2.11115,-103.87 L -2.03691,-103.937 L -1.96057,-104.001 L -1.8822,-104.063 L -1.80186,-104.123
 L -1.71967,-104.179 L -1.63568,-104.233 L -1.54999,-104.285 L -1.46269,-104.333 L -1.37389,-104.379 L -1.28365,-104.422
 L -1.19208,-104.462 L -1.09927,-104.499 L -1.00531,-104.532 L -0.910324,-104.563 L -0.814392,-104.591 L -0.717606,-104.616
 L -0.620071,-104.637 L -0.521896,-104.656 L -0.423187,-104.671 L -0.324036,-104.683 L -0.224533,-104.692 L -0.124817,-104.697
 L -0.0249634,-104.7 L 0.0749054,-104.699 L 0.174698,-104.695 L 0.274323,-104.688 L 0.373657,-104.677 L 0.47261,-104.664
 L 0.57106,-104.647 L 0.66893,-104.627 L 0.766098,-104.604 L 0.862473,-104.578 L 0.957947,-104.548 L 1.05243,-104.516
 L 1.14581,-104.48 L 1.23802,-104.442 L 1.32893,-104.401 L 1.41847,-104.356 L 1.50655,-104.309 L 1.59305,-104.259
 L 1.67789,-104.207 L 1.76099,-104.151 L 1.84227,-104.093 L 1.92163,-104.033 L 1.99901,-103.969 L 2.0743,-103.904
 L 2.14743,-103.836 L 2.21835,-103.765 L 2.28696,-103.693 L 2.3532,-103.618 L 2.41698,-103.541 L 2.47827,-103.462
 L 2.53697,-103.381 L 2.59305,-103.299 L 2.64644,-103.214 L 2.69707,-103.128 L 2.7449,-103.041 L 2.78989,-102.951
 L 2.83199,-102.861 L 2.87114,-102.769 L 2.9073,-102.676 L 2.94046,-102.582 L 2.97055,-102.486 L 2.99757,-102.39
 L 3.02147,-102.293 L 3.04224,-102.196 L 3.05984,-102.097 L 3.07428,-101.998 L 3.08553,-101.899 L 3.09355,-101.8
 L 3.09839,-101.7 L 3.09999,-101.6 L 3.09839,-101.5 L 3.09355,-101.4 L 3.08553,-101.301 L 3.07428,-101.202
 L 3.05984,-101.103 L 3.04224,-101.004 L 3.02147,-100.907 L 2.99757,-100.81 L 2.97055,-100.714 L 2.94046,-100.618
 L 2.9073,-100.524 L 2.87114,-100.431 L 2.83199,-100.339 L 2.78989,-100.249 L 2.7449,-100.159 L 2.69707,-100.072
 L 2.64644,-99.9856 L 2.59305,-99.9012 L 2.53697,-99.8185 L 2.47827,-99.7377 L 2.41698,-99.6588 L 2.3532,-99.582
 L 2.28696,-99.5072 L 2.21835,-99.4346 L 2.14743,-99.3643 L 2.0743,-99.2962 L 1.99901,-99.2306 L 1.92163,-99.1674
 L 1.84227,-99.1068 L 1.76099,-99.0488 L 1.67789,-98.9933 L 1.59305,-98.9406 L 1.50655,-98.8907 L 1.41847,-98.8436
 L 1.32893,-98.7993 L 1.23802,-98.7579 L 1.14581,-98.7195 L 1.05243,-98.6841 L 0.957947,-98.6517 L 0.862473,-98.6224
 L 0.766098,-98.5961 L 0.66893,-98.573 L 0.57106,-98.5531 L 0.47261,-98.5362 L 0.373657,-98.5226 L 0.274323,-98.5122
 L 0.174698,-98.5049 L 0.0749054,-98.5009 L -0.0249634,-98.5001 z
M -25.5248,-98.5025 L -25.6245,-98.5081 L -25.724,-98.517 L -25.8232,-98.529 L -25.9219,-98.5443 L -26.0201,-98.5627
 L -26.1176,-98.5842 L -26.2144,-98.6089 L -26.3103,-98.6367 L -26.4053,-98.6675 L -26.4993,-98.7014 L -26.5921,-98.7384
 L -26.6836,-98.7783 L -26.7739,-98.8211 L -26.8627,-98.8668 L -26.95,-98.9153 L -27.0357,-98.9666 L -27.1197,-99.0207
 L -27.2019,-99.0775 L -27.2822,-99.1368 L -27.3606,-99.1987 L -27.4369,-99.2631 L -27.5111,-99.33 L -27.5832,-99.3992
 L -27.6529,-99.4706 L -27.7204,-99.5443 L -27.7854,-99.6201 L -27.8479,-99.698 L -27.9079,-99.7779 L -27.9653,-99.8596
 L -28.0201,-99.9432 L -28.0721,-100.028 L -28.1213,-100.115 L -28.1678,-100.204 L -28.2113,-100.294 L -28.2519,-100.385
 L -28.2896,-100.477 L -28.3242,-100.571 L -28.3559,-100.666 L -28.3844,-100.762 L -28.4099,-100.858 L -28.4323,-100.955
 L -28.4514,-101.053 L -28.4675,-101.152 L -28.4803,-101.251 L -28.4899,-101.351 L -28.4964,-101.45 L -28.4996,-101.55
 L -28.4996,-101.65 L -28.4964,-101.75 L -28.4899,-101.849 L -28.4803,-101.949 L -28.4675,-102.048 L -28.4514,-102.146
 L -28.4323,-102.245 L -28.4099,-102.342 L -28.3844,-102.438 L -28.3559,-102.534 L -28.3242,-102.629 L -28.2896,-102.723
 L -28.2519,-102.815 L -28.2113,-102.906 L -28.1678,-102.996 L -28.1213,-103.085 L -28.0721,-103.172 L -28.0201,-103.257
 L -27.9653,-103.34 L -27.9079,-103.422 L -27.8479,-103.502 L -27.7854,-103.58 L -27.7204,-103.656 L -27.6529,-103.729
 L -27.5832,-103.801 L -27.5111,-103.87 L -27.4369,-103.937 L -27.3606,-104.001 L -27.2822,-104.063 L -27.2019,-104.123
 L -27.1197,-104.179 L -27.0357,-104.233 L -26.95,-104.285 L -26.8627,-104.333 L -26.7739,-104.379 L -26.6836,-104.422
 L -26.5921,-104.462 L -26.4993,-104.499 L -26.4053,-104.532 L -26.3103,-104.563 L -26.2144,-104.591 L -26.1176,-104.616
 L -26.0201,-104.637 L -25.9219,-104.656 L -25.8232,-104.671 L -25.724,-104.683 L -25.6245,-104.692 L -25.5248,-104.697
 L -25.425,-104.7 L -25.3251,-104.699 L -25.2253,-104.695 L -25.1257,-104.688 L -25.0263,-104.677 L -24.9274,-104.664
 L -24.8289,-104.647 L -24.7311,-104.627 L -24.6339,-104.604 L -24.5375,-104.578 L -24.442,-104.548 L -24.3476,-104.516
 L -24.2542,-104.48 L -24.162,-104.442 L -24.0711,-104.401 L -23.9815,-104.356 L -23.8934,-104.309 L -23.8069,-104.259
 L -23.7221,-104.207 L -23.639,-104.151 L -23.5577,-104.093 L -23.4784,-104.033 L -23.401,-103.969 L -23.3257,-103.904
 L -23.2526,-103.836 L -23.1816,-103.765 L -23.113,-103.693 L -23.0468,-103.618 L -22.983,-103.541 L -22.9217,-103.462
 L -22.863,-103.381 L -22.8069,-103.299 L -22.7536,-103.214 L -22.7029,-103.128 L -22.6551,-103.041 L -22.6101,-102.951
 L -22.568,-102.861 L -22.5289,-102.769 L -22.4927,-102.676 L -22.4595,-102.582 L -22.4294,-102.486 L -22.4024,-102.39
 L -22.3785,-102.293 L -22.3578,-102.196 L -22.3401,-102.097 L -22.3257,-101.998 L -22.3145,-101.899 L -22.3064,-101.8
 L -22.3016,-101.7 L -22.3,-101.6 L -22.3016,-101.5 L -22.3064,-101.4 L -22.3145,-101.301 L -22.3257,-101.202
 L -22.3401,-101.103 L -22.3578,-101.004 L -22.3785,-100.907 L -22.4024,-100.81 L -22.4294,-100.714 L -22.4595,-100.618
 L -22.4927,-100.524 L -22.5289,-100.431 L -22.568,-100.339 L -22.6101,-100.249 L -22.6551,-100.159 L -22.7029,-100.072
 L -22.7536,-99.9856 L -22.8069,-99.9012 L -22.863,-99.8185 L -22.9217,-99.7377 L -22.983,-99.6588 L -23.0468,-99.582
 L -23.113,-99.5072 L -23.1816,-99.4346 L -23.2526,-99.3643 L -23.3257,-99.2962 L -23.401,-99.2306 L -23.4784,-99.1674
 L -23.5577,-99.1068 L -23.639,-99.0488 L -23.7221,-98.9933 L -23.8069,-98.9406 L -23.8934,-98.8907 L -23.9815,-98.8436
 L -24.0711,-98.7993 L -24.162,-98.7579 L -24.2542,-98.7195 L -24.3476,-98.6841 L -24.442,-98.6517 L -24.5375,-98.6224
 L -24.6339,-98.5961 L -24.7311,-98.573 L -24.8289,-98.5531 L -24.9274,-98.5362 L -25.0263,-98.5226 L -25.1257,-98.5122
 L -25.2253,-98.5049 L -25.3251,-98.5009 L -25.425,-98.5001 z
M 25.2752,-98.5025 L 25.1755,-98.5081 L 25.076,-98.517 L 24.9768,-98.529 L 24.8781,-98.5443 L 24.7799,-98.5627
 L 24.6824,-98.5842 L 24.5856,-98.6089 L 24.4897,-98.6367 L 24.3947,-98.6675 L 24.3007,-98.7014 L 24.2079,-98.7384
 L 24.1163,-98.7783 L 24.0261,-98.8211 L 23.9373,-98.8668 L 23.85,-98.9153 L 23.7643,-98.9666 L 23.6803,-99.0207
 L 23.5981,-99.0775 L 23.5178,-99.1368 L 23.4394,-99.1987 L 23.3631,-99.2631 L 23.2888,-99.33 L 23.2168,-99.3992
 L 23.147,-99.4706 L 23.0796,-99.5443 L 23.0146,-99.6201 L 22.9521,-99.698 L 22.892,-99.7779 L 22.8347,-99.8596
 L 22.7799,-99.9432 L 22.7279,-100.028 L 22.6786,-100.115 L 22.6322,-100.204 L 22.5887,-100.294 L 22.5481,-100.385
 L 22.5104,-100.477 L 22.4757,-100.571 L 22.4441,-100.666 L 22.4155,-100.762 L 22.3901,-100.858 L 22.3677,-100.955
 L 22.3486,-101.053 L 22.3325,-101.152 L 22.3197,-101.251 L 22.3101,-101.351 L 22.3036,-101.45 L 22.3004,-101.55
 L 22.3004,-101.65 L 22.3036,-101.75 L 22.3101,-101.849 L 22.3197,-101.949 L 22.3325,-102.048 L 22.3486,-102.146
 L 22.3677,-102.245 L 22.3901,-102.342 L 22.4155,-102.438 L 22.4441,-102.534 L 22.4757,-102.629 L 22.5104,-102.723
 L 22.5481,-102.815 L 22.5887,-102.906 L 22.6322,-102.996 L 22.6786,-103.085 L 22.7279,-103.172 L 22.7799,-103.257
 L 22.8347,-103.34 L 22.892,-103.422 L 22.9521,-103.502 L 23.0146,-103.58 L 23.0796,-103.656 L 23.147,-103.729
 L 23.2168,-103.801 L 23.2888,-103.87 L 23.3631,-103.937 L 23.4394,-104.001 L 23.5178,-104.063 L 23.5981,-104.123
 L 23.6803,-104.179 L 23.7643,-104.233 L 23.85,-104.285 L 23.9373,-104.333 L 24.0261,-104.379 L 24.1163,-104.422
 L 24.2079,-104.462 L 24.3007,-104.499 L 24.3947,-104.532 L 24.4897,-104.563 L 24.5856,-104.591 L 24.6824,-104.616
 L 24.7799,-104.637 L 24.8781,-104.656 L 24.9768,-104.671 L 25.076,-104.683 L 25.1755,-104.692 L 25.2752,-104.697
 L 25.375,-104.7 L 25.4749,-104.699 L 25.5747,-104.695 L 25.6743,-104.688 L 25.7737,-104.677 L 25.8726,-104.664
 L 25.9711,-104.647 L 26.0689,-104.627 L 26.1661,-104.604 L 26.2625,-104.578 L 26.3579,-104.548 L 26.4524,-104.516
 L 26.5458,-104.48 L 26.638,-104.442 L 26.7289,-104.401 L 26.8185,-104.356 L 26.9065,-104.309 L 26.993,-104.259
 L 27.0779,-104.207 L 27.161,-104.151 L 27.2423,-104.093 L 27.3216,-104.033 L 27.399,-103.969 L 27.4743,-103.904
 L 27.5474,-103.836 L 27.6183,-103.765 L 27.687,-103.693 L 27.7532,-103.618 L 27.817,-103.541 L 27.8783,-103.462
 L 27.937,-103.381 L 27.993,-103.299 L 28.0464,-103.214 L 28.0971,-103.128 L 28.1449,-103.041 L 28.1899,-102.951
 L 28.232,-102.861 L 28.2711,-102.769 L 28.3073,-102.676 L 28.3405,-102.582 L 28.3705,-102.486 L 28.3976,-102.39
 L 28.4215,-102.293 L 28.4422,-102.196 L 28.4598,-102.097 L 28.4743,-101.998 L 28.4855,-101.899 L 28.4935,-101.8
 L 28.4984,-101.7 L 28.5,-101.6 L 28.4984,-101.5 L 28.4935,-101.4 L 28.4855,-101.301 L 28.4743,-101.202
 L 28.4598,-101.103 L 28.4422,-101.004 L 28.4215,-100.907 L 28.3976,-100.81 L 28.3705,-100.714 L 28.3405,-100.618
 L 28.3073,-100.524 L 28.2711,-100.431 L 28.232,-100.339 L 28.1899,-100.249 L 28.1449,-100.159 L 28.0971,-100.072
 L 28.0464,-99.9856 L 27.993,-99.9012 L 27.937,-99.8185 L 27.8783,-99.7377 L 27.817,-99.6588 L 27.7532,-99.582
 L 27.687,-99.5072 L 27.6183,-99.4346 L 27.5474,-99.3643 L 27.4743,-99.2962 L 27.399,-99.2306 L 27.3216,-99.1674
 L 27.2423,-99.1068 L 27.161,-99.0488 L 27.0779,-98.9933 L 26.993,-98.9406 L 26.9065,-98.8907 L 26.8185,-98.8436
 L 26.7289,-98.7993 L 26.638,-98.7579 L 26.5458,-98.7195 L 26.4524,-98.6841 L 26.3579,-98.6517 L 26.2625,-98.6224
 L 26.1661,-98.5961 L 26.0689,-98.573 L 25.9711,-98.5531 L 25.8726,-98.5362 L 25.7737,-98.5226 L 25.6743,-98.5122
 L 25.5747,-98.5049 L 25.4749,-98.5009 L 25.375,-98.5001 z
M -25.5248,-73.1025 L -25.6245,-73.1082 L -25.724,-73.117 L -25.8232,-73.129 L -25.9219,-73.1443 L -26.0201,-73.1627
 L -26.1176,-73.1842 L -26.2144,-73.2089 L -26.3103,-73.2367 L -26.4053,-73.2675 L -26.4993,-73.3015 L -26.5921,-73.3384
 L -26.6836,-73.3783 L -26.7739,-73.4211 L -26.8627,-73.4668 L -26.95,-73.5153 L -27.0357,-73.5667 L -27.1197,-73.6207
 L -27.2019,-73.6775 L -27.2822,-73.7368 L -27.3606,-73.7987 L -27.4369,-73.8631 L -27.5111,-73.93 L -27.5832,-73.9992
 L -27.6529,-74.0706 L -27.7204,-74.1443 L -27.7854,-74.2201 L -27.8479,-74.298 L -27.9079,-74.3779 L -27.9653,-74.4596
 L -28.0201,-74.5432 L -28.0721,-74.6284 L -28.1213,-74.7153 L -28.1678,-74.8038 L -28.2113,-74.8937 L -28.2519,-74.9849
 L -28.2896,-75.0774 L -28.3242,-75.1711 L -28.3559,-75.2658 L -28.3844,-75.3615 L -28.4099,-75.4581 L -28.4323,-75.5555
 L -28.4514,-75.6535 L -28.4675,-75.7521 L -28.4803,-75.8511 L -28.4899,-75.9506 L -28.4964,-76.0502 L -28.4996,-76.1501
 L -28.4996,-76.2499 L -28.4964,-76.3498 L -28.4899,-76.4494 L -28.4803,-76.5489 L -28.4675,-76.6479 L -28.4514,-76.7465
 L -28.4323,-76.8445 L -28.4099,-76.9419 L -28.3844,-77.0385 L -28.3559,-77.1342 L -28.3242,-77.2289 L -28.2896,-77.3226
 L -28.2519,-77.4151 L -28.2113,-77.5063 L -28.1678,-77.5962 L -28.1213,-77.6847 L -28.0721,-77.7716 L -28.0201,-77.8568
 L -27.9653,-77.9404 L -27.9079,-78.0221 L -27.8479,-78.102 L -27.7854,-78.1799 L -27.7204,-78.2557 L -27.6529,-78.3294
 L -27.5832,-78.4008 L -27.5111,-78.47 L -27.4369,-78.5368 L -27.3606,-78.6013 L -27.2822,-78.6632 L -27.2019,-78.7225
 L -27.1197,-78.7793 L -27.0357,-78.8333 L -26.95,-78.8847 L -26.8627,-78.9332 L -26.7739,-78.9789 L -26.6836,-79.0217
 L -26.5921,-79.0616 L -26.4993,-79.0985 L -26.4053,-79.1324 L -26.3103,-79.1633 L -26.2144,-79.1911 L -26.1176,-79.2158
 L -26.0201,-79.2373 L -25.9219,-79.2557 L -25.8232,-79.271 L -25.724,-79.283 L -25.6245,-79.2918 L -25.5248,-79.2975
 L -25.425,-79.2999 L -25.3251,-79.2991 L -25.2253,-79.2951 L -25.1257,-79.2878 L -25.0263,-79.2774 L -24.9274,-79.2637
 L -24.8289,-79.2469 L -24.7311,-79.227 L -24.6339,-79.2038 L -24.5375,-79.1776 L -24.442,-79.1483 L -24.3476,-79.1159
 L -24.2542,-79.0805 L -24.162,-79.042 L -24.0711,-79.0007 L -23.9815,-78.9564 L -23.8934,-78.9093 L -23.8069,-78.8593
 L -23.7221,-78.8066 L -23.639,-78.7512 L -23.5577,-78.6932 L -23.4784,-78.6325 L -23.401,-78.5694 L -23.3257,-78.5037
 L -23.2526,-78.4357 L -23.1816,-78.3654 L -23.113,-78.2928 L -23.0468,-78.218 L -22.983,-78.1412 L -22.9217,-78.0623
 L -22.863,-77.9815 L -22.8069,-77.8988 L -22.7536,-77.8144 L -22.7029,-77.7283 L -22.6551,-77.6406 L -22.6101,-77.5515
 L -22.568,-77.4609 L -22.5289,-77.369 L -22.4927,-77.2759 L -22.4595,-77.1817 L -22.4294,-77.0864 L -22.4024,-76.9903
 L -22.3785,-76.8933 L -22.3578,-76.7956 L -22.3401,-76.6973 L -22.3257,-76.5984 L -22.3145,-76.4992 L -22.3064,-76.3996
 L -22.3016,-76.2999 L -22.3,-76.2 L -22.3016,-76.1001 L -22.3064,-76.0004 L -22.3145,-75.9008 L -22.3257,-75.8016
 L -22.3401,-75.7027 L -22.3578,-75.6044 L -22.3785,-75.5067 L -22.4024,-75.4097 L -22.4294,-75.3136 L -22.4595,-75.2183
 L -22.4927,-75.1241 L -22.5289,-75.031 L -22.568,-74.9391 L -22.6101,-74.8485 L -22.6551,-74.7594 L -22.7029,-74.6717
 L -22.7536,-74.5856 L -22.8069,-74.5012 L -22.863,-74.4185 L -22.9217,-74.3377 L -22.983,-74.2588 L -23.0468,-74.182
 L -23.113,-74.1072 L -23.1816,-74.0346 L -23.2526,-73.9643 L -23.3257,-73.8963 L -23.401,-73.8306 L -23.4784,-73.7675
 L -23.5577,-73.7068 L -23.639,-73.6488 L -23.7221,-73.5934 L -23.8069,-73.5406 L -23.8934,-73.4907 L -23.9815,-73.4436
 L -24.0711,-73.3993 L -24.162,-73.358 L -24.2542,-73.3195 L -24.3476,-73.2841 L -24.442,-73.2517 L -24.5375,-73.2224
 L -24.6339,-73.1962 L -24.7311,-73.173 L -24.8289,-73.1531 L -24.9274,-73.1362 L -25.0263,-73.1226 L -25.1257,-73.1122
 L -25.2253,-73.1049 L -25.3251,-73.1009 L -25.425,-73.1001 z
M -0.124817,-73.1025 L -0.224533,-73.1082 L -0.324036,-73.117 L -0.423187,-73.129 L -0.521896,-73.1443 L -0.620071,-73.1627
 L -0.717606,-73.1842 L -0.814392,-73.2089 L -0.910324,-73.2367 L -1.00531,-73.2675 L -1.09927,-73.3015 L -1.19208,-73.3384
 L -1.28365,-73.3783 L -1.37389,-73.4211 L -1.46269,-73.4668 L -1.54999,-73.5153 L -1.63568,-73.5667 L -1.71967,-73.6207
 L -1.80186,-73.6775 L -1.8822,-73.7368 L -1.96057,-73.7987 L -2.03691,-73.8631 L -2.11115,-73.93 L -2.18318,-73.9992
 L -2.25294,-74.0706 L -2.32037,-74.1443 L -2.38539,-74.2201 L -2.44794,-74.298 L -2.50795,-74.3779 L -2.56534,-74.4596
 L -2.62009,-74.5432 L -2.6721,-74.6284 L -2.72134,-74.7153 L -2.76776,-74.8038 L -2.81131,-74.8937 L -2.85193,-74.9849
 L -2.88959,-75.0774 L -2.92426,-75.1711 L -2.95589,-75.2658 L -2.98445,-75.3615 L -3.00992,-75.4581 L -3.03226,-75.5555
 L -3.05144,-75.6535 L -3.06746,-75.7521 L -3.08031,-75.8511 L -3.08994,-75.9506 L -3.09637,-76.0502 L -3.09959,-76.1501
 L -3.09959,-76.2499 L -3.09637,-76.3498 L -3.08994,-76.4494 L -3.08031,-76.5489 L -3.06746,-76.6479 L -3.05144,-76.7465
 L -3.03226,-76.8445 L -3.00992,-76.9419 L -2.98445,-77.0385 L -2.95589,-77.1342 L -2.92426,-77.2289 L -2.88959,-77.3226
 L -2.85193,-77.4151 L -2.81131,-77.5063 L -2.76776,-77.5962 L -2.72134,-77.6847 L -2.6721,-77.7716 L -2.62009,-77.8568
 L -2.56534,-77.9404 L -2.50795,-78.0221 L -2.44794,-78.102 L -2.38539,-78.1799 L -2.32037,-78.2557 L -2.25294,-78.3294
 L -2.18318,-78.4008 L -2.11115,-78.47 L -2.03691,-78.5368 L -1.96057,-78.6013 L -1.8822,-78.6632 L -1.80186,-78.7225
 L -1.71967,-78.7793 L -1.63568,-78.8333 L -1.54999,-78.8847 L -1.46269,-78.9332 L -1.37389,-78.9789 L -1.28365,-79.0217
 L -1.19208,-79.0616 L -1.09927,-79.0985 L -1.00531,-79.1324 L -0.910324,-79.1633 L -0.814392,-79.1911 L -0.717606,-79.2158
 L -0.620071,-79.2373 L -0.521896,-79.2557 L -0.423187,-79.271 L -0.324036,-79.283 L -0.224533,-79.2918 L -0.124817,-79.2975
 L -0.0249634,-79.2999 L 0.0749054,-79.2991 L 0.174698,-79.2951 L 0.274323,-79.2878 L 0.373657,-79.2774 L 0.47261,-79.2637
 L 0.57106,-79.2469 L 0.66893,-79.227 L 0.766098,-79.2038 L 0.862473,-79.1776 L 0.957947,-79.1483 L 1.05243,-79.1159
 L 1.14581,-79.0805 L 1.23802,-79.042 L 1.32893,-79.0007 L 1.41847,-78.9564 L 1.50655,-78.9093 L 1.59305,-78.8593
 L 1.67789,-78.8066 L 1.76099,-78.7512 L 1.84227,-78.6932 L 1.92163,-78.6325 L 1.99901,-78.5694 L 2.0743,-78.5037
 L 2.14743,-78.4357 L 2.21835,-78.3654 L 2.28696,-78.2928 L 2.3532,-78.218 L 2.41698,-78.1412 L 2.47827,-78.0623
 L 2.53697,-77.9815 L 2.59305,-77.8988 L 2.64644,-77.8144 L 2.69707,-77.7283 L 2.7449,-77.6406 L 2.78989,-77.5515
 L 2.83199,-77.4609 L 2.87114,-77.369 L 2.9073,-77.2759 L 2.94046,-77.1817 L 2.97055,-77.0864 L 2.99757,-76.9903
 L 3.02147,-76.8933 L 3.04224,-76.7956 L 3.05984,-76.6973 L 3.07428,-76.5984 L 3.08553,-76.4992 L 3.09355,-76.3996
 L 3.09839,-76.2999 L 3.09999,-76.2 L 3.09839,-76.1001 L 3.09355,-76.0004 L 3.08553,-75.9008 L 3.07428,-75.8016
 L 3.05984,-75.7027 L 3.04224,-75.6044 L 3.02147,-75.5067 L 2.99757,-75.4097 L 2.97055,-75.3136 L 2.94046,-75.2183
 L 2.9073,-75.1241 L 2.87114,-75.031 L 2.83199,-74.9391 L 2.78989,-74.8485 L 2.7449,-74.7594 L 2.69707,-74.6717
 L 2.64644,-74.5856 L 2.59305,-74.5012 L 2.53697,-74.4185 L 2.47827,-74.3377 L 2.41698,-74.2588 L 2.3532,-74.182
 L 2.28696,-74.1072 L 2.21835,-74.0346 L 2.14743,-73.9643 L 2.0743,-73.8963 L 1.99901,-73.8306 L 1.92163,-73.7675
 L 1.84227,-73.7068 L 1.76099,-73.6488 L 1.67789,-73.5934 L 1.59305,-73.5406 L 1.50655,-73.4907 L 1.41847,-73.4436
 L 1.32893,-73.3993 L 1.23802,-73.358 L 1.14581,-73.3195 L 1.05243,-73.2841 L 0.957947,-73.2517 L 0.862473,-73.2224
 L 0.766098,-73.1962 L 0.66893,-73.173 L 0.57106,-73.1531 L 0.47261,-73.1362 L 0.373657,-73.1226 L 0.274323,-73.1122
 L 0.174698,-73.1049 L 0.0749054,-73.1009 L -0.0249634,-73.1001 z
M -25.5248,-47.7025 L -25.6245,-47.7081 L -25.724,-47.717 L -25.8232,-47.729 L -25.9219,-47.7442 L -26.0201,-47.7626
 L -26.1176,-47.7842 L -26.2144,-47.8089 L -26.3103,-47.8367 L -26.4053,-47.8675 L -26.4993,-47.9014 L -26.5921,-47.9384
 L -26.6836,-47.9783 L -26.7739,-48.0211 L -26.8627,-48.0668 L -26.95,-48.1153 L -27.0357,-48.1666 L -27.1197,-48.2207
 L -27.2019,-48.2775 L -27.2822,-48.3368 L -27.3606,-48.3987 L -27.4369,-48.4631 L -27.5111,-48.53 L -27.5832,-48.5992
 L -27.6529,-48.6706 L -27.7204,-48.7443 L -27.7854,-48.8201 L -27.8479,-48.898 L -27.9079,-48.9779 L -27.9653,-49.0596
 L -28.0201,-49.1432 L -28.0721,-49.2284 L -28.1213,-49.3153 L -28.1678,-49.4038 L -28.2113,-49.4937 L -28.2519,-49.5849
 L -28.2896,-49.6774 L -28.3242,-49.7711 L -28.3559,-49.8658 L -28.3844,-49.9615 L -28.4099,-50.0581 L -28.4323,-50.1555
 L -28.4514,-50.2535 L -28.4675,-50.3521 L -28.4803,-50.4511 L -28.4899,-50.5506 L -28.4964,-50.6502 L -28.4996,-50.7501
 L -28.4996,-50.8499 L -28.4964,-50.9498 L -28.4899,-51.0494 L -28.4803,-51.1488 L -28.4675,-51.2479 L -28.4514,-51.3465
 L -28.4323,-51.4445 L -28.4099,-51.5419 L -28.3844,-51.6384 L -28.3559,-51.7341 L -28.3242,-51.8289 L -28.2896,-51.9226
 L -28.2519,-52.0151 L -28.2113,-52.1063 L -28.1678,-52.1962 L -28.1213,-52.2847 L -28.0721,-52.3716 L -28.0201,-52.4568
 L -27.9653,-52.5404 L -27.9079,-52.6221 L -27.8479,-52.702 L -27.7854,-52.7798 L -27.7204,-52.8557 L -27.6529,-52.9294
 L -27.5832,-53.0008 L -27.5111,-53.07 L -27.4369,-53.1368 L -27.3606,-53.2012 L -27.2822,-53.2632 L -27.2019,-53.3225
 L -27.1197,-53.3793 L -27.0357,-53.4333 L -26.95,-53.4847 L -26.8627,-53.5332 L -26.7739,-53.5789 L -26.6836,-53.6217
 L -26.5921,-53.6616 L -26.4993,-53.6985 L -26.4053,-53.7324 L -26.3103,-53.7633 L -26.2144,-53.7911 L -26.1176,-53.8158
 L -26.0201,-53.8373 L -25.9219,-53.8557 L -25.8232,-53.871 L -25.724,-53.883 L -25.6245,-53.8918 L -25.5248,-53.8975
 L -25.425,-53.8999 L -25.3251,-53.8991 L -25.2253,-53.8951 L -25.1257,-53.8878 L -25.0263,-53.8774 L -24.9274,-53.8637
 L -24.8289,-53.8469 L -24.7311,-53.827 L -24.6339,-53.8038 L -24.5375,-53.7776 L -24.442,-53.7483 L -24.3476,-53.7159
 L -24.2542,-53.6805 L -24.162,-53.642 L -24.0711,-53.6007 L -23.9815,-53.5564 L -23.8934,-53.5093 L -23.8069,-53.4593
 L -23.7221,-53.4066 L -23.639,-53.3512 L -23.5577,-53.2932 L -23.4784,-53.2325 L -23.401,-53.1694 L -23.3257,-53.1037
 L -23.2526,-53.0357 L -23.1816,-52.9654 L -23.113,-52.8928 L -23.0468,-52.818 L -22.983,-52.7411 L -22.9217,-52.6623
 L -22.863,-52.5815 L -22.8069,-52.4988 L -22.7536,-52.4144 L -22.7029,-52.3283 L -22.6551,-52.2406 L -22.6101,-52.1514
 L -22.568,-52.0609 L -22.5289,-51.969 L -22.4927,-51.8759 L -22.4595,-51.7816 L -22.4294,-51.6864 L -22.4024,-51.5903
 L -22.3785,-51.4933 L -22.3578,-51.3956 L -22.3401,-51.2973 L -22.3257,-51.1984 L -22.3145,-51.0992 L -22.3064,-50.9996
 L -22.3016,-50.8999 L -22.3,-50.8 L -22.3016,-50.7001 L -22.3064,-50.6004 L -22.3145,-50.5008 L -22.3257,-50.4016
 L -22.3401,-50.3027 L -22.3578,-50.2044 L -22.3785,-50.1067 L -22.4024,-50.0097 L -22.4294,-49.9136 L -22.4595,-49.8183
 L -22.4927,-49.7241 L -22.5289,-49.631 L -22.568,-49.5391 L -22.6101,-49.4485 L -22.6551,-49.3594 L -22.7029,-49.2717
 L -22.7536,-49.1856 L -22.8069,-49.1012 L -22.863,-49.0185 L -22.9217,-48.9377 L -22.983,-48.8588 L -23.0468,-48.782
 L -23.113,-48.7072 L -23.1816,-48.6346 L -23.2526,-48.5643 L -23.3257,-48.4962 L -23.401,-48.4306 L -23.4784,-48.3674
 L -23.5577,-48.3068 L -23.639,-48.2487 L -23.7221,-48.1933 L -23.8069,-48.1406 L -23.8934,-48.0907 L -23.9815,-48.0436
 L -24.0711,-47.9993 L -24.162,-47.9579 L -24.2542,-47.9195 L -24.3476,-47.8841 L -24.442,-47.8517 L -24.5375,-47.8224
 L -24.6339,-47.7961 L -24.7311,-47.773 L -24.8289,-47.7531 L -24.9274,-47.7362 L -25.0263,-47.7226 L -25.1257,-47.7122
 L -25.2253,-47.7049 L -25.3251,-47.7009 L -25.425,-47.7001 z
" stroke="black" fill="lightgray" stroke-width="0.5"/>
</svg>
