<?xml version="1.0" standalone="no"?>
<!DOCTYPE svg PUBLIC "-//W3C//DTD SVG 1.1//EN" "http://www.w3.org/Graphics/SVG/1.1/DTD/svg11.dtd">
<svg width="50mm" height="76mm" viewBox="-38 -114 50 76" xmlns="http://www.w3.org/2000/svg" version="1.1">
<title>OpenSCAD Model</title>
<path d="
M 8.825,-89.6753 L 8.8999,-89.6759 L 8.99969,-89.6799 L 9.09932,-89.6872 L 9.19865,-89.6976 L 9.29761,-89.7112
 L 9.39606,-89.7281 L 9.49393,-89.748 L 9.59109,-89.7711 L 9.68747,-89.7974 L 9.78294,-89.8267 L 9.87743,-89.8591
 L 9.97083,-89.8945 L 10.063,-89.9329 L 10.1539,-89.9743 L 10.2435,-90.0186 L 10.3315,-90.0657 L 10.418,-90.1156
 L 10.5029,-90.1683 L 10.586,-90.2238 L 10.6673,-90.2818 L 10.7466,-90.3425 L 10.824,-90.4056 L 10.8993,-90.4713
 L 10.9724,-90.5393 L 11.0434,-90.6096 L 11.112,-90.6822 L 11.1782,-90.757 L 11.242,-90.8338 L 11.3033,-90.9127
 L 11.362,-90.9935 L 11.418,-91.0762 L 11.4714,-91.1606 L 11.5221,-91.2467 L 11.5699,-91.3344 L 11.6149,-91.4235
 L 11.657,-91.5141 L 11.6961,-91.606 L 11.7323,-91.6991 L 11.7655,-91.7933 L 11.7955,-91.8886 L 11.8226,-91.9847
 L 11.8465,-92.0817 L 11.8672,-92.1794 L 11.8848,-92.2777 L 11.8993,-92.3766 L 11.9105,-92.4758 L 11.9186,-92.5754
 L 11.9234,-92.6751 L 11.925,-92.775 L 11.925,-110.425 L 11.9234,-110.525 L 11.9186,-110.625 L 11.9105,-110.724
 L 11.8993,-110.823 L 11.8848,-110.922 L 11.8672,-111.021 L 11.8465,-111.118 L 11.8226,-111.215 L 11.7955,-111.311
 L 11.7655,-111.407 L 11.7323,-111.501 L 11.6961,-111.594 L 11.657,-111.686 L 11.6149,-111.776 L 11.5699,-111.866
 L 11.5221,-111.953 L 11.4714,-112.039 L 11.418,-112.124 L 11.362,-112.206 L 11.3033,-112.287 L 11.242,-112.366
 L 11.1782,-112.443 L 11.112,-112.518 L 11.0434,-112.59 L 10.9724,-112.661 L 10.8993,-112.729 L 10.824,-112.794
 L 10.7466,-112.858 L 10.6673,-112.918 L 10.586,-112.976 L 10.5029,-113.032 L 10.418,-113.084 L 10.3315,-113.134
 L 10.2435,-113.181 L 10.1539,-113.226 L 10.063,-113.267 L 9.97083,-113.305 L 9.87743,-113.341 L 9.78294,-113.373
 L 9.68747,-113.403 L 9.59109,-113.429 L 9.49393,-113.452 L 9.39606,-113.472 L 9.29761,-113.489 L 9.19865,-113.502
 L 9.09932,-113.513 L 8.99969,-113.52 L 8.8999,-113.524 L 8.825,-113.525 L 8.825,-113.525 L -8.825,-113.525
 L -8.825,-113.525 L -8.84996,-113.525 L -8.94981,-113.522 L -9.04955,-113.517 L -9.14903,-113.508 L -9.24818,-113.496
 L -9.34689,-113.481 L -9.44507,-113.462 L -9.5426,-113.441 L -9.63939,-113.416 L -9.73532,-113.388 L -9.83032,-113.357
 L -9.92427,-113.324 L -10.0171,-113.287 L -10.1086,-113.247 L -10.1989,-113.204 L -10.2877,-113.158 L -10.375,-113.11
 L -10.4607,-113.058 L -10.5447,-113.004 L -10.6269,-112.948 L -10.7072,-112.888 L -10.7856,-112.826 L -10.8619,-112.762
 L -10.9361,-112.695 L -11.0082,-112.626 L -11.0779,-112.554 L -11.1454,-112.481 L -11.2104,-112.405 L -11.2729,-112.327
 L -11.3329,-112.247 L -11.3904,-112.165 L -11.4451,-112.082 L -11.4971,-111.997 L -11.5463,-111.91 L -11.5928,-111.821
 L -11.6363,-111.731 L -11.6769,-111.64 L -11.7146,-111.548 L -11.7493,-111.454 L -11.7809,-111.359 L -11.8094,-111.263
 L -11.8349,-111.167 L -11.8573,-111.07 L -11.8764,-110.971 L -11.8925,-110.873 L -11.9053,-110.774 L -11.9149,-110.674
 L -11.9214,-110.575 L -11.9246,-110.475 L -11.9246,-110.425 L -11.925,-110.425 L -11.925,-92.775 L -11.9246,-92.775
 L -11.9246,-92.7251 L -11.9214,-92.6252 L -11.9149,-92.5256 L -11.9053,-92.4261 L -11.8925,-92.3271 L -11.8764,-92.2285
 L -11.8573,-92.1305 L -11.8349,-92.0331 L -11.8094,-91.9365 L -11.7809,-91.8408 L -11.7493,-91.7461 L -11.7146,-91.6524
 L -11.6769,-91.5599 L -11.6363,-91.4687 L -11.5928,-91.3788 L -11.5463,-91.2903 L -11.4971,-91.2034 L -11.4451,-91.1181
 L -11.3904,-91.0346 L -11.3329,-90.9529 L -11.2729,-90.873 L -11.2104,-90.7951 L -11.1454,-90.7193 L -11.0779,-90.6456
 L -11.0082,-90.5742 L -10.9361,-90.505 L -10.8619,-90.4381 L -10.7856,-90.3737 L -10.7072,-90.3118 L -10.6269,-90.2525
 L -10.5447,-90.1957 L -10.4607,-90.1416 L -10.375,-90.0903 L -10.2877,-90.0418 L -10.1989,-89.9961 L -10.1086,-89.9533
 L -10.0171,-89.9134 L -9.92427,-89.8764 L -9.83032,-89.8425 L -9.73532,-89.8117 L -9.63939,-89.7839 L -9.5426,-89.7592
 L -9.44507,-89.7376 L -9.34689,-89.7193 L -9.24818,-89.704 L -9.14903,-89.692 L -9.04955,-89.6831 L -8.94981,-89.6775
 L -8.84996,-89.6751 L -8.825,-89.6753 L -8.825,-89.675 L 8.825,-89.675 z
M -0.0747833,-96.9506 L -0.174454,-96.9533 L -0.274048,-96.9581 L -0.37352,-96.965 L -0.472824,-96.9741 L -0.571915,-96.9853
 L -0.670731,-96.9986 L -0.769241,-97.0141 L -0.867401,-97.0316 L -0.965149,-97.0513 L -1.06247,-97.073 L -1.1593,-97.0968
 L -1.25558,-97.1227 L -1.3513,-97.1507 L -1.4464,-97.1807 L -1.54083,-97.2127 L -1.63455,-97.2467 L -1.72752,-97.2828
 L -1.8197,-97.3208 L -1.91104,-97.3608 L -2.0015,-97.4028 L -2.09103,-97.4467 L -2.17961,-97.4925 L -2.26718,-97.5402
 L -2.35371,-97.5897 L -2.43916,-97.6411 L -2.5235,-97.6943 L -2.60666,-97.7493 L -2.68863,-97.8061 L -2.76936,-97.8646
 L -2.84883,-97.9249 L -2.92697,-97.9868 L -3.00378,-98.0504 L -3.07921,-98.1156 L -3.15321,-98.1824 L -3.22577,-98.2508
 L -3.29684,-98.3208 L -3.36639,-98.3922 L -3.4344,-98.4651 L -3.50084,-98.5395 L -3.56566,-98.6153 L -3.62885,-98.6924
 L -3.69035,-98.7709 L -3.75017,-98.8507 L -3.80826,-98.9317 L -3.86459,-99.014 L -3.91916,-99.0975 L -3.97191,-99.1821
 L -4.02284,-99.2678 L -4.07193,-99.3546 L -4.11914,-99.4424 L -4.16446,-99.5312 L -4.20786,-99.621 L -4.24933,-99.7117
 L -4.28885,-99.8033 L -4.32639,-99.8956 L -4.36194,-99.9888 L -4.39548,-100.083 L -4.427,-100.177 L -4.4565,-100.273
 L -4.48393,-100.368 L -4.50931,-100.465 L -4.53261,-100.562 L -4.55383,-100.659 L -4.57295,-100.757 L -4.58998,-100.855
 L -4.60489,-100.954 L -4.61769,-101.053 L -4.62836,-101.152 L -4.6369,-101.251 L -4.64331,-101.351 L -4.64758,-101.45
 L -4.64972,-101.55 L -4.64972,-101.65 L -4.64758,-101.75 L -4.64331,-101.849 L -4.6369,-101.949 L -4.62836,-102.048
 L -4.61769,-102.147 L -4.60489,-102.246 L -4.58998,-102.345 L -4.57295,-102.443 L -4.55383,-102.541 L -4.53261,-102.638
 L -4.50931,-102.735 L -4.48393,-102.832 L -4.4565,-102.927 L -4.427,-103.023 L -4.39548,-103.117 L -4.36194,-103.211
 L -4.32639,-103.304 L -4.28885,-103.397 L -4.24933,-103.488 L -4.20786,-103.579 L -4.16446,-103.669 L -4.11914,-103.758
 L -4.07193,-103.845 L -4.02284,-103.932 L -3.97191,-104.018 L -3.91916,-104.103 L -3.86459,-104.186 L -3.80826,-104.268
 L -3.75017,-104.349 L -3.69035,-104.429 L -3.62885,-104.508 L -3.56566,-104.585 L -3.50084,-104.66 L -3.4344,-104.735
 L -3.36639,-104.808 L -3.29684,-104.879 L -3.22577,-104.949 L -3.15321,-105.018 L -3.07921,-105.084 L -3.00378,-105.15
 L -2.92697,-105.213 L -2.84883,-105.275 L -2.76936,-105.335 L -2.68863,-105.394 L -2.60666,-105.451 L -2.5235,-105.506
 L -2.43916,-105.559 L -2.35371,-105.61 L -2.26718,-105.66 L -2.17961,-105.708 L -2.09103,-105.753 L -2.0015,-105.797
 L -1.91104,-105.839 L -1.8197,-105.879 L -1.72752,-105.917 L -1.63455,-105.953 L -1.54083,-105.987 L -1.4464,-106.019
 L -1.3513,-106.049 L -1.25558,-106.077 L -1.1593,-106.103 L -1.06247,-106.127 L -0.965149,-106.149 L -0.867401,-106.168
 L -0.769241,-106.186 L -0.670731,-106.201 L -0.571915,-106.215 L -0.472824,-106.226 L -0.37352,-106.235 L -0.274048,-106.242
 L -0.174454,-106.247 L -0.0747833,-106.249 L 0.0249176,-106.25 L 0.124619,-106.248 L 0.224274,-106.245 L 0.323807,-106.239
 L 0.423203,-106.231 L 0.5224,-106.221 L 0.621353,-106.208 L 0.720032,-106.194 L 0.818359,-106.177 L 0.916336,-106.159
 L 1.01387,-106.138 L 1.11095,-106.115 L 1.20752,-106.09 L 1.30353,-106.064 L 1.39894,-106.035 L 1.4937,-106.004
 L 1.58778,-105.971 L 1.68114,-105.935 L 1.77371,-105.898 L 1.86548,-105.859 L 1.95638,-105.818 L 2.04639,-105.775
 L 2.13544,-105.731 L 2.22353,-105.684 L 2.31058,-105.635 L 2.39658,-105.585 L 2.48148,-105.533 L 2.56523,-105.478
 L 2.6478,-105.423 L 2.72916,-105.365 L 2.80927,-105.305 L 2.88806,-105.244 L 2.96555,-105.182 L 3.04167,-105.117
 L 3.11639,-105.051 L 3.18967,-104.984 L 3.26149,-104.914 L 3.33182,-104.844 L 3.4006,-104.771 L 3.46782,-104.698
 L 3.53345,-104.623 L 3.59746,-104.546 L 3.65981,-104.468 L 3.72047,-104.389 L 3.77943,-104.309 L 3.83664,-104.227
 L 3.89211,-104.144 L 3.94577,-104.06 L 3.99762,-103.975 L 4.04762,-103.889 L 4.09578,-103.802 L 4.14204,-103.713
 L 4.1864,-103.624 L 4.22884,-103.534 L 4.26933,-103.443 L 4.30786,-103.351 L 4.34441,-103.258 L 4.37895,-103.164
 L 4.4115,-103.07 L 4.442,-102.975 L 4.47047,-102.88 L 4.49687,-102.783 L 4.52122,-102.687 L 4.54349,-102.59
 L 4.56366,-102.492 L 4.58173,-102.394 L 4.5977,-102.295 L 4.61156,-102.197 L 4.62329,-102.098 L 4.63289,-101.998
 L 4.64037,-101.899 L 4.64572,-101.799 L 4.64893,-101.7 L 4.64999,-101.6 L 4.64893,-101.5 L 4.64572,-101.401
 L 4.64037,-101.301 L 4.63289,-101.202 L 4.62329,-101.102 L 4.61156,-101.003 L 4.5977,-100.905 L 4.58173,-100.806
 L 4.56366,-100.708 L 4.54349,-100.61 L 4.52122,-100.513 L 4.49687,-100.417 L 4.47047,-100.32 L 4.442,-100.225
 L 4.4115,-100.13 L 4.37895,-100.036 L 4.34441,-99.9421 L 4.30786,-99.8493 L 4.26933,-99.7574 L 4.22884,-99.6663
 L 4.1864,-99.576 L 4.14204,-99.4867 L 4.09578,-99.3984 L 4.04762,-99.3111 L 3.99762,-99.2248 L 3.94577,-99.1396
 L 3.89211,-99.0556 L 3.83664,-98.9727 L 3.77943,-98.8911 L 3.72047,-98.8106 L 3.65981,-98.7315 L 3.59746,-98.6537
 L 3.53345,-98.5772 L 3.46782,-98.5022 L 3.4006,-98.4285 L 3.33182,-98.3563 L 3.26149,-98.2856 L 3.18967,-98.2164
 L 3.11639,-98.1488 L 3.04167,-98.0828 L 2.96555,-98.0184 L 2.88806,-97.9556 L 2.80927,-97.8945 L 2.72916,-97.8351
 L 2.6478,-97.7775 L 2.56523,-97.7216 L 2.48148,-97.6675 L 2.39658,-97.6152 L 2.31058,-97.5647 L 2.22353,-97.5161
 L 2.13544,-97.4693 L 2.04639,-97.4245 L 1.95638,-97.3816 L 1.86548,-97.3406 L 1.77371,-97.3016 L 1.68114,-97.2645
 L 1.58778,-97.2295 L 1.4937,-97.1964 L 1.39894,-97.1654 L 1.30353,-97.1364 L 1.20752,-97.1095 L 1.11095,-97.0847
 L 1.01387,-97.0619 L 0.916336,-97.0412 L 0.818359,-97.0226 L 0.720032,-97.0061 L 0.621353,-96.9917 L 0.5224,-96.9794
 L 0.423203,-96.9693 L 0.323807,-96.9613 L 0.224274,-96.9554 L 0.124619,-96.9517 L 0.0249176,-96.9501 z
M 8.825,-64.2753 L 8.8999,-64.2759 L 8.99969,-64.2799 L 9.09932,-64.2872 L 9.19865,-64.2976 L 9.29761,-64.3112
 L 9.39606,-64.3281 L 9.49393,-64.348 L 9.59109,-64.3712 L 9.68747,-64.3974 L 9.78294,-64.4267 L 9.87743,-64.4591
 L 9.97083,-64.4945 L 10.063,-64.5329 L 10.1539,-64.5743 L 10.2435,-64.6186 L 10.3315,-64.6657 L 10.418,-64.7156
 L 10.5029,-64.7683 L 10.586,-64.8238 L 10.6673,-64.8818 L 10.7466,-64.9425 L 10.824,-65.0056 L 10.8993,-65.0713
 L 10.9724,-65.1393 L 11.0434,-65.2096 L 11.112,-65.2822 L 11.1782,-65.357 L 11.242,-65.4338 L 11.3033,-65.5127
 L 11.362,-65.5935 L 11.418,-65.6762 L 11.4714,-65.7606 L 11.5221,-65.8467 L 11.5699,-65.9344 L 11.6149,-66.0235
 L 11.657,-66.1141 L 11.6961,-66.206 L 11.7323,-66.2991 L 11.7655,-66.3933 L 11.7955,-66.4886 L 11.8226,-66.5847
 L 11.8465,-66.6817 L 11.8672,-66.7794 L 11.8848,-66.8777 L 11.8993,-66.9766 L 11.9105,-67.0758 L 11.9186,-67.1754
 L 11.9234,-67.2751 L 11.925,-67.375 L 11.925,-85.025 L 11.9234,-85.1249 L 11.9186,-85.2246 L 11.9105,-85.3242
 L 11.8993,-85.4234 L 11.8848,-85.5223 L 11.8672,-85.6206 L 11.8465,-85.7183 L 11.8226,-85.8153 L 11.7955,-85.9114
 L 11.7655,-86.0067 L 11.7323,-86.1009 L 11.6961,-86.194 L 11.657,-86.2859 L 11.6149,-86.3764 L 11.5699,-86.4656
 L 11.5221,-86.5533 L 11.4714,-86.6394 L 11.418,-86.7238 L 11.362,-86.8065 L 11.3033,-86.8873 L 11.242,-86.9662
 L 11.1782,-87.043 L 11.112,-87.1178 L 11.0434,-87.1904 L 10.9724,-87.2607 L 10.8993,-87.3287 L 10.824,-87.3944
 L 10.7466,-87.4575 L 10.6673,-87.5182 L 10.586,-87.5762 L 10.5029,-87.6317 L 10.418,-87.6844 L 10.3315,-87.7343
 L 10.2435,-87.7814 L 10.1539,-87.8257 L 10.063,-87.8671 L 9.97083,-87.9055 L 9.87743,-87.9409 L 9.78294,-87.9733
 L 9.68747,-88.0026 L 9.59109,-88.0288 L 9.49393,-88.052 L 9.39606,-88.0719 L 9.29761,-88.0887 L 9.19865,-88.1024
 L 9.09932,-88.1128 L 8.99969,-88.1201 L 8.8999,-88.1241 L 8.825,-88.1247 L 8.825,-88.125 L -8.825,-88.125
 L -8.825,-88.1247 L -8.84996,-88.1249 L -8.94981,-88.1225 L -9.04955,-88.1169 L -9.14903,-88.108 L -9.24818,-88.096
 L -9.34689,-88.0807 L -9.44507,-88.0623 L -9.5426,-88.0408 L -9.63939,-88.0161 L -9.73532,-87.9883 L -9.83032,-87.9574
 L -9.92427,-87.9235 L -10.0171,-87.8866 L -10.1086,-87.8467 L -10.1989,-87.8039 L -10.2877,-87.7582 L -10.375,-87.7097
 L -10.4607,-87.6583 L -10.5447,-87.6043 L -10.6269,-87.5475 L -10.7072,-87.4882 L -10.7856,-87.4263 L -10.8619,-87.3619
 L -10.9361,-87.295 L -11.0082,-87.2258 L -11.0779,-87.1544 L -11.1454,-87.0807 L -11.2104,-87.0049 L -11.2729,-86.927
 L -11.3329,-86.8471 L -11.3904,-86.7654 L -11.4451,-86.6818 L -11.4971,-86.5966 L -11.5463,-86.5097 L -11.5928,-86.4212
 L -11.6363,-86.3313 L -11.6769,-86.2401 L -11.7146,-86.1476 L -11.7493,-86.0539 L -11.7809,-85.9592 L -11.8094,-85.8634
 L -11.8349,-85.7669 L -11.8573,-85.6695 L -11.8764,-85.5715 L -11.8925,-85.4729 L -11.9053,-85.3739 L -11.9149,-85.2744
 L -11.9214,-85.1748 L -11.9246,-85.0749 L -11.9246,-85.025 L -11.925,-85.025 L -11.925,-67.375 L -11.9246,-67.375
 L -11.9246,-67.3251 L -11.9214,-67.2252 L -11.9149,-67.1256 L -11.9053,-67.0261 L -11.8925,-66.9271 L -11.8764,-66.8285
 L -11.8573,-66.7305 L -11.8349,-66.6331 L -11.8094,-66.5365 L -11.7809,-66.4408 L -11.7493,-66.3461 L -11.7146,-66.2524
 L -11.6769,-66.1599 L -11.6363,-66.0687 L -11.5928,-65.9788 L -11.5463,-65.8903 L -11.4971,-65.8034 L -11.4451,-65.7182
 L -11.3904,-65.6346 L -11.3329,-65.5529 L -11.2729,-65.473 L -11.2104,-65.3951 L -11.1454,-65.3193 L -11.0779,-65.2456
 L -11.0082,-65.1742 L -10.9361,-65.105 L -10.8619,-65.0381 L -10.7856,-64.9737 L -10.7072,-64.9118 L -10.6269,-64.8525
 L -10.5447,-64.7957 L -10.4607,-64.7417 L -10.375,-64.6903 L -10.2877,-64.6418 L -10.1989,-64.5961 L -10.1086,-64.5533
 L -10.0171,-64.5134 L -9.92427,-64.4765 L -9.83032,-64.4426 L -9.73532,-64.4117 L -9.63939,-64.3839 L -9.5426,-64.3592
 L -9.44507,-64.3376 L -9.34689,-64.3193 L -9.24818,-64.304 L -9.14903,-64.292 L -9.04955,-64.2831 L -8.94981,-64.2775
 L -8.84996,-64.2751 L -8.825,-64.2753 L -8.825,-64.275 L 8.825,-64.275 z
M -0.0747833,-71.5506 L -0.174454,-71.5533 L -0.274048,-71.5581 L -0.37352,-71.565 L -0.472824,-71.5741 L -0.571915,-71.5853
 L -0.670731,-71.5986 L -0.769241,-71.6141 L -0.867401,-71.6316 L -0.965149,-71.6513 L -1.06247,-71.673 L -1.1593,-71.6968
 L -1.25558,-71.7227 L -1.3513,-71.7507 L -1.4464,-71.7807 L -1.54083,-71.8127 L -1.63455,-71.8468 L -1.72752,-71.8828
 L -1.8197,-71.9209 L -1.91104,-71.9608 L -2.0015,-72.0028 L -2.09103,-72.0467 L -2.17961,-72.0925 L -2.26718,-72.1402
 L -2.35371,-72.1897 L -2.43916,-72.2411 L -2.5235,-72.2943 L -2.60666,-72.3493 L -2.68863,-72.4061 L -2.76936,-72.4646
 L -2.84883,-72.5249 L -2.92697,-72.5868 L -3.00378,-72.6504 L -3.07921,-72.7156 L -3.15321,-72.7824 L -3.22577,-72.8508
 L -3.29684,-72.9208 L -3.36639,-72.9922 L -3.4344,-73.0652 L -3.50084,-73.1395 L -3.56566,-73.2153 L -3.62885,-73.2924
 L -3.69035,-73.3709 L -3.75017,-73.4507 L -3.80826,-73.5317 L -3.86459,-73.614 L -3.91916,-73.6975 L -3.97191,-73.7821
 L -4.02284,-73.8678 L -4.07193,-73.9546 L -4.11914,-74.0424 L -4.16446,-74.1313 L -4.20786,-74.221 L -4.24933,-74.3117
 L -4.28885,-74.4033 L -4.32639,-74.4957 L -4.36194,-74.5888 L -4.39548,-74.6827 L -4.427,-74.7773 L -4.4565,-74.8726
 L -4.48393,-74.9684 L -4.50931,-75.0649 L -4.53261,-75.1618 L -4.55383,-75.2592 L -4.57295,-75.3571 L -4.58998,-75.4554
 L -4.60489,-75.5539 L -4.61769,-75.6528 L -4.62836,-75.752 L -4.6369,-75.8513 L -4.64331,-75.9508 L -4.64758,-76.0505
 L -4.64972,-76.1501 L -4.64972,-76.2498 L -4.64758,-76.3495 L -4.64331,-76.4492 L -4.6369,-76.5487 L -4.62836,-76.648
 L -4.61769,-76.7472 L -4.60489,-76.8461 L -4.58998,-76.9446 L -4.57295,-77.0429 L -4.55383,-77.1407 L -4.53261,-77.2382
 L -4.50931,-77.3351 L -4.48393,-77.4316 L -4.4565,-77.5274 L -4.427,-77.6227 L -4.39548,-77.7173 L -4.36194,-77.8112
 L -4.32639,-77.9043 L -4.28885,-77.9967 L -4.24933,-78.0883 L -4.20786,-78.179 L -4.16446,-78.2687 L -4.11914,-78.3576
 L -4.07193,-78.4454 L -4.02284,-78.5322 L -3.97191,-78.6179 L -3.91916,-78.7025 L -3.86459,-78.786 L -3.80826,-78.8683
 L -3.75017,-78.9493 L -3.69035,-79.0291 L -3.62885,-79.1076 L -3.56566,-79.1847 L -3.50084,-79.2605 L -3.4344,-79.3348
 L -3.36639,-79.4078 L -3.29684,-79.4792 L -3.22577,-79.5491 L -3.15321,-79.6176 L -3.07921,-79.6844 L -3.00378,-79.7496
 L -2.92697,-79.8132 L -2.84883,-79.8751 L -2.76936,-79.9354 L -2.68863,-79.9939 L -2.60666,-80.0507 L -2.5235,-80.1057
 L -2.43916,-80.1589 L -2.35371,-80.2103 L -2.26718,-80.2598 L -2.17961,-80.3075 L -2.09103,-80.3533 L -2.0015,-80.3972
 L -1.91104,-80.4391 L -1.8197,-80.4791 L -1.72752,-80.5172 L -1.63455,-80.5532 L -1.54083,-80.5873 L -1.4464,-80.6193
 L -1.3513,-80.6493 L -1.25558,-80.6773 L -1.1593,-80.7032 L -1.06247,-80.727 L -0.965149,-80.7487 L -0.867401,-80.7684
 L -0.769241,-80.7859 L -0.670731,-80.8014 L -0.571915,-80.8147 L -0.472824,-80.8259 L -0.37352,-80.835 L -0.274048,-80.8419
 L -0.174454,-80.8467 L -0.0747833,-80.8494 L 0.0249176,-80.8499 L 0.124619,-80.8483 L 0.224274,-80.8446 L 0.323807,-80.8387
 L 0.423203,-80.8307 L 0.5224,-80.8206 L 0.621353,-80.8083 L 0.720032,-80.7939 L 0.818359,-80.7774 L 0.916336,-80.7588
 L 1.01387,-80.7381 L 1.11095,-80.7153 L 1.20752,-80.6905 L 1.30353,-80.6635 L 1.39894,-80.6346 L 1.4937,-80.6035
 L 1.58778,-80.5705 L 1.68114,-80.5355 L 1.77371,-80.4984 L 1.86548,-80.4594 L 1.95638,-80.4184 L 2.04639,-80.3755
 L 2.13544,-80.3306 L 2.22353,-80.2839 L 2.31058,-80.2353 L 2.39658,-80.1848 L 2.48148,-80.1325 L 2.56523,-80.0784
 L 2.6478,-80.0225 L 2.72916,-79.9648 L 2.80927,-79.9055 L 2.88806,-79.8444 L 2.96555,-79.7816 L 3.04167,-79.7172
 L 3.11639,-79.6512 L 3.18967,-79.5835 L 3.26149,-79.5144 L 3.33182,-79.4437 L 3.4006,-79.3715 L 3.46782,-79.2978
 L 3.53345,-79.2228 L 3.59746,-79.1463 L 3.65981,-79.0685 L 3.72047,-78.9893 L 3.77943,-78.9089 L 3.83664,-78.8273
 L 3.89211,-78.7444 L 3.94577,-78.6604 L 3.99762,-78.5752 L 4.04762,-78.4889 L 4.09578,-78.4016 L 4.14204,-78.3133
 L 4.1864,-78.224 L 4.22884,-78.1337 L 4.26933,-78.0426 L 4.30786,-77.9506 L 4.34441,-77.8579 L 4.37895,-77.7643
 L 4.4115,-77.6701 L 4.442,-77.5751 L 4.47047,-77.4796 L 4.49687,-77.3834 L 4.52122,-77.2867 L 4.54349,-77.1895
 L 4.56366,-77.0919 L 4.58173,-76.9938 L 4.5977,-76.8954 L 4.61156,-76.7966 L 4.62329,-76.6976 L 4.63289,-76.5984
 L 4.64037,-76.4989 L 4.64572,-76.3994 L 4.64893,-76.2997 L 4.64999,-76.2 L 4.64893,-76.1003 L 4.64572,-76.0006
 L 4.64037,-75.9011 L 4.63289,-75.8016 L 4.62329,-75.7024 L 4.61156,-75.6034 L 4.5977,-75.5046 L 4.58173,-75.4062
 L 4.56366,-75.3081 L 4.54349,-75.2105 L 4.52122,-75.1133 L 4.49687,-75.0166 L 4.47047,-74.9204 L 4.442,-74.8249
 L 4.4115,-74.7299 L 4.37895,-74.6357 L 4.34441,-74.5421 L 4.30786,-74.4494 L 4.26933,-74.3574 L 4.22884,-74.2663
 L 4.1864,-74.176 L 4.14204,-74.0867 L 4.09578,-73.9984 L 4.04762,-73.9111 L 3.99762,-73.8248 L 3.94577,-73.7396
 L 3.89211,-73.6556 L 3.83664,-73.5727 L 3.77943,-73.4911 L 3.72047,-73.4106 L 3.65981,-73.3315 L 3.59746,-73.2537
 L 3.53345,-73.1772 L 3.46782,-73.1022 L 3.4006,-73.0285 L 3.33182,-72.9563 L 3.26149,-72.8856 L 3.18967,-72.8165
 L 3.11639,-72.7488 L 3.04167,-72.6828 L 2.96555,-72.6184 L 2.88806,-72.5556 L 2.80927,-72.4945 L 2.72916,-72.4352
 L 2.6478,-72.3775 L 2.56523,-72.3216 L 2.48148,-72.2675 L 2.39658,-72.2152 L 2.31058,-72.1647 L 2.22353,-72.1161
 L 2.13544,-72.0694 L 2.04639,-72.0245 L 1.95638,-71.9816 L 1.86548,-71.9406 L 1.77371,-71.9016 L 1.68114,-71.8645
 L 1.58778,-71.8295 L 1.4937,-71.7964 L 1.39894,-71.7654 L 1.30353,-71.7365 L 1.20752,-71.7095 L 1.11095,-71.6847
 L 1.01387,-71.6619 L 0.916336,-71.6412 L 0.818359,-71.6226 L 0.720032,-71.6061 L 0.621353,-71.5917 L 0.5224,-71.5794
 L 0.423203,-71.5693 L 0.323807,-71.5613 L 0.224274,-71.5554 L 0.124619,-71.5517 L 0.0249176,-71.5501 z
M -16.575,-38.8753 L -16.5001,-38.8759 L -16.4003,-38.8799 L -16.3007,-38.8872 L -16.2013,-38.8976 L -16.1024,-38.9112
 L -16.0039,-38.9281 L -15.9061,-38.948 L -15.8089,-38.9711 L -15.7125,-38.9974 L -15.6171,-39.0267 L -15.5226,-39.0591
 L -15.4292,-39.0945 L -15.337,-39.1329 L -15.246,-39.1743 L -15.1565,-39.2186 L -15.0685,-39.2657 L -14.9819,-39.3156
 L -14.8971,-39.3683 L -14.814,-39.4238 L -14.7327,-39.4818 L -14.6534,-39.5424 L -14.576,-39.6056 L -14.5007,-39.6712
 L -14.4276,-39.7393 L -14.3566,-39.8096 L -14.288,-39.8822 L -14.2218,-39.957 L -14.158,-40.0338 L -14.0967,-40.1127
 L -14.038,-40.1935 L -13.9819,-40.2762 L -13.9286,-40.3606 L -13.8779,-40.4467 L -13.8301,-40.5343 L -13.7851,-40.6235
 L -13.743,-40.7141 L -13.7039,-40.806 L -13.6677,-40.8991 L -13.6345,-40.9933 L -13.6044,-41.0886 L -13.5774,-41.1847
 L -13.5535,-41.2817 L -13.5328,-41.3794 L -13.5152,-41.4777 L -13.5007,-41.5766 L -13.4895,-41.6758 L -13.4814,-41.7754
 L -13.4766,-41.8751 L -13.475,-41.975 L -13.475,-59.625 L -13.4766,-59.7249 L -13.4814,-59.8246 L -13.4895,-59.9242
 L -13.5007,-60.0234 L -13.5152,-60.1223 L -13.5328,-60.2206 L -13.5535,-60.3183 L -13.5774,-60.4153 L -13.6044,-60.5114
 L -13.6345,-60.6066 L -13.6677,-60.7009 L -13.7039,-60.794 L -13.743,-60.8859 L -13.7851,-60.9764 L -13.8301,-61.0656
 L -13.8779,-61.1533 L -13.9286,-61.2394 L -13.9819,-61.3238 L -14.038,-61.4065 L -14.0967,-61.4873 L -14.158,-61.5661
 L -14.2218,-61.643 L -14.288,-61.7178 L -14.3566,-61.7904 L -14.4276,-61.8607 L -14.5007,-61.9287 L -14.576,-61.9944
 L -14.6534,-62.0575 L -14.7327,-62.1182 L -14.814,-62.1762 L -14.8971,-62.2316 L -14.9819,-62.2843 L -15.0685,-62.3343
 L -15.1565,-62.3814 L -15.246,-62.4257 L -15.337,-62.467 L -15.4292,-62.5054 L -15.5226,-62.5409 L -15.6171,-62.5733
 L -15.7125,-62.6026 L -15.8089,-62.6288 L -15.9061,-62.6519 L -16.0039,-62.6719 L -16.1024,-62.6887 L -16.2013,-62.7024
 L -16.3007,-62.7128 L -16.4003,-62.72 L -16.5001,-62.7241 L -16.575,-62.7247 L -16.575,-62.725 L -34.225,-62.725
 L -34.225,-62.7247 L -34.25,-62.7249 L -34.3498,-62.7225 L -34.4495,-62.7168 L -34.549,-62.708 L -34.6482,-62.696
 L -34.7469,-62.6807 L -34.8451,-62.6623 L -34.9426,-62.6408 L -35.0394,-62.6161 L -35.1353,-62.5883 L -35.2303,-62.5574
 L -35.3243,-62.5235 L -35.4171,-62.4866 L -35.5086,-62.4467 L -35.5989,-62.4039 L -35.6877,-62.3582 L -35.775,-62.3097
 L -35.8607,-62.2583 L -35.9447,-62.2043 L -36.0269,-62.1475 L -36.1072,-62.0882 L -36.1856,-62.0263 L -36.2619,-61.9619
 L -36.3361,-61.895 L -36.4082,-61.8258 L -36.4779,-61.7543 L -36.5454,-61.6807 L -36.6104,-61.6048 L -36.6729,-61.527
 L -36.7329,-61.4471 L -36.7903,-61.3654 L -36.8451,-61.2818 L -36.8971,-61.1965 L -36.9463,-61.1096 L -36.9928,-61.0212
 L -37.0363,-60.9313 L -37.0769,-60.8401 L -37.1146,-60.7476 L -37.1492,-60.6539 L -37.1809,-60.5592 L -37.2094,-60.4634
 L -37.2349,-60.3669 L -37.2572,-60.2695 L -37.2764,-60.1715 L -37.2924,-60.0729 L -37.3053,-59.9738 L -37.3149,-59.8744
 L -37.3214,-59.7747 L -37.3246,-59.6749 L -37.3246,-59.625 L -37.325,-59.625 L -37.325,-41.975 L -37.3246,-41.975
 L -37.3246,-41.925 L -37.3214,-41.8252 L -37.3149,-41.7256 L -37.3053,-41.6261 L -37.2924,-41.5271 L -37.2764,-41.4285
 L -37.2572,-41.3305 L -37.2349,-41.2331 L -37.2094,-41.1365 L -37.1809,-41.0408 L -37.1492,-40.9461 L -37.1146,-40.8524
 L -37.0769,-40.7599 L -37.0363,-40.6687 L -36.9928,-40.5788 L -36.9463,-40.4903 L -36.8971,-40.4034 L -36.8451,-40.3181
 L -36.7903,-40.2346 L -36.7329,-40.1529 L -36.6729,-40.073 L -36.6104,-39.9951 L -36.5454,-39.9193 L -36.4779,-39.8456
 L -36.4082,-39.7742 L -36.3361,-39.705 L -36.2619,-39.6381 L -36.1856,-39.5737 L -36.1072,-39.5118 L -36.0269,-39.4525
 L -35.9447,-39.3957 L -35.8607,-39.3416 L -35.775,-39.2903 L -35.6877,-39.2418 L -35.5989,-39.1961 L -35.5086,-39.1533
 L -35.4171,-39.1134 L -35.3243,-39.0764 L -35.2303,-39.0425 L -35.1353,-39.0117 L -35.0394,-38.9839 L -34.9426,-38.9592
 L -34.8451,-38.9376 L -34.7469,-38.9193 L -34.6482,-38.904 L -34.549,-38.892 L -34.4495,-38.8831 L -34.3498,-38.8775
 L -34.25,-38.8751 L -34.225,-38.8753 L -34.225,-38.875 L -16.575,-38.875 z
M -25.4748,-46.1506 L -25.5744,-46.1533 L -25.674,-46.1581 L -25.7735,-46.165 L -25.8728,-46.1741 L -25.9719,-46.1853
 L -26.0707,-46.1986 L -26.1692,-46.2141 L -26.2674,-46.2316 L -26.3651,-46.2513 L -26.4625,-46.273 L -26.5593,-46.2968
 L -26.6556,-46.3227 L -26.7513,-46.3507 L -26.8464,-46.3807 L -26.9408,-46.4127 L -27.0345,-46.4467 L -27.1275,-46.4828
 L -27.2197,-46.5208 L -27.311,-46.5608 L -27.4015,-46.6028 L -27.491,-46.6467 L -27.5796,-46.6925 L -27.6672,-46.7402
 L -27.7537,-46.7897 L -27.8392,-46.8411 L -27.9235,-46.8943 L -28.0067,-46.9493 L -28.0886,-47.0061 L -28.1694,-47.0646
 L -28.2488,-47.1249 L -28.327,-47.1868 L -28.4038,-47.2504 L -28.4792,-47.3156 L -28.5532,-47.3824 L -28.6258,-47.4508
 L -28.6968,-47.5208 L -28.7664,-47.5922 L -28.8344,-47.6651 L -28.9008,-47.7395 L -28.9657,-47.8153 L -29.0288,-47.8924
 L -29.0903,-47.9709 L -29.1502,-48.0507 L -29.2083,-48.1317 L -29.2646,-48.214 L -29.3192,-48.2975 L -29.3719,-48.3821
 L -29.4228,-48.4678 L -29.4719,-48.5546 L -29.5191,-48.6424 L -29.5645,-48.7312 L -29.6078,-48.821 L -29.6493,-48.9117
 L -29.6888,-49.0033 L -29.7264,-49.0956 L -29.7619,-49.1888 L -29.7955,-49.2827 L -29.827,-49.3773 L -29.8565,-49.4725
 L -29.8839,-49.5684 L -29.9093,-49.6649 L -29.9326,-49.7618 L -29.9538,-49.8592 L -29.9729,-49.9571 L -29.99,-50.0553
 L -30.0049,-50.1539 L -30.0177,-50.2528 L -30.0284,-50.352 L -30.0369,-50.4513 L -30.0433,-50.5508 L -30.0476,-50.6505
 L -30.0497,-50.7501 L -30.0497,-50.8498 L -30.0476,-50.9495 L -30.0433,-51.0491 L -30.0369,-51.1487 L -30.0284,-51.248
 L -30.0177,-51.3472 L -30.0049,-51.446 L -29.99,-51.5446 L -29.9729,-51.6429 L -29.9538,-51.7407 L -29.9326,-51.8382
 L -29.9093,-51.9351 L -29.8839,-52.0316 L -29.8565,-52.1274 L -29.827,-52.2227 L -29.7955,-52.3173 L -29.7619,-52.4112
 L -29.7264,-52.5043 L -29.6888,-52.5967 L -29.6493,-52.6883 L -29.6078,-52.7789 L -29.5645,-52.8687 L -29.5191,-52.9576
 L -29.4719,-53.0454 L -29.4228,-53.1322 L -29.3719,-53.2179 L -29.3192,-53.3025 L -29.2646,-53.386 L -29.2083,-53.4682
 L -29.1502,-53.5493 L -29.0903,-53.6291 L -29.0288,-53.7076 L -28.9657,-53.7847 L -28.9008,-53.8605 L -28.8344,-53.9348
 L -28.7664,-54.0078 L -28.6968,-54.0792 L -28.6258,-54.1491 L -28.5532,-54.2175 L -28.4792,-54.2844 L -28.4038,-54.3496
 L -28.327,-54.4132 L -28.2488,-54.4751 L -28.1694,-54.5354 L -28.0886,-54.5939 L -28.0067,-54.6507 L -27.9235,-54.7057
 L -27.8392,-54.7589 L -27.7537,-54.8103 L -27.6672,-54.8598 L -27.5796,-54.9075 L -27.491,-54.9533 L -27.4015,-54.9972
 L -27.311,-55.0391 L -27.2197,-55.0791 L -27.1275,-55.1172 L -27.0345,-55.1532 L -26.9408,-55.1873 L -26.8464,-55.2193
 L -26.7513,-55.2493 L -26.6556,-55.2773 L -26.5593,-55.3031 L -26.4625,-55.327 L -26.3651,-55.3487 L -26.2674,-55.3684
 L -26.1692,-55.3859 L -26.0707,-55.4014 L -25.9719,-55.4147 L -25.8728,-55.4259 L -25.7735,-55.435 L -25.674,-55.4419
 L -25.5744,-55.4467 L -25.4748,-55.4494 L -25.3751,-55.4499 L -25.2754,-55.4483 L -25.1757,-55.4446 L -25.0762,-55.4387
 L -24.9768,-55.4307 L -24.8776,-55.4205 L -24.7786,-55.4083 L -24.68,-55.3939 L -24.5816,-55.3774 L -24.4837,-55.3588
 L -24.3861,-55.3381 L -24.289,-55.3153 L -24.1925,-55.2905 L -24.0965,-55.2635 L -24.0011,-55.2346 L -23.9063,-55.2035
 L -23.8122,-55.1705 L -23.7189,-55.1355 L -23.6263,-55.0984 L -23.5345,-55.0594 L -23.4436,-55.0184 L -23.3536,-54.9755
 L -23.2646,-54.9306 L -23.1765,-54.8839 L -23.0894,-54.8353 L -23.0034,-54.7848 L -22.9185,-54.7325 L -22.8348,-54.6784
 L -22.7522,-54.6225 L -22.6708,-54.5648 L -22.5907,-54.5054 L -22.5119,-54.4444 L -22.4344,-54.3816 L -22.3583,-54.3172
 L -22.2836,-54.2511 L -22.2103,-54.1835 L -22.1385,-54.1144 L -22.0682,-54.0437 L -21.9994,-53.9715 L -21.9322,-53.8978
 L -21.8665,-53.8228 L -21.8025,-53.7463 L -21.7402,-53.6685 L -21.6795,-53.5893 L -21.6206,-53.5089 L -21.5634,-53.4273
 L -21.5079,-53.3444 L -21.4542,-53.2603 L -21.4024,-53.1752 L -21.3524,-53.0889 L -21.3042,-53.0016 L -21.2579,-52.9133
 L -21.2136,-52.824 L -21.1712,-52.7337 L -21.1307,-52.6426 L -21.0921,-52.5506 L -21.0556,-52.4579 L -21.021,-52.3643
 L -20.9885,-52.2701 L -20.958,-52.1751 L -20.9295,-52.0796 L -20.9031,-51.9834 L -20.8788,-51.8867 L -20.8565,-51.7895
 L -20.8363,-51.6919 L -20.8183,-51.5938 L -20.8023,-51.4954 L -20.7884,-51.3966 L -20.7767,-51.2976 L -20.7671,-51.1983
 L -20.7596,-51.0989 L -20.7543,-50.9993 L -20.7511,-50.8997 L -20.75,-50.8 L -20.7511,-50.7003 L -20.7543,-50.6006
 L -20.7596,-50.5011 L -20.7671,-50.4016 L -20.7767,-50.3024 L -20.7884,-50.2034 L -20.8023,-50.1046 L -20.8183,-50.0062
 L -20.8363,-49.9081 L -20.8565,-49.8105 L -20.8788,-49.7133 L -20.9031,-49.6166 L -20.9295,-49.5204 L -20.958,-49.4249
 L -20.9885,-49.3299 L -21.021,-49.2357 L -21.0556,-49.1421 L -21.0921,-49.0493 L -21.1307,-48.9574 L -21.1712,-48.8663
 L -21.2136,-48.776 L -21.2579,-48.6867 L -21.3042,-48.5984 L -21.3524,-48.5111 L -21.4024,-48.4248 L -21.4542,-48.3396
 L -21.5079,-48.2556 L -21.5634,-48.1727 L -21.6206,-48.091 L -21.6795,-48.0106 L -21.7402,-47.9315 L -21.8025,-47.8537
 L -21.8665,-47.7772 L -21.9322,-47.7021 L -21.9994,-47.6285 L -22.0682,-47.5563 L -22.1385,-47.4856 L -22.2103,-47.4164
 L -22.2836,-47.3488 L -22.3583,-47.2828 L -22.4344,-47.2184 L -22.5119,-47.1556 L -22.5907,-47.0945 L -22.6708,-47.0351
 L -22.7522,-46.9775 L -22.8348,-46.9216 L -22.9185,-46.8675 L -23.0034,-46.8152 L -23.0894,-46.7647 L -23.1765,-46.7161
 L -23.2646,-46.6693 L -23.3536,-46.6245 L -23.4436,-46.5816 L -23.5345,-46.5406 L -23.6263,-46.5016 L -23.7189,-46.4645
 L -23.8122,-46.4295 L -23.9063,-46.3964 L -24.0011,-46.3654 L -24.0965,-46.3364 L -24.1925,-46.3095 L -24.289,-46.2847
 L -24.3861,-46.2619 L -24.4837,-46.2412 L -24.5816,-46.2226 L -24.68,-46.2061 L -24.7786,-46.1917 L -24.8776,-46.1794
 L -24.9768,-46.1693 L -25.0762,-46.1613 L -25.1757,-46.1554 L -25.2754,-46.1517 L -25.3751,-46.1501 z
" stroke="black" fill="lightgray" stroke-width="0.5"/>
</svg>
