<?xml version="1.0" standalone="no"?>
<!DOCTYPE svg PUBLIC "-//W3C//DTD SVG 1.1//EN" "http://www.w3.org/Graphics/SVG/1.1/DTD/svg11.dtd">
<svg width="126mm" height="126mm" viewBox="-114 -114 126 126" xmlns="http://www.w3.org/2000/svg" version="1.1">
<title>OpenSCAD Model</title>
<path d="
M 8.825,-89.6753 L 8.8999,-89.6759 L 8.99969,-89.6799 L 9.09932,-89.6872 L 9.19865,-89.6976 L 9.29761,-89.7112
 L 9.39606,-89.7281 L 9.49393,-89.748 L 9.59109,-89.7711 L 9.68747,-89.7974 L 9.78294,-89.8267 L 9.87743,-89.8591
 L 9.97083,-89.8945 L 10.063,-89.9329 L 10.1539,-89.9743 L 10.2435,-90.0186 L 10.3315,-90.0657 L 10.418,-90.1156
 L 10.5029,-90.1683 L 10.586,-90.2238 L 10.6673,-90.2818 L 10.7466,-90.3425 L 10.824,-90.4056 L 10.8993,-90.4713
 L 10.9724,-90.5393 L 11.0434,-90.6096 L 11.112,-90.6822 L 11.1782,-90.757 L 11.242,-90.8338 L 11.3033,-90.9127
 L 11.362,-90.9935 L 11.418,-91.0762 L 11.4714,-91.1606 L 11.5221,-91.2467 L 11.5699,-91.3344 L 11.6149,-91.4235
 L 11.657,-91.5141 L 11.6961,-91.606 L 11.7323,-91.6991 L 11.7655,-91.7933 L 11.7955,-91.8886 L 11.8226,-91.9847
 L 11.8465,-92.0817 L 11.8672,-92.1794 L 11.8848,-92.2777 L 11.8993,-92.3766 L 11.9105,-92.4758 L 11.9186,-92.5754
 L 11.9234,-92.6751 L 11.925,-92.775 L 11.925,-110.425 L 11.9234,-110.525 L 11.9186,-110.625 L 11.9105,-110.724
 L 11.8993,-110.823 L 11.8848,-110.922 L 11.8672,-111.021 L 11.8465,-111.118 L 11.8226,-111.215 L 11.7955,-111.311
 L 11.7655,-111.407 L 11.7323,-111.501 L 11.6961,-111.594 L 11.657,-111.686 L 11.6149,-111.776 L 11.5699,-111.866
 L 11.5221,-111.953 L 11.4714,-112.039 L 11.418,-112.124 L 11.362,-112.206 L 11.3033,-112.287 L 11.242,-112.366
 L 11.1782,-112.443 L 11.112,-112.518 L 11.0434,-112.59 L 10.9724,-112.661 L 10.8993,-112.729 L 10.824,-112.794
 L 10.7466,-112.858 L 10.6673,-112.918 L 10.586,-112.976 L 10.5029,-113.032 L 10.418,-113.084 L 10.3315,-113.134
 L 10.2435,-113.181 L 10.1539,-113.226 L 10.063,-113.267 L 9.97083,-113.305 L 9.87743,-113.341 L 9.78294,-113.373
 L 9.68747,-113.403 L 9.59109,-113.429 L 9.49393,-113.452 L 9.39606,-113.472 L 9.29761,-113.489 L 9.19865,-113.502
 L 9.09932,-113.513 L 8.99969,-113.52 L 8.8999,-113.524 L 8.825,-113.525 L 8.825,-113.525 L -8.825,-113.525
 L -8.825,-113.525 L -8.84996,-113.525 L -8.94981,-113.522 L -9.04955,-113.517 L -9.14903,-113.508 L -9.24818,-113.496
 L -9.34689,-113.481 L -9.44507,-113.462 L -9.5426,-113.441 L -9.63939,-113.416 L -9.73532,-113.388 L -9.83032,-113.357
 L -9.92427,-113.324 L -10.0171,-113.287 L -10.1086,-113.247 L -10.1989,-113.204 L -10.2877,-113.158 L -10.375,-113.11
 L -10.4607,-113.058 L -10.5447,-113.004 L -10.6269,-112.948 L -10.7072,-112.888 L -10.7856,-112.826 L -10.8619,-112.762
 L -10.9361,-112.695 L -11.0082,-112.626 L -11.0779,-112.554 L -11.1454,-112.481 L -11.2104,-112.405 L -11.2729,-112.327
 L -11.3329,-112.247 L -11.3904,-112.165 L -11.4451,-112.082 L -11.4971,-111.997 L -11.5463,-111.91 L -11.5928,-111.821
 L -11.6363,-111.731 L -11.6769,-111.64 L -11.7146,-111.548 L -11.7493,-111.454 L -11.7809,-111.359 L -11.8094,-111.263
 L -11.8349,-111.167 L -11.8573,-111.07 L -11.8764,-110.971 L -11.8925,-110.873 L -11.9053,-110.774 L -11.9149,-110.674
 L -11.9214,-110.575 L -11.9246,-110.475 L -11.9246,-110.425 L -11.925,-110.425 L -11.925,-92.775 L -11.9246,-92.775
 L -11.9246,-92.7251 L -11.9214,-92.6252 L -11.9149,-92.5256 L -11.9053,-92.4261 L -11.8925,-92.3271 L -11.8764,-92.2285
 L -11.8573,-92.1305 L -11.8349,-92.0331 L -11.8094,-91.9365 L -11.7809,-91.8408 L -11.7493,-91.7461 L -11.7146,-91.6524
 L -11.6769,-91.5599 L -11.6363,-91.4687 L -11.5928,-91.3788 L -11.5463,-91.2903 L -11.4971,-91.2034 L -11.4451,-91.1181
 L -11.3904,-91.0346 L -11.3329,-90.9529 L -11.2729,-90.873 L -11.2104,-90.7951 L -11.1454,-90.7193 L -11.0779,-90.6456
 L -11.0082,-90.5742 L -10.9361,-90.505 L -10.8619,-90.4381 L -10.7856,-90.3737 L -10.7072,-90.3118 L -10.6269,-90.2525
 L -10.5447,-90.1957 L -10.4607,-90.1416 L -10.375,-90.0903 L -10.2877,-90.0418 L -10.1989,-89.9961 L -10.1086,-89.9533
 L -10.0171,-89.9134 L -9.92427,-89.8764 L -9.83032,-89.8425 L -9.73532,-89.8117 L -9.63939,-89.7839 L -9.5426,-89.7592
 L -9.44507,-89.7376 L -9.34689,-89.7193 L -9.24818,-89.704 L -9.14903,-89.692 L -9.04955,-89.6831 L -8.94981,-89.6775
 L -8.84996,-89.6751 L -8.825,-89.6753 L -8.825,-89.675 L 8.825,-89.675 z
M -0.0747833,-96.9506 L -0.174454,-96.9533 L -0.274048,-96.9581 L -0.37352,-96.965 L -0.472824,-96.9741 L -0.571915,-96.9853
 L -0.670731,-96.9986 L -0.769241,-97.0141 L -0.867401,-97.0316 L -0.965149,-97.0513 L -1.06247,-97.073 L -1.1593,-97.0968
 L -1.25558,-97.1227 L -1.3513,-97.1507 L -1.4464,-97.1807 L -1.54083,-97.2127 L -1.63455,-97.2467 L -1.72752,-97.2828
 L -1.8197,-97.3208 L -1.91104,-97.3608 L -2.0015,-97.4028 L -2.09103,-97.4467 L -2.17961,-97.4925 L -2.26718,-97.5402
 L -2.35371,-97.5897 L -2.43916,-97.6411 L -2.5235,-97.6943 L -2.60666,-97.7493 L -2.68863,-97.8061 L -2.76936,-97.8646
 L -2.84883,-97.9249 L -2.92697,-97.9868 L -3.00378,-98.0504 L -3.07921,-98.1156 L -3.15321,-98.1824 L -3.22577,-98.2508
 L -3.29684,-98.3208 L -3.36639,-98.3922 L -3.4344,-98.4651 L -3.50084,-98.5395 L -3.56566,-98.6153 L -3.62885,-98.6924
 L -3.69035,-98.7709 L -3.75017,-98.8507 L -3.80826,-98.9317 L -3.86459,-99.014 L -3.91916,-99.0975 L -3.97191,-99.1821
 L -4.02284,-99.2678 L -4.07193,-99.3546 L -4.11914,-99.4424 L -4.16446,-99.5312 L -4.20786,-99.621 L -4.24933,-99.7117
 L -4.28885,-99.8033 L -4.32639,-99.8956 L -4.36194,-99.9888 L -4.39548,-100.083 L -4.427,-100.177 L -4.4565,-100.273
 L -4.48393,-100.368 L -4.50931,-100.465 L -4.53261,-100.562 L -4.55383,-100.659 L -4.57295,-100.757 L -4.58998,-100.855
 L -4.60489,-100.954 L -4.61769,-101.053 L -4.62836,-101.152 L -4.6369,-101.251 L -4.64331,-101.351 L -4.64758,-101.45
 L -4.64972,-101.55 L -4.64972,-101.65 L -4.64758,-101.75 L -4.64331,-101.849 L -4.6369,-101.949 L -4.62836,-102.048
 L -4.61769,-102.147 L -4.60489,-102.246 L -4.58998,-102.345 L -4.57295,-102.443 L -4.55383,-102.541 L -4.53261,-102.638
 L -4.50931,-102.735 L -4.48393,-102.832 L -4.4565,-102.927 L -4.427,-103.023 L -4.39548,-103.117 L -4.36194,-103.211
 L -4.32639,-103.304 L -4.28885,-103.397 L -4.24933,-103.488 L -4.20786,-103.579 L -4.16446,-103.669 L -4.11914,-103.758
 L -4.07193,-103.845 L -4.02284,-103.932 L -3.97191,-104.018 L -3.91916,-104.103 L -3.86459,-104.186 L -3.80826,-104.268
 L -3.75017,-104.349 L -3.69035,-104.429 L -3.62885,-104.508 L -3.56566,-104.585 L -3.50084,-104.66 L -3.4344,-104.735
 L -3.36639,-104.808 L -3.29684,-104.879 L -3.22577,-104.949 L -3.15321,-105.018 L -3.07921,-105.084 L -3.00378,-105.15
 L -2.92697,-105.213 L -2.84883,-105.275 L -2.76936,-105.335 L -2.68863,-105.394 L -2.60666,-105.451 L -2.5235,-105.506
 L -2.43916,-105.559 L -2.35371,-105.61 L -2.26718,-105.66 L -2.17961,-105.708 L -2.09103,-105.753 L -2.0015,-105.797
 L -1.91104,-105.839 L -1.8197,-105.879 L -1.72752,-105.917 L -1.63455,-105.953 L -1.54083,-105.987 L -1.4464,-106.019
 L -1.3513,-106.049 L -1.25558,-106.077 L -1.1593,-106.103 L -1.06247,-106.127 L -0.965149,-106.149 L -0.867401,-106.168
 L -0.769241,-106.186 L -0.670731,-106.201 L -0.571915,-106.215 L -0.472824,-106.226 L -0.37352,-106.235 L -0.274048,-106.242
 L -0.174454,-106.247 L -0.0747833,-106.249 L 0.0249176,-106.25 L 0.124619,-106.248 L 0.224274,-106.245 L 0.323807,-106.239
 L 0.423203,-106.231 L 0.5224,-106.221 L 0.621353,-106.208 L 0.720032,-106.194 L 0.818359,-106.177 L 0.916336,-106.159
 L 1.01387,-106.138 L 1.11095,-106.115 L 1.20752,-106.09 L 1.30353,-106.064 L 1.39894,-106.035 L 1.4937,-106.004
 L 1.58778,-105.971 L 1.68114,-105.935 L 1.77371,-105.898 L 1.86548,-105.859 L 1.95638,-105.818 L 2.04639,-105.775
 L 2.13544,-105.731 L 2.22353,-105.684 L 2.31058,-105.635 L 2.39658,-105.585 L 2.48148,-105.533 L 2.56523,-105.478
 L 2.6478,-105.423 L 2.72916,-105.365 L 2.80927,-105.305 L 2.88806,-105.244 L 2.96555,-105.182 L 3.04167,-105.117
 L 3.11639,-105.051 L 3.18967,-104.984 L 3.26149,-104.914 L 3.33182,-104.844 L 3.4006,-104.771 L 3.46782,-104.698
 L 3.53345,-104.623 L 3.59746,-104.546 L 3.65981,-104.468 L 3.72047,-104.389 L 3.77943,-104.309 L 3.83664,-104.227
 L 3.89211,-104.144 L 3.94577,-104.06 L 3.99762,-103.975 L 4.04762,-103.889 L 4.09578,-103.802 L 4.14204,-103.713
 L 4.1864,-103.624 L 4.22884,-103.534 L 4.26933,-103.443 L 4.30786,-103.351 L 4.34441,-103.258 L 4.37895,-103.164
 L 4.4115,-103.07 L 4.442,-102.975 L 4.47047,-102.88 L 4.49687,-102.783 L 4.52122,-102.687 L 4.54349,-102.59
 L 4.56366,-102.492 L 4.58173,-102.394 L 4.5977,-102.295 L 4.61156,-102.197 L 4.62329,-102.098 L 4.63289,-101.998
 L 4.64037,-101.899 L 4.64572,-101.799 L 4.64893,-101.7 L 4.64999,-101.6 L 4.64893,-101.5 L 4.64572,-101.401
 L 4.64037,-101.301 L 4.63289,-101.202 L 4.62329,-101.102 L 4.61156,-101.003 L 4.5977,-100.905 L 4.58173,-100.806
 L 4.56366,-100.708 L 4.54349,-100.61 L 4.52122,-100.513 L 4.49687,-100.417 L 4.47047,-100.32 L 4.442,-100.225
 L 4.4115,-100.13 L 4.37895,-100.036 L 4.34441,-99.9421 L 4.30786,-99.8493 L 4.26933,-99.7574 L 4.22884,-99.6663
 L 4.1864,-99.576 L 4.14204,-99.4867 L 4.09578,-99.3984 L 4.04762,-99.3111 L 3.99762,-99.2248 L 3.94577,-99.1396
 L 3.89211,-99.0556 L 3.83664,-98.9727 L 3.77943,-98.8911 L 3.72047,-98.8106 L 3.65981,-98.7315 L 3.59746,-98.6537
 L 3.53345,-98.5772 L 3.46782,-98.5022 L 3.4006,-98.4285 L 3.33182,-98.3563 L 3.26149,-98.2856 L 3.18967,-98.2164
 L 3.11639,-98.1488 L 3.04167,-98.0828 L 2.96555,-98.0184 L 2.88806,-97.9556 L 2.80927,-97.8945 L 2.72916,-97.8351
 L 2.6478,-97.7775 L 2.56523,-97.7216 L 2.48148,-97.6675 L 2.39658,-97.6152 L 2.31058,-97.5647 L 2.22353,-97.5161
 L 2.13544,-97.4693 L 2.04639,-97.4245 L 1.95638,-97.3816 L 1.86548,-97.3406 L 1.77371,-97.3016 L 1.68114,-97.2645
 L 1.58778,-97.2295 L 1.4937,-97.1964 L 1.39894,-97.1654 L 1.30353,-97.1364 L 1.20752,-97.1095 L 1.11095,-97.0847
 L 1.01387,-97.0619 L 0.916336,-97.0412 L 0.818359,-97.0226 L 0.720032,-97.0061 L 0.621353,-96.9917 L 0.5224,-96.9794
 L 0.423203,-96.9693 L 0.323807,-96.9613 L 0.224274,-96.9554 L 0.124619,-96.9517 L 0.0249176,-96.9501 z
M -41.975,-64.2753 L -41.9001,-64.2759 L -41.8003,-64.2799 L -41.7007,-64.2872 L -41.6013,-64.2976 L -41.5024,-64.3112
 L -41.4039,-64.3281 L -41.3061,-64.348 L -41.2089,-64.3712 L -41.1125,-64.3974 L -41.017,-64.4267 L -40.9226,-64.4591
 L -40.8292,-64.4945 L -40.737,-64.5329 L -40.646,-64.5743 L -40.5565,-64.6186 L -40.4684,-64.6657 L -40.3819,-64.7156
 L -40.2971,-64.7683 L -40.214,-64.8238 L -40.1327,-64.8818 L -40.0534,-64.9425 L -39.976,-65.0056 L -39.9007,-65.0713
 L -39.8275,-65.1393 L -39.7566,-65.2096 L -39.688,-65.2822 L -39.6218,-65.357 L -39.558,-65.4338 L -39.4967,-65.5127
 L -39.438,-65.5935 L -39.3819,-65.6762 L -39.3286,-65.7606 L -39.2779,-65.8467 L -39.2301,-65.9344 L -39.1851,-66.0235
 L -39.143,-66.1141 L -39.1039,-66.206 L -39.0677,-66.2991 L -39.0345,-66.3933 L -39.0044,-66.4886 L -38.9774,-66.5847
 L -38.9535,-66.6817 L -38.9328,-66.7794 L -38.9151,-66.8777 L -38.9007,-66.9766 L -38.8895,-67.0758 L -38.8814,-67.1754
 L -38.8766,-67.2751 L -38.875,-67.375 L -38.875,-85.025 L -38.8766,-85.1249 L -38.8814,-85.2246 L -38.8895,-85.3242
 L -38.9007,-85.4234 L -38.9151,-85.5223 L -38.9328,-85.6206 L -38.9535,-85.7183 L -38.9774,-85.8153 L -39.0044,-85.9114
 L -39.0345,-86.0067 L -39.0677,-86.1009 L -39.1039,-86.194 L -39.143,-86.2859 L -39.1851,-86.3764 L -39.2301,-86.4656
 L -39.2779,-86.5533 L -39.3286,-86.6394 L -39.3819,-86.7238 L -39.438,-86.8065 L -39.4967,-86.8873 L -39.558,-86.9662
 L -39.6218,-87.043 L -39.688,-87.1178 L -39.7566,-87.1904 L -39.8275,-87.2607 L -39.9007,-87.3287 L -39.976,-87.3944
 L -40.0534,-87.4575 L -40.1327,-87.5182 L -40.214,-87.5762 L -40.2971,-87.6317 L -40.3819,-87.6844 L -40.4684,-87.7343
 L -40.5565,-87.7814 L -40.646,-87.8257 L -40.737,-87.8671 L -40.8292,-87.9055 L -40.9226,-87.9409 L -41.017,-87.9733
 L -41.1125,-88.0026 L -41.2089,-88.0288 L -41.3061,-88.052 L -41.4039,-88.0719 L -41.5024,-88.0887 L -41.6013,-88.1024
 L -41.7007,-88.1128 L -41.8003,-88.1201 L -41.9001,-88.1241 L -41.975,-88.1247 L -41.975,-88.125 L -59.625,-88.125
 L -59.625,-88.1247 L -59.6499,-88.1249 L -59.7498,-88.1225 L -59.8495,-88.1169 L -59.949,-88.108 L -60.0482,-88.096
 L -60.1469,-88.0807 L -60.2451,-88.0623 L -60.3426,-88.0408 L -60.4394,-88.0161 L -60.5353,-87.9883 L -60.6303,-87.9574
 L -60.7243,-87.9235 L -60.8171,-87.8866 L -60.9086,-87.8467 L -60.9989,-87.8039 L -61.0877,-87.7582 L -61.175,-87.7097
 L -61.2607,-87.6583 L -61.3447,-87.6043 L -61.4268,-87.5475 L -61.5072,-87.4882 L -61.5856,-87.4263 L -61.6619,-87.3619
 L -61.7361,-87.295 L -61.8082,-87.2258 L -61.8779,-87.1544 L -61.9454,-87.0807 L -62.0104,-87.0049 L -62.0729,-86.927
 L -62.1329,-86.8471 L -62.1903,-86.7654 L -62.2451,-86.6818 L -62.2971,-86.5966 L -62.3463,-86.5097 L -62.3927,-86.4212
 L -62.4363,-86.3313 L -62.4769,-86.2401 L -62.5146,-86.1476 L -62.5492,-86.0539 L -62.5809,-85.9592 L -62.6094,-85.8634
 L -62.6349,-85.7669 L -62.6572,-85.6695 L -62.6764,-85.5715 L -62.6924,-85.4729 L -62.7053,-85.3739 L -62.7149,-85.2744
 L -62.7214,-85.1748 L -62.7246,-85.0749 L -62.7246,-85.025 L -62.725,-85.025 L -62.725,-67.375 L -62.7246,-67.375
 L -62.7246,-67.3251 L -62.7214,-67.2252 L -62.7149,-67.1256 L -62.7053,-67.0261 L -62.6924,-66.9271 L -62.6764,-66.8285
 L -62.6572,-66.7305 L -62.6349,-66.6331 L -62.6094,-66.5365 L -62.5809,-66.4408 L -62.5492,-66.3461 L -62.5146,-66.2524
 L -62.4769,-66.1599 L -62.4363,-66.0687 L -62.3927,-65.9788 L -62.3463,-65.8903 L -62.2971,-65.8034 L -62.2451,-65.7182
 L -62.1903,-65.6346 L -62.1329,-65.5529 L -62.0729,-65.473 L -62.0104,-65.3951 L -61.9454,-65.3193 L -61.8779,-65.2456
 L -61.8082,-65.1742 L -61.7361,-65.105 L -61.6619,-65.0381 L -61.5856,-64.9737 L -61.5072,-64.9118 L -61.4268,-64.8525
 L -61.3447,-64.7957 L -61.2607,-64.7417 L -61.175,-64.6903 L -61.0877,-64.6418 L -60.9989,-64.5961 L -60.9086,-64.5533
 L -60.8171,-64.5134 L -60.7243,-64.4765 L -60.6303,-64.4426 L -60.5353,-64.4117 L -60.4394,-64.3839 L -60.3426,-64.3592
 L -60.2451,-64.3376 L -60.1469,-64.3193 L -60.0482,-64.304 L -59.949,-64.292 L -59.8495,-64.2831 L -59.7498,-64.2775
 L -59.6499,-64.2751 L -59.625,-64.2753 L -59.625,-64.275 L -41.975,-64.275 z
M -50.8748,-71.5506 L -50.9744,-71.5533 L -51.074,-71.5581 L -51.1735,-71.565 L -51.2728,-71.5741 L -51.3719,-71.5853
 L -51.4707,-71.5986 L -51.5692,-71.6141 L -51.6674,-71.6316 L -51.7651,-71.6513 L -51.8625,-71.673 L -51.9593,-71.6968
 L -52.0556,-71.7227 L -52.1513,-71.7507 L -52.2464,-71.7807 L -52.3408,-71.8127 L -52.4345,-71.8468 L -52.5275,-71.8828
 L -52.6197,-71.9209 L -52.711,-71.9608 L -52.8015,-72.0028 L -52.891,-72.0467 L -52.9796,-72.0925 L -53.0672,-72.1402
 L -53.1537,-72.1897 L -53.2392,-72.2411 L -53.3235,-72.2943 L -53.4066,-72.3493 L -53.4886,-72.4061 L -53.5694,-72.4646
 L -53.6488,-72.5249 L -53.727,-72.5868 L -53.8038,-72.6504 L -53.8792,-72.7156 L -53.9532,-72.7824 L -54.0258,-72.8508
 L -54.0968,-72.9208 L -54.1664,-72.9922 L -54.2344,-73.0652 L -54.3008,-73.1395 L -54.3656,-73.2153 L -54.4288,-73.2924
 L -54.4903,-73.3709 L -54.5502,-73.4507 L -54.6082,-73.5317 L -54.6646,-73.614 L -54.7191,-73.6975 L -54.7719,-73.7821
 L -54.8228,-73.8678 L -54.8719,-73.9546 L -54.9191,-74.0424 L -54.9644,-74.1313 L -55.0078,-74.221 L -55.0493,-74.3117
 L -55.0888,-74.4033 L -55.1264,-74.4957 L -55.1619,-74.5888 L -55.1955,-74.6827 L -55.227,-74.7773 L -55.2565,-74.8726
 L -55.2839,-74.9684 L -55.3093,-75.0649 L -55.3326,-75.1618 L -55.3538,-75.2592 L -55.3729,-75.3571 L -55.39,-75.4554
 L -55.4049,-75.5539 L -55.4177,-75.6528 L -55.4283,-75.752 L -55.4369,-75.8513 L -55.4433,-75.9508 L -55.4476,-76.0505
 L -55.4497,-76.1501 L -55.4497,-76.2498 L -55.4476,-76.3495 L -55.4433,-76.4492 L -55.4369,-76.5487 L -55.4283,-76.648
 L -55.4177,-76.7472 L -55.4049,-76.8461 L -55.39,-76.9446 L -55.3729,-77.0429 L -55.3538,-77.1407 L -55.3326,-77.2382
 L -55.3093,-77.3351 L -55.2839,-77.4316 L -55.2565,-77.5274 L -55.227,-77.6227 L -55.1955,-77.7173 L -55.1619,-77.8112
 L -55.1264,-77.9043 L -55.0888,-77.9967 L -55.0493,-78.0883 L -55.0078,-78.179 L -54.9644,-78.2687 L -54.9191,-78.3576
 L -54.8719,-78.4454 L -54.8228,-78.5322 L -54.7719,-78.6179 L -54.7191,-78.7025 L -54.6646,-78.786 L -54.6082,-78.8683
 L -54.5502,-78.9493 L -54.4903,-79.0291 L -54.4288,-79.1076 L -54.3656,-79.1847 L -54.3008,-79.2605 L -54.2344,-79.3348
 L -54.1664,-79.4078 L -54.0968,-79.4792 L -54.0258,-79.5491 L -53.9532,-79.6176 L -53.8792,-79.6844 L -53.8038,-79.7496
 L -53.727,-79.8132 L -53.6488,-79.8751 L -53.5694,-79.9354 L -53.4886,-79.9939 L -53.4066,-80.0507 L -53.3235,-80.1057
 L -53.2392,-80.1589 L -53.1537,-80.2103 L -53.0672,-80.2598 L -52.9796,-80.3075 L -52.891,-80.3533 L -52.8015,-80.3972
 L -52.711,-80.4391 L -52.6197,-80.4791 L -52.5275,-80.5172 L -52.4345,-80.5532 L -52.3408,-80.5873 L -52.2464,-80.6193
 L -52.1513,-80.6493 L -52.0556,-80.6773 L -51.9593,-80.7032 L -51.8625,-80.727 L -51.7651,-80.7487 L -51.6674,-80.7684
 L -51.5692,-80.7859 L -51.4707,-80.8014 L -51.3719,-80.8147 L -51.2728,-80.8259 L -51.1735,-80.835 L -51.074,-80.8419
 L -50.9744,-80.8467 L -50.8748,-80.8494 L -50.7751,-80.8499 L -50.6754,-80.8483 L -50.5757,-80.8446 L -50.4762,-80.8387
 L -50.3768,-80.8307 L -50.2776,-80.8206 L -50.1786,-80.8083 L -50.08,-80.7939 L -49.9816,-80.7774 L -49.8837,-80.7588
 L -49.7861,-80.7381 L -49.689,-80.7153 L -49.5925,-80.6905 L -49.4965,-80.6635 L -49.401,-80.6346 L -49.3063,-80.6035
 L -49.2122,-80.5705 L -49.1189,-80.5355 L -49.0263,-80.4984 L -48.9345,-80.4594 L -48.8436,-80.4184 L -48.7536,-80.3755
 L -48.6646,-80.3306 L -48.5765,-80.2839 L -48.4894,-80.2353 L -48.4034,-80.1848 L -48.3185,-80.1325 L -48.2348,-80.0784
 L -48.1522,-80.0225 L -48.0708,-79.9648 L -47.9907,-79.9055 L -47.9119,-79.8444 L -47.8344,-79.7816 L -47.7583,-79.7172
 L -47.6836,-79.6512 L -47.6103,-79.5835 L -47.5385,-79.5144 L -47.4682,-79.4437 L -47.3994,-79.3715 L -47.3322,-79.2978
 L -47.2665,-79.2228 L -47.2025,-79.1463 L -47.1402,-79.0685 L -47.0795,-78.9893 L -47.0206,-78.9089 L -46.9633,-78.8273
 L -46.9079,-78.7444 L -46.8542,-78.6604 L -46.8024,-78.5752 L -46.7524,-78.4889 L -46.7042,-78.4016 L -46.6579,-78.3133
 L -46.6136,-78.224 L -46.5712,-78.1337 L -46.5307,-78.0426 L -46.4921,-77.9506 L -46.4556,-77.8579 L -46.421,-77.7643
 L -46.3885,-77.6701 L -46.358,-77.5751 L -46.3295,-77.4796 L -46.3031,-77.3834 L -46.2788,-77.2867 L -46.2565,-77.1895
 L -46.2363,-77.0919 L -46.2183,-76.9938 L -46.2023,-76.8954 L -46.1884,-76.7966 L -46.1767,-76.6976 L -46.1671,-76.5984
 L -46.1596,-76.4989 L -46.1543,-76.3994 L -46.1511,-76.2997 L -46.15,-76.2 L -46.1511,-76.1003 L -46.1543,-76.0006
 L -46.1596,-75.9011 L -46.1671,-75.8016 L -46.1767,-75.7024 L -46.1884,-75.6034 L -46.2023,-75.5046 L -46.2183,-75.4062
 L -46.2363,-75.3081 L -46.2565,-75.2105 L -46.2788,-75.1133 L -46.3031,-75.0166 L -46.3295,-74.9204 L -46.358,-74.8249
 L -46.3885,-74.7299 L -46.421,-74.6357 L -46.4556,-74.5421 L -46.4921,-74.4494 L -46.5307,-74.3574 L -46.5712,-74.2663
 L -46.6136,-74.176 L -46.6579,-74.0867 L -46.7042,-73.9984 L -46.7524,-73.9111 L -46.8024,-73.8248 L -46.8542,-73.7396
 L -46.9079,-73.6556 L -46.9633,-73.5727 L -47.0206,-73.4911 L -47.0795,-73.4106 L -47.1402,-73.3315 L -47.2025,-73.2537
 L -47.2665,-73.1772 L -47.3322,-73.1022 L -47.3994,-73.0285 L -47.4682,-72.9563 L -47.5385,-72.8856 L -47.6103,-72.8165
 L -47.6836,-72.7488 L -47.7583,-72.6828 L -47.8344,-72.6184 L -47.9119,-72.5556 L -47.9907,-72.4945 L -48.0708,-72.4352
 L -48.1522,-72.3775 L -48.2348,-72.3216 L -48.3185,-72.2675 L -48.4034,-72.2152 L -48.4894,-72.1647 L -48.5765,-72.1161
 L -48.6646,-72.0694 L -48.7536,-72.0245 L -48.8436,-71.9816 L -48.9345,-71.9406 L -49.0263,-71.9016 L -49.1189,-71.8645
 L -49.2122,-71.8295 L -49.3063,-71.7964 L -49.401,-71.7654 L -49.4965,-71.7365 L -49.5925,-71.7095 L -49.689,-71.6847
 L -49.7861,-71.6619 L -49.8837,-71.6412 L -49.9816,-71.6226 L -50.08,-71.6061 L -50.1786,-71.5917 L -50.2776,-71.5794
 L -50.3768,-71.5693 L -50.4762,-71.5613 L -50.5757,-71.5554 L -50.6754,-71.5517 L -50.7751,-71.5501 z
M -16.575,-38.8753 L -16.5001,-38.8759 L -16.4003,-38.8799 L -16.3007,-38.8872 L -16.2013,-38.8976 L -16.1024,-38.9112
 L -16.0039,-38.9281 L -15.9061,-38.948 L -15.8089,-38.9711 L -15.7125,-38.9974 L -15.6171,-39.0267 L -15.5226,-39.0591
 L -15.4292,-39.0945 L -15.337,-39.1329 L -15.246,-39.1743 L -15.1565,-39.2186 L -15.0685,-39.2657 L -14.9819,-39.3156
 L -14.8971,-39.3683 L -14.814,-39.4238 L -14.7327,-39.4818 L -14.6534,-39.5424 L -14.576,-39.6056 L -14.5007,-39.6712
 L -14.4276,-39.7393 L -14.3566,-39.8096 L -14.288,-39.8822 L -14.2218,-39.957 L -14.158,-40.0338 L -14.0967,-40.1127
 L -14.038,-40.1935 L -13.9819,-40.2762 L -13.9286,-40.3606 L -13.8779,-40.4467 L -13.8301,-40.5343 L -13.7851,-40.6235
 L -13.743,-40.7141 L -13.7039,-40.806 L -13.6677,-40.8991 L -13.6345,-40.9933 L -13.6044,-41.0886 L -13.5774,-41.1847
 L -13.5535,-41.2817 L -13.5328,-41.3794 L -13.5152,-41.4777 L -13.5007,-41.5766 L -13.4895,-41.6758 L -13.4814,-41.7754
 L -13.4766,-41.8751 L -13.475,-41.975 L -13.475,-59.625 L -13.4766,-59.7249 L -13.4814,-59.8246 L -13.4895,-59.9242
 L -13.5007,-60.0234 L -13.5152,-60.1223 L -13.5328,-60.2206 L -13.5535,-60.3183 L -13.5774,-60.4153 L -13.6044,-60.5114
 L -13.6345,-60.6066 L -13.6677,-60.7009 L -13.7039,-60.794 L -13.743,-60.8859 L -13.7851,-60.9764 L -13.8301,-61.0656
 L -13.8779,-61.1533 L -13.9286,-61.2394 L -13.9819,-61.3238 L -14.038,-61.4065 L -14.0967,-61.4873 L -14.158,-61.5661
 L -14.2218,-61.643 L -14.288,-61.7178 L -14.3566,-61.7904 L -14.4276,-61.8607 L -14.5007,-61.9287 L -14.576,-61.9944
 L -14.6534,-62.0575 L -14.7327,-62.1182 L -14.814,-62.1762 L -14.8971,-62.2316 L -14.9819,-62.2843 L -15.0685,-62.3343
 L -15.1565,-62.3814 L -15.246,-62.4257 L -15.337,-62.467 L -15.4292,-62.5054 L -15.5226,-62.5409 L -15.6171,-62.5733
 L -15.7125,-62.6026 L -15.8089,-62.6288 L -15.9061,-62.6519 L -16.0039,-62.6719 L -16.1024,-62.6887 L -16.2013,-62.7024
 L -16.3007,-62.7128 L -16.4003,-62.72 L -16.5001,-62.7241 L -16.575,-62.7247 L -16.575,-62.725 L -34.225,-62.725
 L -34.225,-62.7247 L -34.25,-62.7249 L -34.3498,-62.7225 L -34.4495,-62.7168 L -34.549,-62.708 L -34.6482,-62.696
 L -34.7469,-62.6807 L -34.8451,-62.6623 L -34.9426,-62.6408 L -35.0394,-62.6161 L -35.1353,-62.5883 L -35.2303,-62.5574
 L -35.3243,-62.5235 L -35.4171,-62.4866 L -35.5086,-62.4467 L -35.5989,-62.4039 L -35.6877,-62.3582 L -35.775,-62.3097
 L -35.8607,-62.2583 L -35.9447,-62.2043 L -36.0269,-62.1475 L -36.1072,-62.0882 L -36.1856,-62.0263 L -36.2619,-61.9619
 L -36.3361,-61.895 L -36.4082,-61.8258 L -36.4779,-61.7543 L -36.5454,-61.6807 L -36.6104,-61.6048 L -36.6729,-61.527
 L -36.7329,-61.4471 L -36.7903,-61.3654 L -36.8451,-61.2818 L -36.8971,-61.1965 L -36.9463,-61.1096 L -36.9928,-61.0212
 L -37.0363,-60.9313 L -37.0769,-60.8401 L -37.1146,-60.7476 L -37.1492,-60.6539 L -37.1809,-60.5592 L -37.2094,-60.4634
 L -37.2349,-60.3669 L -37.2572,-60.2695 L -37.2764,-60.1715 L -37.2924,-60.0729 L -37.3053,-59.9738 L -37.3149,-59.8744
 L -37.3214,-59.7747 L -37.3246,-59.6749 L -37.3246,-59.625 L -37.325,-59.625 L -37.325,-41.975 L -37.3246,-41.975
 L -37.3246,-41.925 L -37.3214,-41.8252 L -37.3149,-41.7256 L -37.3053,-41.6261 L -37.2924,-41.5271 L -37.2764,-41.4285
 L -37.2572,-41.3305 L -37.2349,-41.2331 L -37.2094,-41.1365 L -37.1809,-41.0408 L -37.1492,-40.9461 L -37.1146,-40.8524
 L -37.0769,-40.7599 L -37.0363,-40.6687 L -36.9928,-40.5788 L -36.9463,-40.4903 L -36.8971,-40.4034 L -36.8451,-40.3181
 L -36.7903,-40.2346 L -36.7329,-40.1529 L -36.6729,-40.073 L -36.6104,-39.9951 L -36.5454,-39.9193 L -36.4779,-39.8456
 L -36.4082,-39.7742 L -36.3361,-39.705 L -36.2619,-39.6381 L -36.1856,-39.5737 L -36.1072,-39.5118 L -36.0269,-39.4525
 L -35.9447,-39.3957 L -35.8607,-39.3416 L -35.775,-39.2903 L -35.6877,-39.2418 L -35.5989,-39.1961 L -35.5086,-39.1533
 L -35.4171,-39.1134 L -35.3243,-39.0764 L -35.2303,-39.0425 L -35.1353,-39.0117 L -35.0394,-38.9839 L -34.9426,-38.9592
 L -34.8451,-38.9376 L -34.7469,-38.9193 L -34.6482,-38.904 L -34.549,-38.892 L -34.4495,-38.8831 L -34.3498,-38.8775
 L -34.25,-38.8751 L -34.225,-38.8753 L -34.225,-38.875 L -16.575,-38.875 z
M -25.4748,-46.1506 L -25.5744,-46.1533 L -25.674,-46.1581 L -25.7735,-46.165 L -25.8728,-46.1741 L -25.9719,-46.1853
 L -26.0707,-46.1986 L -26.1692,-46.2141 L -26.2674,-46.2316 L -26.3651,-46.2513 L -26.4625,-46.273 L -26.5593,-46.2968
 L -26.6556,-46.3227 L -26.7513,-46.3507 L -26.8464,-46.3807 L -26.9408,-46.4127 L -27.0345,-46.4467 L -27.1275,-46.4828
 L -27.2197,-46.5208 L -27.311,-46.5608 L -27.4015,-46.6028 L -27.491,-46.6467 L -27.5796,-46.6925 L -27.6672,-46.7402
 L -27.7537,-46.7897 L -27.8392,-46.8411 L -27.9235,-46.8943 L -28.0067,-46.9493 L -28.0886,-47.0061 L -28.1694,-47.0646
 L -28.2488,-47.1249 L -28.327,-47.1868 L -28.4038,-47.2504 L -28.4792,-47.3156 L -28.5532,-47.3824 L -28.6258,-47.4508
 L -28.6968,-47.5208 L -28.7664,-47.5922 L -28.8344,-47.6651 L -28.9008,-47.7395 L -28.9657,-47.8153 L -29.0288,-47.8924
 L -29.0903,-47.9709 L -29.1502,-48.0507 L -29.2083,-48.1317 L -29.2646,-48.214 L -29.3192,-48.2975 L -29.3719,-48.3821
 L -29.4228,-48.4678 L -29.4719,-48.5546 L -29.5191,-48.6424 L -29.5645,-48.7312 L -29.6078,-48.821 L -29.6493,-48.9117
 L -29.6888,-49.0033 L -29.7264,-49.0956 L -29.7619,-49.1888 L -29.7955,-49.2827 L -29.827,-49.3773 L -29.8565,-49.4725
 L -29.8839,-49.5684 L -29.9093,-49.6649 L -29.9326,-49.7618 L -29.9538,-49.8592 L -29.9729,-49.9571 L -29.99,-50.0553
 L -30.0049,-50.1539 L -30.0177,-50.2528 L -30.0284,-50.352 L -30.0369,-50.4513 L -30.0433,-50.5508 L -30.0476,-50.6505
 L -30.0497,-50.7501 L -30.0497,-50.8498 L -30.0476,-50.9495 L -30.0433,-51.0491 L -30.0369,-51.1487 L -30.0284,-51.248
 L -30.0177,-51.3472 L -30.0049,-51.446 L -29.99,-51.5446 L -29.9729,-51.6429 L -29.9538,-51.7407 L -29.9326,-51.8382
 L -29.9093,-51.9351 L -29.8839,-52.0316 L -29.8565,-52.1274 L -29.827,-52.2227 L -29.7955,-52.3173 L -29.7619,-52.4112
 L -29.7264,-52.5043 L -29.6888,-52.5967 L -29.6493,-52.6883 L -29.6078,-52.7789 L -29.5645,-52.8687 L -29.5191,-52.9576
 L -29.4719,-53.0454 L -29.4228,-53.1322 L -29.3719,-53.2179 L -29.3192,-53.3025 L -29.2646,-53.386 L -29.2083,-53.4682
 L -29.1502,-53.5493 L -29.0903,-53.6291 L -29.0288,-53.7076 L -28.9657,-53.7847 L -28.9008,-53.8605 L -28.8344,-53.9348
 L -28.7664,-54.0078 L -28.6968,-54.0792 L -28.6258,-54.1491 L -28.5532,-54.2175 L -28.4792,-54.2844 L -28.4038,-54.3496
 L -28.327,-54.4132 L -28.2488,-54.4751 L -28.1694,-54.5354 L -28.0886,-54.5939 L -28.0067,-54.6507 L -27.9235,-54.7057
 L -27.8392,-54.7589 L -27.7537,-54.8103 L -27.6672,-54.8598 L -27.5796,-54.9075 L -27.491,-54.9533 L -27.4015,-54.9972
 L -27.311,-55.0391 L -27.2197,-55.0791 L -27.1275,-55.1172 L -27.0345,-55.1532 L -26.9408,-55.1873 L -26.8464,-55.2193
 L -26.7513,-55.2493 L -26.6556,-55.2773 L -26.5593,-55.3031 L -26.4625,-55.327 L -26.3651,-55.3487 L -26.2674,-55.3684
 L -26.1692,-55.3859 L -26.0707,-55.4014 L -25.9719,-55.4147 L -25.8728,-55.4259 L -25.7735,-55.435 L -25.674,-55.4419
 L -25.5744,-55.4467 L -25.4748,-55.4494 L -25.3751,-55.4499 L -25.2754,-55.4483 L -25.1757,-55.4446 L -25.0762,-55.4387
 L -24.9768,-55.4307 L -24.8776,-55.4205 L -24.7786,-55.4083 L -24.68,-55.3939 L -24.5816,-55.3774 L -24.4837,-55.3588
 L -24.3861,-55.3381 L -24.289,-55.3153 L -24.1925,-55.2905 L -24.0965,-55.2635 L -24.0011,-55.2346 L -23.9063,-55.2035
 L -23.8122,-55.1705 L -23.7189,-55.1355 L -23.6263,-55.0984 L -23.5345,-55.0594 L -23.4436,-55.0184 L -23.3536,-54.9755
 L -23.2646,-54.9306 L -23.1765,-54.8839 L -23.0894,-54.8353 L -23.0034,-54.7848 L -22.9185,-54.7325 L -22.8348,-54.6784
 L -22.7522,-54.6225 L -22.6708,-54.5648 L -22.5907,-54.5054 L -22.5119,-54.4444 L -22.4344,-54.3816 L -22.3583,-54.3172
 L -22.2836,-54.2511 L -22.2103,-54.1835 L -22.1385,-54.1144 L -22.0682,-54.0437 L -21.9994,-53.9715 L -21.9322,-53.8978
 L -21.8665,-53.8228 L -21.8025,-53.7463 L -21.7402,-53.6685 L -21.6795,-53.5893 L -21.6206,-53.5089 L -21.5634,-53.4273
 L -21.5079,-53.3444 L -21.4542,-53.2603 L -21.4024,-53.1752 L -21.3524,-53.0889 L -21.3042,-53.0016 L -21.2579,-52.9133
 L -21.2136,-52.824 L -21.1712,-52.7337 L -21.1307,-52.6426 L -21.0921,-52.5506 L -21.0556,-52.4579 L -21.021,-52.3643
 L -20.9885,-52.2701 L -20.958,-52.1751 L -20.9295,-52.0796 L -20.9031,-51.9834 L -20.8788,-51.8867 L -20.8565,-51.7895
 L -20.8363,-51.6919 L -20.8183,-51.5938 L -20.8023,-51.4954 L -20.7884,-51.3966 L -20.7767,-51.2976 L -20.7671,-51.1983
 L -20.7596,-51.0989 L -20.7543,-50.9993 L -20.7511,-50.8997 L -20.75,-50.8 L -20.7511,-50.7003 L -20.7543,-50.6006
 L -20.7596,-50.5011 L -20.7671,-50.4016 L -20.7767,-50.3024 L -20.7884,-50.2034 L -20.8023,-50.1046 L -20.8183,-50.0062
 L -20.8363,-49.9081 L -20.8565,-49.8105 L -20.8788,-49.7133 L -20.9031,-49.6166 L -20.9295,-49.5204 L -20.958,-49.4249
 L -20.9885,-49.3299 L -21.021,-49.2357 L -21.0556,-49.1421 L -21.0921,-49.0493 L -21.1307,-48.9574 L -21.1712,-48.8663
 L -21.2136,-48.776 L -21.2579,-48.6867 L -21.3042,-48.5984 L -21.3524,-48.5111 L -21.4024,-48.4248 L -21.4542,-48.3396
 L -21.5079,-48.2556 L -21.5634,-48.1727 L -21.6206,-48.091 L -21.6795,-48.0106 L -21.7402,-47.9315 L -21.8025,-47.8537
 L -21.8665,-47.7772 L -21.9322,-47.7021 L -21.9994,-47.6285 L -22.0682,-47.5563 L -22.1385,-47.4856 L -22.2103,-47.4164
 L -22.2836,-47.3488 L -22.3583,-47.2828 L -22.4344,-47.2184 L -22.5119,-47.1556 L -22.5907,-47.0945 L -22.6708,-47.0351
 L -22.7522,-46.9775 L -22.8348,-46.9216 L -22.9185,-46.8675 L -23.0034,-46.8152 L -23.0894,-46.7647 L -23.1765,-46.7161
 L -23.2646,-46.6693 L -23.3536,-46.6245 L -23.4436,-46.5816 L -23.5345,-46.5406 L -23.6263,-46.5016 L -23.7189,-46.4645
 L -23.8122,-46.4295 L -23.9063,-46.3964 L -24.0011,-46.3654 L -24.0965,-46.3364 L -24.1925,-46.3095 L -24.289,-46.2847
 L -24.3861,-46.2619 L -24.4837,-46.2412 L -24.5816,-46.2226 L -24.68,-46.2061 L -24.7786,-46.1917 L -24.8776,-46.1794
 L -24.9768,-46.1693 L -25.0762,-46.1613 L -25.1757,-46.1554 L -25.2754,-46.1517 L -25.3751,-46.1501 z
M -41.975,-38.8753 L -41.9001,-38.8759 L -41.8003,-38.8799 L -41.7007,-38.8872 L -41.6013,-38.8976 L -41.5024,-38.9112
 L -41.4039,-38.9281 L -41.3061,-38.948 L -41.2089,-38.9711 L -41.1125,-38.9974 L -41.017,-39.0267 L -40.9226,-39.0591
 L -40.8292,-39.0945 L -40.737,-39.1329 L -40.646,-39.1743 L -40.5565,-39.2186 L -40.4684,-39.2657 L -40.3819,-39.3156
 L -40.2971,-39.3683 L -40.214,-39.4238 L -40.1327,-39.4818 L -40.0534,-39.5424 L -39.976,-39.6056 L -39.9007,-39.6712
 L -39.8275,-39.7393 L -39.7566,-39.8096 L -39.688,-39.8822 L -39.6218,-39.957 L -39.558,-40.0338 L -39.4967,-40.1127
 L -39.438,-40.1935 L -39.3819,-40.2762 L -39.3286,-40.3606 L -39.2779,-40.4467 L -39.2301,-40.5343 L -39.1851,-40.6235
 L -39.143,-40.7141 L -39.1039,-40.806 L -39.0677,-40.8991 L -39.0345,-40.9933 L -39.0044,-41.0886 L -38.9774,-41.1847
 L -38.9535,-41.2817 L -38.9328,-41.3794 L -38.9151,-41.4777 L -38.9007,-41.5766 L -38.8895,-41.6758 L -38.8814,-41.7754
 L -38.8766,-41.8751 L -38.875,-41.975 L -38.875,-59.625 L -38.8766,-59.7249 L -38.8814,-59.8246 L -38.8895,-59.9242
 L -38.9007,-60.0234 L -38.9151,-60.1223 L -38.9328,-60.2206 L -38.9535,-60.3183 L -38.9774,-60.4153 L -39.0044,-60.5114
 L -39.0345,-60.6066 L -39.0677,-60.7009 L -39.1039,-60.794 L -39.143,-60.8859 L -39.1851,-60.9764 L -39.2301,-61.0656
 L -39.2779,-61.1533 L -39.3286,-61.2394 L -39.3819,-61.3238 L -39.438,-61.4065 L -39.4967,-61.4873 L -39.558,-61.5661
 L -39.6218,-61.643 L -39.688,-61.7178 L -39.7566,-61.7904 L -39.8275,-61.8607 L -39.9007,-61.9287 L -39.976,-61.9944
 L -40.0534,-62.0575 L -40.1327,-62.1182 L -40.214,-62.1762 L -40.2971,-62.2316 L -40.3819,-62.2843 L -40.4684,-62.3343
 L -40.5565,-62.3814 L -40.646,-62.4257 L -40.737,-62.467 L -40.8292,-62.5054 L -40.9226,-62.5409 L -41.017,-62.5733
 L -41.1125,-62.6026 L -41.2089,-62.6288 L -41.3061,-62.6519 L -41.4039,-62.6719 L -41.5024,-62.6887 L -41.6013,-62.7024
 L -41.7007,-62.7128 L -41.8003,-62.72 L -41.9001,-62.7241 L -41.975,-62.7247 L -41.975,-62.725 L -59.625,-62.725
 L -59.625,-62.7247 L -59.6499,-62.7249 L -59.7498,-62.7225 L -59.8495,-62.7168 L -59.949,-62.708 L -60.0482,-62.696
 L -60.1469,-62.6807 L -60.2451,-62.6623 L -60.3426,-62.6408 L -60.4394,-62.6161 L -60.5353,-62.5883 L -60.6303,-62.5574
 L -60.7243,-62.5235 L -60.8171,-62.4866 L -60.9086,-62.4467 L -60.9989,-62.4039 L -61.0877,-62.3582 L -61.175,-62.3097
 L -61.2607,-62.2583 L -61.3447,-62.2043 L -61.4268,-62.1475 L -61.5072,-62.0882 L -61.5856,-62.0263 L -61.6619,-61.9619
 L -61.7361,-61.895 L -61.8082,-61.8258 L -61.8779,-61.7543 L -61.9454,-61.6807 L -62.0104,-61.6048 L -62.0729,-61.527
 L -62.1329,-61.4471 L -62.1903,-61.3654 L -62.2451,-61.2818 L -62.2971,-61.1965 L -62.3463,-61.1096 L -62.3927,-61.0212
 L -62.4363,-60.9313 L -62.4769,-60.8401 L -62.5146,-60.7476 L -62.5492,-60.6539 L -62.5809,-60.5592 L -62.6094,-60.4634
 L -62.6349,-60.3669 L -62.6572,-60.2695 L -62.6764,-60.1715 L -62.6924,-60.0729 L -62.7053,-59.9738 L -62.7149,-59.8744
 L -62.7214,-59.7747 L -62.7246,-59.6749 L -62.7246,-59.625 L -62.725,-59.625 L -62.725,-41.975 L -62.7246,-41.975
 L -62.7246,-41.925 L -62.7214,-41.8252 L -62.7149,-41.7256 L -62.7053,-41.6261 L -62.6924,-41.5271 L -62.6764,-41.4285
 L -62.6572,-41.3305 L -62.6349,-41.2331 L -62.6094,-41.1365 L -62.5809,-41.0408 L -62.5492,-40.9461 L -62.5146,-40.8524
 L -62.4769,-40.7599 L -62.4363,-40.6687 L -62.3927,-40.5788 L -62.3463,-40.4903 L -62.2971,-40.4034 L -62.2451,-40.3181
 L -62.1903,-40.2346 L -62.1329,-40.1529 L -62.0729,-40.073 L -62.0104,-39.9951 L -61.9454,-39.9193 L -61.8779,-39.8456
 L -61.8082,-39.7742 L -61.7361,-39.705 L -61.6619,-39.6381 L -61.5856,-39.5737 L -61.5072,-39.5118 L -61.4268,-39.4525
 L -61.3447,-39.3957 L -61.2607,-39.3416 L -61.175,-39.2903 L -61.0877,-39.2418 L -60.9989,-39.1961 L -60.9086,-39.1533
 L -60.8171,-39.1134 L -60.7243,-39.0764 L -60.6303,-39.0425 L -60.5353,-39.0117 L -60.4394,-38.9839 L -60.3426,-38.9592
 L -60.2451,-38.9376 L -60.1469,-38.9193 L -60.0482,-38.904 L -59.949,-38.892 L -59.8495,-38.8831 L -59.7498,-38.8775
 L -59.6499,-38.8751 L -59.625,-38.8753 L -59.625,-38.875 L -41.975,-38.875 z
M -50.8748,-46.1506 L -50.9744,-46.1533 L -51.074,-46.1581 L -51.1735,-46.165 L -51.2728,-46.1741 L -51.3719,-46.1853
 L -51.4707,-46.1986 L -51.5692,-46.2141 L -51.6674,-46.2316 L -51.7651,-46.2513 L -51.8625,-46.273 L -51.9593,-46.2968
 L -52.0556,-46.3227 L -52.1513,-46.3507 L -52.2464,-46.3807 L -52.3408,-46.4127 L -52.4345,-46.4467 L -52.5275,-46.4828
 L -52.6197,-46.5208 L -52.711,-46.5608 L -52.8015,-46.6028 L -52.891,-46.6467 L -52.9796,-46.6925 L -53.0672,-46.7402
 L -53.1537,-46.7897 L -53.2392,-46.8411 L -53.3235,-46.8943 L -53.4066,-46.9493 L -53.4886,-47.0061 L -53.5694,-47.0646
 L -53.6488,-47.1249 L -53.727,-47.1868 L -53.8038,-47.2504 L -53.8792,-47.3156 L -53.9532,-47.3824 L -54.0258,-47.4508
 L -54.0968,-47.5208 L -54.1664,-47.5922 L -54.2344,-47.6651 L -54.3008,-47.7395 L -54.3656,-47.8153 L -54.4288,-47.8924
 L -54.4903,-47.9709 L -54.5502,-48.0507 L -54.6082,-48.1317 L -54.6646,-48.214 L -54.7191,-48.2975 L -54.7719,-48.3821
 L -54.8228,-48.4678 L -54.8719,-48.5546 L -54.9191,-48.6424 L -54.9644,-48.7312 L -55.0078,-48.821 L -55.0493,-48.9117
 L -55.0888,-49.0033 L -55.1264,-49.0956 L -55.1619,-49.1888 L -55.1955,-49.2827 L -55.227,-49.3773 L -55.2565,-49.4725
 L -55.2839,-49.5684 L -55.3093,-49.6649 L -55.3326,-49.7618 L -55.3538,-49.8592 L -55.3729,-49.9571 L -55.39,-50.0553
 L -55.4049,-50.1539 L -55.4177,-50.2528 L -55.4283,-50.352 L -55.4369,-50.4513 L -55.4433,-50.5508 L -55.4476,-50.6505
 L -55.4497,-50.7501 L -55.4497,-50.8498 L -55.4476,-50.9495 L -55.4433,-51.0491 L -55.4369,-51.1487 L -55.4283,-51.248
 L -55.4177,-51.3472 L -55.4049,-51.446 L -55.39,-51.5446 L -55.3729,-51.6429 L -55.3538,-51.7407 L -55.3326,-51.8382
 L -55.3093,-51.9351 L -55.2839,-52.0316 L -55.2565,-52.1274 L -55.227,-52.2227 L -55.1955,-52.3173 L -55.1619,-52.4112
 L -55.1264,-52.5043 L -55.0888,-52.5967 L -55.0493,-52.6883 L -55.0078,-52.7789 L -54.9644,-52.8687 L -54.9191,-52.9576
 L -54.8719,-53.0454 L -54.8228,-53.1322 L -54.7719,-53.2179 L -54.7191,-53.3025 L -54.6646,-53.386 L -54.6082,-53.4682
 L -54.5502,-53.5493 L -54.4903,-53.6291 L -54.4288,-53.7076 L -54.3656,-53.7847 L -54.3008,-53.8605 L -54.2344,-53.9348
 L -54.1664,-54.0078 L -54.0968,-54.0792 L -54.0258,-54.1491 L -53.9532,-54.2175 L -53.8792,-54.2844 L -53.8038,-54.3496
 L -53.727,-54.4132 L -53.6488,-54.4751 L -53.5694,-54.5354 L -53.4886,-54.5939 L -53.4066,-54.6507 L -53.3235,-54.7057
 L -53.2392,-54.7589 L -53.1537,-54.8103 L -53.0672,-54.8598 L -52.9796,-54.9075 L -52.891,-54.9533 L -52.8015,-54.9972
 L -52.711,-55.0391 L -52.6197,-55.0791 L -52.5275,-55.1172 L -52.4345,-55.1532 L -52.3408,-55.1873 L -52.2464,-55.2193
 L -52.1513,-55.2493 L -52.0556,-55.2773 L -51.9593,-55.3031 L -51.8625,-55.327 L -51.7651,-55.3487 L -51.6674,-55.3684
 L -51.5692,-55.3859 L -51.4707,-55.4014 L -51.3719,-55.4147 L -51.2728,-55.4259 L -51.1735,-55.435 L -51.074,-55.4419
 L -50.9744,-55.4467 L -50.8748,-55.4494 L -50.7751,-55.4499 L -50.6754,-55.4483 L -50.5757,-55.4446 L -50.4762,-55.4387
 L -50.3768,-55.4307 L -50.2776,-55.4205 L -50.1786,-55.4083 L -50.08,-55.3939 L -49.9816,-55.3774 L -49.8837,-55.3588
 L -49.7861,-55.3381 L -49.689,-55.3153 L -49.5925,-55.2905 L -49.4965,-55.2635 L -49.401,-55.2346 L -49.3063,-55.2035
 L -49.2122,-55.1705 L -49.1189,-55.1355 L -49.0263,-55.0984 L -48.9345,-55.0594 L -48.8436,-55.0184 L -48.7536,-54.9755
 L -48.6646,-54.9306 L -48.5765,-54.8839 L -48.4894,-54.8353 L -48.4034,-54.7848 L -48.3185,-54.7325 L -48.2348,-54.6784
 L -48.1522,-54.6225 L -48.0708,-54.5648 L -47.9907,-54.5054 L -47.9119,-54.4444 L -47.8344,-54.3816 L -47.7583,-54.3172
 L -47.6836,-54.2511 L -47.6103,-54.1835 L -47.5385,-54.1144 L -47.4682,-54.0437 L -47.3994,-53.9715 L -47.3322,-53.8978
 L -47.2665,-53.8228 L -47.2025,-53.7463 L -47.1402,-53.6685 L -47.0795,-53.5893 L -47.0206,-53.5089 L -46.9633,-53.4273
 L -46.9079,-53.3444 L -46.8542,-53.2603 L -46.8024,-53.1752 L -46.7524,-53.0889 L -46.7042,-53.0016 L -46.6579,-52.9133
 L -46.6136,-52.824 L -46.5712,-52.7337 L -46.5307,-52.6426 L -46.4921,-52.5506 L -46.4556,-52.4579 L -46.421,-52.3643
 L -46.3885,-52.2701 L -46.358,-52.1751 L -46.3295,-52.0796 L -46.3031,-51.9834 L -46.2788,-51.8867 L -46.2565,-51.7895
 L -46.2363,-51.6919 L -46.2183,-51.5938 L -46.2023,-51.4954 L -46.1884,-51.3966 L -46.1767,-51.2976 L -46.1671,-51.1983
 L -46.1596,-51.0989 L -46.1543,-50.9993 L -46.1511,-50.8997 L -46.15,-50.8 L -46.1511,-50.7003 L -46.1543,-50.6006
 L -46.1596,-50.5011 L -46.1671,-50.4016 L -46.1767,-50.3024 L -46.1884,-50.2034 L -46.2023,-50.1046 L -46.2183,-50.0062
 L -46.2363,-49.9081 L -46.2565,-49.8105 L -46.2788,-49.7133 L -46.3031,-49.6166 L -46.3295,-49.5204 L -46.358,-49.4249
 L -46.3885,-49.3299 L -46.421,-49.2357 L -46.4556,-49.1421 L -46.4921,-49.0493 L -46.5307,-48.9574 L -46.5712,-48.8663
 L -46.6136,-48.776 L -46.6579,-48.6867 L -46.7042,-48.5984 L -46.7524,-48.5111 L -46.8024,-48.4248 L -46.8542,-48.3396
 L -46.9079,-48.2556 L -46.9633,-48.1727 L -47.0206,-48.091 L -47.0795,-48.0106 L -47.1402,-47.9315 L -47.2025,-47.8537
 L -47.2665,-47.7772 L -47.3322,-47.7021 L -47.3994,-47.6285 L -47.4682,-47.5563 L -47.5385,-47.4856 L -47.6103,-47.4164
 L -47.6836,-47.3488 L -47.7583,-47.2828 L -47.8344,-47.2184 L -47.9119,-47.1556 L -47.9907,-47.0945 L -48.0708,-47.0351
 L -48.1522,-46.9775 L -48.2348,-46.9216 L -48.3185,-46.8675 L -48.4034,-46.8152 L -48.4894,-46.7647 L -48.5765,-46.7161
 L -48.6646,-46.6693 L -48.7536,-46.6245 L -48.8436,-46.5816 L -48.9345,-46.5406 L -49.0263,-46.5016 L -49.1189,-46.4645
 L -49.2122,-46.4295 L -49.3063,-46.3964 L -49.401,-46.3654 L -49.4965,-46.3364 L -49.5925,-46.3095 L -49.689,-46.2847
 L -49.7861,-46.2619 L -49.8837,-46.2412 L -49.9816,-46.2226 L -50.08,-46.2061 L -50.1786,-46.1917 L -50.2776,-46.1794
 L -50.3768,-46.1693 L -50.4762,-46.1613 L -50.5757,-46.1554 L -50.6754,-46.1517 L -50.7751,-46.1501 z
M -67.375,-38.8753 L -67.3001,-38.8759 L -67.2003,-38.8799 L -67.1007,-38.8872 L -67.0013,-38.8976 L -66.9024,-38.9112
 L -66.8039,-38.9281 L -66.7061,-38.948 L -66.6089,-38.9711 L -66.5125,-38.9974 L -66.4171,-39.0267 L -66.3226,-39.0591
 L -66.2292,-39.0945 L -66.137,-39.1329 L -66.0461,-39.1743 L -65.9565,-39.2186 L -65.8685,-39.2657 L -65.782,-39.3156
 L -65.6971,-39.3683 L -65.614,-39.4238 L -65.5327,-39.4818 L -65.4534,-39.5424 L -65.376,-39.6056 L -65.3007,-39.6712
 L -65.2276,-39.7393 L -65.1566,-39.8096 L -65.088,-39.8822 L -65.0218,-39.957 L -64.958,-40.0338 L -64.8967,-40.1127
 L -64.838,-40.1935 L -64.782,-40.2762 L -64.7286,-40.3606 L -64.6779,-40.4467 L -64.6301,-40.5343 L -64.5851,-40.6235
 L -64.543,-40.7141 L -64.5039,-40.806 L -64.4677,-40.8991 L -64.4345,-40.9933 L -64.4044,-41.0886 L -64.3774,-41.1847
 L -64.3535,-41.2817 L -64.3328,-41.3794 L -64.3152,-41.4777 L -64.3007,-41.5766 L -64.2895,-41.6758 L -64.2814,-41.7754
 L -64.2766,-41.8751 L -64.275,-41.975 L -64.275,-59.625 L -64.2766,-59.7249 L -64.2814,-59.8246 L -64.2895,-59.9242
 L -64.3007,-60.0234 L -64.3152,-60.1223 L -64.3328,-60.2206 L -64.3535,-60.3183 L -64.3774,-60.4153 L -64.4044,-60.5114
 L -64.4345,-60.6066 L -64.4677,-60.7009 L -64.5039,-60.794 L -64.543,-60.8859 L -64.5851,-60.9764 L -64.6301,-61.0656
 L -64.6779,-61.1533 L -64.7286,-61.2394 L -64.782,-61.3238 L -64.838,-61.4065 L -64.8967,-61.4873 L -64.958,-61.5661
 L -65.0218,-61.643 L -65.088,-61.7178 L -65.1566,-61.7904 L -65.2276,-61.8607 L -65.3007,-61.9287 L -65.376,-61.9944
 L -65.4534,-62.0575 L -65.5327,-62.1182 L -65.614,-62.1762 L -65.6971,-62.2316 L -65.782,-62.2843 L -65.8685,-62.3343
 L -65.9565,-62.3814 L -66.0461,-62.4257 L -66.137,-62.467 L -66.2292,-62.5054 L -66.3226,-62.5409 L -66.4171,-62.5733
 L -66.5125,-62.6026 L -66.6089,-62.6288 L -66.7061,-62.6519 L -66.8039,-62.6719 L -66.9024,-62.6887 L -67.0013,-62.7024
 L -67.1007,-62.7128 L -67.2003,-62.72 L -67.3001,-62.7241 L -67.375,-62.7247 L -67.375,-62.725 L -85.025,-62.725
 L -85.025,-62.7247 L -85.05,-62.7249 L -85.1498,-62.7225 L -85.2495,-62.7168 L -85.349,-62.708 L -85.4482,-62.696
 L -85.5469,-62.6807 L -85.6451,-62.6623 L -85.7426,-62.6408 L -85.8394,-62.6161 L -85.9353,-62.5883 L -86.0303,-62.5574
 L -86.1243,-62.5235 L -86.2171,-62.4866 L -86.3086,-62.4467 L -86.3989,-62.4039 L -86.4877,-62.3582 L -86.575,-62.3097
 L -86.6607,-62.2583 L -86.7447,-62.2043 L -86.8269,-62.1475 L -86.9072,-62.0882 L -86.9856,-62.0263 L -87.0619,-61.9619
 L -87.1361,-61.895 L -87.2082,-61.8258 L -87.2779,-61.7543 L -87.3454,-61.6807 L -87.4104,-61.6048 L -87.4729,-61.527
 L -87.5329,-61.4471 L -87.5903,-61.3654 L -87.6451,-61.2818 L -87.6971,-61.1965 L -87.7463,-61.1096 L -87.7928,-61.0212
 L -87.8363,-60.9313 L -87.8769,-60.8401 L -87.9146,-60.7476 L -87.9492,-60.6539 L -87.9809,-60.5592 L -88.0094,-60.4634
 L -88.0349,-60.3669 L -88.0573,-60.2695 L -88.0764,-60.1715 L -88.0925,-60.0729 L -88.1053,-59.9738 L -88.1149,-59.8744
 L -88.1214,-59.7747 L -88.1246,-59.6749 L -88.1246,-59.625 L -88.125,-59.625 L -88.125,-41.975 L -88.1246,-41.975
 L -88.1246,-41.925 L -88.1214,-41.8252 L -88.1149,-41.7256 L -88.1053,-41.6261 L -88.0925,-41.5271 L -88.0764,-41.4285
 L -88.0573,-41.3305 L -88.0349,-41.2331 L -88.0094,-41.1365 L -87.9809,-41.0408 L -87.9492,-40.9461 L -87.9146,-40.8524
 L -87.8769,-40.7599 L -87.8363,-40.6687 L -87.7928,-40.5788 L -87.7463,-40.4903 L -87.6971,-40.4034 L -87.6451,-40.3181
 L -87.5903,-40.2346 L -87.5329,-40.1529 L -87.4729,-40.073 L -87.4104,-39.9951 L -87.3454,-39.9193 L -87.2779,-39.8456
 L -87.2082,-39.7742 L -87.1361,-39.705 L -87.0619,-39.6381 L -86.9856,-39.5737 L -86.9072,-39.5118 L -86.8269,-39.4525
 L -86.7447,-39.3957 L -86.6607,-39.3416 L -86.575,-39.2903 L -86.4877,-39.2418 L -86.3989,-39.1961 L -86.3086,-39.1533
 L -86.2171,-39.1134 L -86.1243,-39.0764 L -86.0303,-39.0425 L -85.9353,-39.0117 L -85.8394,-38.9839 L -85.7426,-38.9592
 L -85.6451,-38.9376 L -85.5469,-38.9193 L -85.4482,-38.904 L -85.349,-38.892 L -85.2495,-38.8831 L -85.1498,-38.8775
 L -85.05,-38.8751 L -85.025,-38.8753 L -85.025,-38.875 L -67.375,-38.875 z
M -76.2748,-46.1506 L -76.3745,-46.1533 L -76.474,-46.1581 L -76.5735,-46.165 L -76.6728,-46.1741 L -76.7719,-46.1853
 L -76.8707,-46.1986 L -76.9692,-46.2141 L -77.0674,-46.2316 L -77.1651,-46.2513 L -77.2625,-46.273 L -77.3593,-46.2968
 L -77.4556,-46.3227 L -77.5513,-46.3507 L -77.6464,-46.3807 L -77.7408,-46.4127 L -77.8345,-46.4467 L -77.9275,-46.4828
 L -78.0197,-46.5208 L -78.111,-46.5608 L -78.2015,-46.6028 L -78.291,-46.6467 L -78.3796,-46.6925 L -78.4672,-46.7402
 L -78.5537,-46.7897 L -78.6392,-46.8411 L -78.7235,-46.8943 L -78.8067,-46.9493 L -78.8886,-47.0061 L -78.9694,-47.0646
 L -79.0488,-47.1249 L -79.127,-47.1868 L -79.2038,-47.2504 L -79.2792,-47.3156 L -79.3532,-47.3824 L -79.4258,-47.4508
 L -79.4968,-47.5208 L -79.5664,-47.5922 L -79.6344,-47.6651 L -79.7008,-47.7395 L -79.7657,-47.8153 L -79.8288,-47.8924
 L -79.8904,-47.9709 L -79.9502,-48.0507 L -80.0083,-48.1317 L -80.0646,-48.214 L -80.1192,-48.2975 L -80.1719,-48.3821
 L -80.2228,-48.4678 L -80.2719,-48.5546 L -80.3191,-48.6424 L -80.3645,-48.7312 L -80.4079,-48.821 L -80.4493,-48.9117
 L -80.4888,-49.0033 L -80.5264,-49.0956 L -80.5619,-49.1888 L -80.5955,-49.2827 L -80.627,-49.3773 L -80.6565,-49.4725
 L -80.6839,-49.5684 L -80.7093,-49.6649 L -80.7326,-49.7618 L -80.7538,-49.8592 L -80.7729,-49.9571 L -80.79,-50.0553
 L -80.8049,-50.1539 L -80.8177,-50.2528 L -80.8284,-50.352 L -80.8369,-50.4513 L -80.8433,-50.5508 L -80.8476,-50.6505
 L -80.8497,-50.7501 L -80.8497,-50.8498 L -80.8476,-50.9495 L -80.8433,-51.0491 L -80.8369,-51.1487 L -80.8284,-51.248
 L -80.8177,-51.3472 L -80.8049,-51.446 L -80.79,-51.5446 L -80.7729,-51.6429 L -80.7538,-51.7407 L -80.7326,-51.8382
 L -80.7093,-51.9351 L -80.6839,-52.0316 L -80.6565,-52.1274 L -80.627,-52.2227 L -80.5955,-52.3173 L -80.5619,-52.4112
 L -80.5264,-52.5043 L -80.4888,-52.5967 L -80.4493,-52.6883 L -80.4079,-52.7789 L -80.3645,-52.8687 L -80.3191,-52.9576
 L -80.2719,-53.0454 L -80.2228,-53.1322 L -80.1719,-53.2179 L -80.1192,-53.3025 L -80.0646,-53.386 L -80.0083,-53.4682
 L -79.9502,-53.5493 L -79.8904,-53.6291 L -79.8288,-53.7076 L -79.7657,-53.7847 L -79.7008,-53.8605 L -79.6344,-53.9348
 L -79.5664,-54.0078 L -79.4968,-54.0792 L -79.4258,-54.1491 L -79.3532,-54.2175 L -79.2792,-54.2844 L -79.2038,-54.3496
 L -79.127,-54.4132 L -79.0488,-54.4751 L -78.9694,-54.5354 L -78.8886,-54.5939 L -78.8067,-54.6507 L -78.7235,-54.7057
 L -78.6392,-54.7589 L -78.5537,-54.8103 L -78.4672,-54.8598 L -78.3796,-54.9075 L -78.291,-54.9533 L -78.2015,-54.9972
 L -78.111,-55.0391 L -78.0197,-55.0791 L -77.9275,-55.1172 L -77.8345,-55.1532 L -77.7408,-55.1873 L -77.6464,-55.2193
 L -77.5513,-55.2493 L -77.4556,-55.2773 L -77.3593,-55.3031 L -77.2625,-55.327 L -77.1651,-55.3487 L -77.0674,-55.3684
 L -76.9692,-55.3859 L -76.8707,-55.4014 L -76.7719,-55.4147 L -76.6728,-55.4259 L -76.5735,-55.435 L -76.474,-55.4419
 L -76.3745,-55.4467 L -76.2748,-55.4494 L -76.1751,-55.4499 L -76.0754,-55.4483 L -75.9757,-55.4446 L -75.8762,-55.4387
 L -75.7768,-55.4307 L -75.6776,-55.4205 L -75.5786,-55.4083 L -75.48,-55.3939 L -75.3816,-55.3774 L -75.2837,-55.3588
 L -75.1861,-55.3381 L -75.0891,-55.3153 L -74.9925,-55.2905 L -74.8965,-55.2635 L -74.8011,-55.2346 L -74.7063,-55.2035
 L -74.6122,-55.1705 L -74.5189,-55.1355 L -74.4263,-55.0984 L -74.3345,-55.0594 L -74.2436,-55.0184 L -74.1536,-54.9755
 L -74.0646,-54.9306 L -73.9765,-54.8839 L -73.8894,-54.8353 L -73.8034,-54.7848 L -73.7185,-54.7325 L -73.6348,-54.6784
 L -73.5522,-54.6225 L -73.4708,-54.5648 L -73.3907,-54.5054 L -73.3119,-54.4444 L -73.2345,-54.3816 L -73.1583,-54.3172
 L -73.0836,-54.2511 L -73.0103,-54.1835 L -72.9385,-54.1144 L -72.8682,-54.0437 L -72.7994,-53.9715 L -72.7322,-53.8978
 L -72.6665,-53.8228 L -72.6025,-53.7463 L -72.5402,-53.6685 L -72.4795,-53.5893 L -72.4206,-53.5089 L -72.3634,-53.4273
 L -72.3079,-53.3444 L -72.2542,-53.2603 L -72.2024,-53.1752 L -72.1524,-53.0889 L -72.1042,-53.0016 L -72.058,-52.9133
 L -72.0136,-52.824 L -71.9712,-52.7337 L -71.9307,-52.6426 L -71.8921,-52.5506 L -71.8556,-52.4579 L -71.821,-52.3643
 L -71.7885,-52.2701 L -71.758,-52.1751 L -71.7295,-52.0796 L -71.7031,-51.9834 L -71.6788,-51.8867 L -71.6565,-51.7895
 L -71.6363,-51.6919 L -71.6183,-51.5938 L -71.6023,-51.4954 L -71.5884,-51.3966 L -71.5767,-51.2976 L -71.5671,-51.1983
 L -71.5596,-51.0989 L -71.5543,-50.9993 L -71.5511,-50.8997 L -71.55,-50.8 L -71.5511,-50.7003 L -71.5543,-50.6006
 L -71.5596,-50.5011 L -71.5671,-50.4016 L -71.5767,-50.3024 L -71.5884,-50.2034 L -71.6023,-50.1046 L -71.6183,-50.0062
 L -71.6363,-49.9081 L -71.6565,-49.8105 L -71.6788,-49.7133 L -71.7031,-49.6166 L -71.7295,-49.5204 L -71.758,-49.4249
 L -71.7885,-49.3299 L -71.821,-49.2357 L -71.8556,-49.1421 L -71.8921,-49.0493 L -71.9307,-48.9574 L -71.9712,-48.8663
 L -72.0136,-48.776 L -72.058,-48.6867 L -72.1042,-48.5984 L -72.1524,-48.5111 L -72.2024,-48.4248 L -72.2542,-48.3396
 L -72.3079,-48.2556 L -72.3634,-48.1727 L -72.4206,-48.091 L -72.4795,-48.0106 L -72.5402,-47.9315 L -72.6025,-47.8537
 L -72.6665,-47.7772 L -72.7322,-47.7021 L -72.7994,-47.6285 L -72.8682,-47.5563 L -72.9385,-47.4856 L -73.0103,-47.4164
 L -73.0836,-47.3488 L -73.1583,-47.2828 L -73.2345,-47.2184 L -73.3119,-47.1556 L -73.3907,-47.0945 L -73.4708,-47.0351
 L -73.5522,-46.9775 L -73.6348,-46.9216 L -73.7185,-46.8675 L -73.8034,-46.8152 L -73.8894,-46.7647 L -73.9765,-46.7161
 L -74.0646,-46.6693 L -74.1536,-46.6245 L -74.2436,-46.5816 L -74.3345,-46.5406 L -74.4263,-46.5016 L -74.5189,-46.4645
 L -74.6122,-46.4295 L -74.7063,-46.3964 L -74.8011,-46.3654 L -74.8965,-46.3364 L -74.9925,-46.3095 L -75.0891,-46.2847
 L -75.1861,-46.2619 L -75.2837,-46.2412 L -75.3816,-46.2226 L -75.48,-46.2061 L -75.5786,-46.1917 L -75.6776,-46.1794
 L -75.7768,-46.1693 L -75.8762,-46.1613 L -75.9757,-46.1554 L -76.0754,-46.1517 L -76.1751,-46.1501 z
M -41.975,-13.4753 L -41.9001,-13.4759 L -41.8003,-13.4799 L -41.7007,-13.4872 L -41.6013,-13.4976 L -41.5024,-13.5112
 L -41.4039,-13.5281 L -41.3061,-13.548 L -41.2089,-13.5712 L -41.1125,-13.5974 L -41.017,-13.6267 L -40.9226,-13.6591
 L -40.8292,-13.6945 L -40.737,-13.7329 L -40.646,-13.7743 L -40.5565,-13.8186 L -40.4684,-13.8657 L -40.3819,-13.9156
 L -40.2971,-13.9683 L -40.214,-14.0238 L -40.1327,-14.0818 L -40.0534,-14.1425 L -39.976,-14.2056 L -39.9007,-14.2713
 L -39.8275,-14.3393 L -39.7566,-14.4096 L -39.688,-14.4822 L -39.6218,-14.557 L -39.558,-14.6338 L -39.4967,-14.7127
 L -39.438,-14.7935 L -39.3819,-14.8762 L -39.3286,-14.9606 L -39.2779,-15.0467 L -39.2301,-15.1344 L -39.1851,-15.2235
 L -39.143,-15.3141 L -39.1039,-15.406 L -39.0677,-15.4991 L -39.0345,-15.5933 L -39.0044,-15.6886 L -38.9774,-15.7847
 L -38.9535,-15.8817 L -38.9328,-15.9794 L -38.9151,-16.0777 L -38.9007,-16.1766 L -38.8895,-16.2758 L -38.8814,-16.3754
 L -38.8766,-16.4751 L -38.875,-16.575 L -38.875,-34.225 L -38.8766,-34.3249 L -38.8814,-34.4246 L -38.8895,-34.5242
 L -38.9007,-34.6234 L -38.9151,-34.7223 L -38.9328,-34.8206 L -38.9535,-34.9183 L -38.9774,-35.0153 L -39.0044,-35.1114
 L -39.0345,-35.2066 L -39.0677,-35.3009 L -39.1039,-35.394 L -39.143,-35.4859 L -39.1851,-35.5764 L -39.2301,-35.6656
 L -39.2779,-35.7533 L -39.3286,-35.8394 L -39.3819,-35.9238 L -39.438,-36.0065 L -39.4967,-36.0873 L -39.558,-36.1662
 L -39.6218,-36.243 L -39.688,-36.3178 L -39.7566,-36.3904 L -39.8275,-36.4607 L -39.9007,-36.5287 L -39.976,-36.5944
 L -40.0534,-36.6575 L -40.1327,-36.7182 L -40.214,-36.7762 L -40.2971,-36.8316 L -40.3819,-36.8844 L -40.4684,-36.9343
 L -40.5565,-36.9814 L -40.646,-37.0257 L -40.737,-37.067 L -40.8292,-37.1055 L -40.9226,-37.1409 L -41.017,-37.1733
 L -41.1125,-37.2026 L -41.2089,-37.2288 L -41.3061,-37.252 L -41.4039,-37.2719 L -41.5024,-37.2887 L -41.6013,-37.3024
 L -41.7007,-37.3128 L -41.8003,-37.3201 L -41.9001,-37.3241 L -41.975,-37.3247 L -41.975,-37.325 L -59.625,-37.325
 L -59.625,-37.3247 L -59.6499,-37.3249 L -59.7498,-37.3225 L -59.8495,-37.3168 L -59.949,-37.308 L -60.0482,-37.296
 L -60.1469,-37.2807 L -60.2451,-37.2623 L -60.3426,-37.2408 L -60.4394,-37.2161 L -60.5353,-37.1883 L -60.6303,-37.1574
 L -60.7243,-37.1235 L -60.8171,-37.0866 L -60.9086,-37.0467 L -60.9989,-37.0039 L -61.0877,-36.9582 L -61.175,-36.9097
 L -61.2607,-36.8583 L -61.3447,-36.8043 L -61.4268,-36.7475 L -61.5072,-36.6882 L -61.5856,-36.6263 L -61.6619,-36.5619
 L -61.7361,-36.495 L -61.8082,-36.4258 L -61.8779,-36.3544 L -61.9454,-36.2807 L -62.0104,-36.2048 L -62.0729,-36.127
 L -62.1329,-36.0471 L -62.1903,-35.9654 L -62.2451,-35.8818 L -62.2971,-35.7966 L -62.3463,-35.7097 L -62.3927,-35.6212
 L -62.4363,-35.5313 L -62.4769,-35.4401 L -62.5146,-35.3476 L -62.5492,-35.2539 L -62.5809,-35.1592 L -62.6094,-35.0634
 L -62.6349,-34.9669 L -62.6572,-34.8695 L -62.6764,-34.7715 L -62.6924,-34.6729 L -62.7053,-34.5739 L -62.7149,-34.4744
 L -62.7214,-34.3748 L -62.7246,-34.2749 L -62.7246,-34.225 L -62.725,-34.225 L -62.725,-16.575 L -62.7246,-16.575
 L -62.7246,-16.5251 L -62.7214,-16.4252 L -62.7149,-16.3256 L -62.7053,-16.2261 L -62.6924,-16.1271 L -62.6764,-16.0285
 L -62.6572,-15.9305 L -62.6349,-15.8331 L -62.6094,-15.7365 L -62.5809,-15.6408 L -62.5492,-15.5461 L -62.5146,-15.4524
 L -62.4769,-15.3599 L -62.4363,-15.2687 L -62.3927,-15.1788 L -62.3463,-15.0903 L -62.2971,-15.0034 L -62.2451,-14.9182
 L -62.1903,-14.8346 L -62.1329,-14.7529 L -62.0729,-14.673 L -62.0104,-14.5951 L -61.9454,-14.5193 L -61.8779,-14.4456
 L -61.8082,-14.3742 L -61.7361,-14.305 L -61.6619,-14.2381 L -61.5856,-14.1737 L -61.5072,-14.1118 L -61.4268,-14.0525
 L -61.3447,-13.9957 L -61.2607,-13.9417 L -61.175,-13.8903 L -61.0877,-13.8418 L -60.9989,-13.7961 L -60.9086,-13.7533
 L -60.8171,-13.7134 L -60.7243,-13.6765 L -60.6303,-13.6425 L -60.5353,-13.6117 L -60.4394,-13.5839 L -60.3426,-13.5592
 L -60.2451,-13.5376 L -60.1469,-13.5193 L -60.0482,-13.504 L -59.949,-13.492 L -59.8495,-13.4831 L -59.7498,-13.4775
 L -59.6499,-13.4751 L -59.625,-13.4753 L -59.625,-13.475 L -41.975,-13.475 z
M -50.8748,-20.7506 L -50.9744,-20.7533 L -51.074,-20.7581 L -51.1735,-20.765 L -51.2728,-20.7741 L -51.3719,-20.7853
 L -51.4707,-20.7986 L -51.5692,-20.8141 L -51.6674,-20.8316 L -51.7651,-20.8513 L -51.8625,-20.873 L -51.9593,-20.8968
 L -52.0556,-20.9227 L -52.1513,-20.9507 L -52.2464,-20.9807 L -52.3408,-21.0127 L -52.4345,-21.0468 L -52.5275,-21.0828
 L -52.6197,-21.1208 L -52.711,-21.1608 L -52.8015,-21.2028 L -52.891,-21.2467 L -52.9796,-21.2925 L -53.0672,-21.3402
 L -53.1537,-21.3897 L -53.2392,-21.4411 L -53.3235,-21.4943 L -53.4066,-21.5493 L -53.4886,-21.6061 L -53.5694,-21.6646
 L -53.6488,-21.7249 L -53.727,-21.7868 L -53.8038,-21.8504 L -53.8792,-21.9156 L -53.9532,-21.9824 L -54.0258,-22.0508
 L -54.0968,-22.1208 L -54.1664,-22.1922 L -54.2344,-22.2652 L -54.3008,-22.3395 L -54.3656,-22.4153 L -54.4288,-22.4924
 L -54.4903,-22.5709 L -54.5502,-22.6507 L -54.6082,-22.7317 L -54.6646,-22.814 L -54.7191,-22.8975 L -54.7719,-22.9821
 L -54.8228,-23.0678 L -54.8719,-23.1546 L -54.9191,-23.2424 L -54.9644,-23.3313 L -55.0078,-23.421 L -55.0493,-23.5117
 L -55.0888,-23.6033 L -55.1264,-23.6956 L -55.1619,-23.7888 L -55.1955,-23.8827 L -55.227,-23.9773 L -55.2565,-24.0726
 L -55.2839,-24.1684 L -55.3093,-24.2649 L -55.3326,-24.3618 L -55.3538,-24.4592 L -55.3729,-24.5571 L -55.39,-24.6553
 L -55.4049,-24.7539 L -55.4177,-24.8528 L -55.4283,-24.952 L -55.4369,-25.0513 L -55.4433,-25.1508 L -55.4476,-25.2505
 L -55.4497,-25.3501 L -55.4497,-25.4498 L -55.4476,-25.5495 L -55.4433,-25.6492 L -55.4369,-25.7487 L -55.4283,-25.848
 L -55.4177,-25.9472 L -55.4049,-26.0461 L -55.39,-26.1446 L -55.3729,-26.2429 L -55.3538,-26.3407 L -55.3326,-26.4382
 L -55.3093,-26.5351 L -55.2839,-26.6316 L -55.2565,-26.7274 L -55.227,-26.8227 L -55.1955,-26.9173 L -55.1619,-27.0112
 L -55.1264,-27.1043 L -55.0888,-27.1967 L -55.0493,-27.2883 L -55.0078,-27.379 L -54.9644,-27.4687 L -54.9191,-27.5576
 L -54.8719,-27.6454 L -54.8228,-27.7322 L -54.7719,-27.8179 L -54.7191,-27.9025 L -54.6646,-27.986 L -54.6082,-28.0683
 L -54.5502,-28.1493 L -54.4903,-28.2291 L -54.4288,-28.3076 L -54.3656,-28.3847 L -54.3008,-28.4605 L -54.2344,-28.5348
 L -54.1664,-28.6078 L -54.0968,-28.6792 L -54.0258,-28.7491 L -53.9532,-28.8176 L -53.8792,-28.8844 L -53.8038,-28.9496
 L -53.727,-29.0132 L -53.6488,-29.0751 L -53.5694,-29.1354 L -53.4886,-29.1939 L -53.4066,-29.2507 L -53.3235,-29.3057
 L -53.2392,-29.3589 L -53.1537,-29.4103 L -53.0672,-29.4598 L -52.9796,-29.5075 L -52.891,-29.5533 L -52.8015,-29.5972
 L -52.711,-29.6391 L -52.6197,-29.6791 L -52.5275,-29.7172 L -52.4345,-29.7532 L -52.3408,-29.7873 L -52.2464,-29.8193
 L -52.1513,-29.8493 L -52.0556,-29.8773 L -51.9593,-29.9032 L -51.8625,-29.927 L -51.7651,-29.9487 L -51.6674,-29.9684
 L -51.5692,-29.9859 L -51.4707,-30.0014 L -51.3719,-30.0147 L -51.2728,-30.0259 L -51.1735,-30.035 L -51.074,-30.0419
 L -50.9744,-30.0467 L -50.8748,-30.0494 L -50.7751,-30.0499 L -50.6754,-30.0483 L -50.5757,-30.0446 L -50.4762,-30.0387
 L -50.3768,-30.0307 L -50.2776,-30.0206 L -50.1786,-30.0083 L -50.08,-29.9939 L -49.9816,-29.9774 L -49.8837,-29.9588
 L -49.7861,-29.9381 L -49.689,-29.9153 L -49.5925,-29.8905 L -49.4965,-29.8635 L -49.401,-29.8346 L -49.3063,-29.8035
 L -49.2122,-29.7705 L -49.1189,-29.7355 L -49.0263,-29.6984 L -48.9345,-29.6594 L -48.8436,-29.6184 L -48.7536,-29.5755
 L -48.6646,-29.5306 L -48.5765,-29.4839 L -48.4894,-29.4353 L -48.4034,-29.3848 L -48.3185,-29.3325 L -48.2348,-29.2784
 L -48.1522,-29.2225 L -48.0708,-29.1648 L -47.9907,-29.1055 L -47.9119,-29.0444 L -47.8344,-28.9816 L -47.7583,-28.9172
 L -47.6836,-28.8512 L -47.6103,-28.7835 L -47.5385,-28.7144 L -47.4682,-28.6437 L -47.3994,-28.5715 L -47.3322,-28.4978
 L -47.2665,-28.4228 L -47.2025,-28.3463 L -47.1402,-28.2685 L -47.0795,-28.1893 L -47.0206,-28.1089 L -46.9633,-28.0273
 L -46.9079,-27.9444 L -46.8542,-27.8604 L -46.8024,-27.7752 L -46.7524,-27.6889 L -46.7042,-27.6016 L -46.6579,-27.5133
 L -46.6136,-27.424 L -46.5712,-27.3337 L -46.5307,-27.2426 L -46.4921,-27.1506 L -46.4556,-27.0579 L -46.421,-26.9643
 L -46.3885,-26.8701 L -46.358,-26.7751 L -46.3295,-26.6796 L -46.3031,-26.5834 L -46.2788,-26.4867 L -46.2565,-26.3895
 L -46.2363,-26.2919 L -46.2183,-26.1938 L -46.2023,-26.0954 L -46.1884,-25.9966 L -46.1767,-25.8976 L -46.1671,-25.7984
 L -46.1596,-25.6989 L -46.1543,-25.5993 L -46.1511,-25.4997 L -46.15,-25.4 L -46.1511,-25.3003 L -46.1543,-25.2006
 L -46.1596,-25.1011 L -46.1671,-25.0016 L -46.1767,-24.9024 L -46.1884,-24.8034 L -46.2023,-24.7046 L -46.2183,-24.6062
 L -46.2363,-24.5081 L -46.2565,-24.4105 L -46.2788,-24.3133 L -46.3031,-24.2166 L -46.3295,-24.1204 L -46.358,-24.0249
 L -46.3885,-23.9299 L -46.421,-23.8357 L -46.4556,-23.7421 L -46.4921,-23.6494 L -46.5307,-23.5574 L -46.5712,-23.4663
 L -46.6136,-23.376 L -46.6579,-23.2867 L -46.7042,-23.1984 L -46.7524,-23.1111 L -46.8024,-23.0248 L -46.8542,-22.9396
 L -46.9079,-22.8556 L -46.9633,-22.7727 L -47.0206,-22.6911 L -47.0795,-22.6106 L -47.1402,-22.5315 L -47.2025,-22.4537
 L -47.2665,-22.3772 L -47.3322,-22.3022 L -47.3994,-22.2285 L -47.4682,-22.1563 L -47.5385,-22.0856 L -47.6103,-22.0164
 L -47.6836,-21.9488 L -47.7583,-21.8828 L -47.8344,-21.8184 L -47.9119,-21.7556 L -47.9907,-21.6945 L -48.0708,-21.6351
 L -48.1522,-21.5775 L -48.2348,-21.5216 L -48.3185,-21.4675 L -48.4034,-21.4152 L -48.4894,-21.3647 L -48.5765,-21.3161
 L -48.6646,-21.2693 L -48.7536,-21.2245 L -48.8436,-21.1816 L -48.9345,-21.1406 L -49.0263,-21.1016 L -49.1189,-21.0645
 L -49.2122,-21.0295 L -49.3063,-20.9964 L -49.401,-20.9654 L -49.4965,-20.9364 L -49.5925,-20.9095 L -49.689,-20.8847
 L -49.7861,-20.8619 L -49.8837,-20.8412 L -49.9816,-20.8226 L -50.08,-20.8061 L -50.1786,-20.7917 L -50.2776,-20.7794
 L -50.3768,-20.7693 L -50.4762,-20.7613 L -50.5757,-20.7554 L -50.6754,-20.7517 L -50.7751,-20.7501 z
M -16.575,-13.4753 L -16.5001,-13.4759 L -16.4003,-13.4799 L -16.3007,-13.4872 L -16.2013,-13.4976 L -16.1024,-13.5112
 L -16.0039,-13.5281 L -15.9061,-13.548 L -15.8089,-13.5712 L -15.7125,-13.5974 L -15.6171,-13.6267 L -15.5226,-13.6591
 L -15.4292,-13.6945 L -15.337,-13.7329 L -15.246,-13.7743 L -15.1565,-13.8186 L -15.0685,-13.8657 L -14.9819,-13.9156
 L -14.8971,-13.9683 L -14.814,-14.0238 L -14.7327,-14.0818 L -14.6534,-14.1425 L -14.576,-14.2056 L -14.5007,-14.2713
 L -14.4276,-14.3393 L -14.3566,-14.4096 L -14.288,-14.4822 L -14.2218,-14.557 L -14.158,-14.6338 L -14.0967,-14.7127
 L -14.038,-14.7935 L -13.9819,-14.8762 L -13.9286,-14.9606 L -13.8779,-15.0467 L -13.8301,-15.1344 L -13.7851,-15.2235
 L -13.743,-15.3141 L -13.7039,-15.406 L -13.6677,-15.4991 L -13.6345,-15.5933 L -13.6044,-15.6886 L -13.5774,-15.7847
 L -13.5535,-15.8817 L -13.5328,-15.9794 L -13.5152,-16.0777 L -13.5007,-16.1766 L -13.4895,-16.2758 L -13.4814,-16.3754
 L -13.4766,-16.4751 L -13.475,-16.575 L -13.475,-34.225 L -13.4766,-34.3249 L -13.4814,-34.4246 L -13.4895,-34.5242
 L -13.5007,-34.6234 L -13.5152,-34.7223 L -13.5328,-34.8206 L -13.5535,-34.9183 L -13.5774,-35.0153 L -13.6044,-35.1114
 L -13.6345,-35.2066 L -13.6677,-35.3009 L -13.7039,-35.394 L -13.743,-35.4859 L -13.7851,-35.5764 L -13.8301,-35.6656
 L -13.8779,-35.7533 L -13.9286,-35.8394 L -13.9819,-35.9238 L -14.038,-36.0065 L -14.0967,-36.0873 L -14.158,-36.1662
 L -14.2218,-36.243 L -14.288,-36.3178 L -14.3566,-36.3904 L -14.4276,-36.4607 L -14.5007,-36.5287 L -14.576,-36.5944
 L -14.6534,-36.6575 L -14.7327,-36.7182 L -14.814,-36.7762 L -14.8971,-36.8316 L -14.9819,-36.8844 L -15.0685,-36.9343
 L -15.1565,-36.9814 L -15.246,-37.0257 L -15.337,-37.067 L -15.4292,-37.1055 L -15.5226,-37.1409 L -15.6171,-37.1733
 L -15.7125,-37.2026 L -15.8089,-37.2288 L -15.9061,-37.252 L -16.0039,-37.2719 L -16.1024,-37.2887 L -16.2013,-37.3024
 L -16.3007,-37.3128 L -16.4003,-37.3201 L -16.5001,-37.3241 L -16.575,-37.3247 L -16.575,-37.325 L -34.225,-37.325
 L -34.225,-37.3247 L -34.25,-37.3249 L -34.3498,-37.3225 L -34.4495,-37.3168 L -34.549,-37.308 L -34.6482,-37.296
 L -34.7469,-37.2807 L -34.8451,-37.2623 L -34.9426,-37.2408 L -35.0394,-37.2161 L -35.1353,-37.1883 L -35.2303,-37.1574
 L -35.3243,-37.1235 L -35.4171,-37.0866 L -35.5086,-37.0467 L -35.5989,-37.0039 L -35.6877,-36.9582 L -35.775,-36.9097
 L -35.8607,-36.8583 L -35.9447,-36.8043 L -36.0269,-36.7475 L -36.1072,-36.6882 L -36.1856,-36.6263 L -36.2619,-36.5619
 L -36.3361,-36.495 L -36.4082,-36.4258 L -36.4779,-36.3544 L -36.5454,-36.2807 L -36.6104,-36.2048 L -36.6729,-36.127
 L -36.7329,-36.0471 L -36.7903,-35.9654 L -36.8451,-35.8818 L -36.8971,-35.7966 L -36.9463,-35.7097 L -36.9928,-35.6212
 L -37.0363,-35.5313 L -37.0769,-35.4401 L -37.1146,-35.3476 L -37.1492,-35.2539 L -37.1809,-35.1592 L -37.2094,-35.0634
 L -37.2349,-34.9669 L -37.2572,-34.8695 L -37.2764,-34.7715 L -37.2924,-34.6729 L -37.3053,-34.5739 L -37.3149,-34.4744
 L -37.3214,-34.3748 L -37.3246,-34.2749 L -37.3246,-34.225 L -37.325,-34.225 L -37.325,-16.575 L -37.3246,-16.575
 L -37.3246,-16.5251 L -37.3214,-16.4252 L -37.3149,-16.3256 L -37.3053,-16.2261 L -37.2924,-16.1271 L -37.2764,-16.0285
 L -37.2572,-15.9305 L -37.2349,-15.8331 L -37.2094,-15.7365 L -37.1809,-15.6408 L -37.1492,-15.5461 L -37.1146,-15.4524
 L -37.0769,-15.3599 L -37.0363,-15.2687 L -36.9928,-15.1788 L -36.9463,-15.0903 L -36.8971,-15.0034 L -36.8451,-14.9182
 L -36.7903,-14.8346 L -36.7329,-14.7529 L -36.6729,-14.673 L -36.6104,-14.5951 L -36.5454,-14.5193 L -36.4779,-14.4456
 L -36.4082,-14.3742 L -36.3361,-14.305 L -36.2619,-14.2381 L -36.1856,-14.1737 L -36.1072,-14.1118 L -36.0269,-14.0525
 L -35.9447,-13.9957 L -35.8607,-13.9417 L -35.775,-13.8903 L -35.6877,-13.8418 L -35.5989,-13.7961 L -35.5086,-13.7533
 L -35.4171,-13.7134 L -35.3243,-13.6765 L -35.2303,-13.6425 L -35.1353,-13.6117 L -35.0394,-13.5839 L -34.9426,-13.5592
 L -34.8451,-13.5376 L -34.7469,-13.5193 L -34.6482,-13.504 L -34.549,-13.492 L -34.4495,-13.4831 L -34.3498,-13.4775
 L -34.25,-13.4751 L -34.225,-13.4753 L -34.225,-13.475 L -16.575,-13.475 z
M -25.4748,-20.7506 L -25.5744,-20.7533 L -25.674,-20.7581 L -25.7735,-20.765 L -25.8728,-20.7741 L -25.9719,-20.7853
 L -26.0707,-20.7986 L -26.1692,-20.8141 L -26.2674,-20.8316 L -26.3651,-20.8513 L -26.4625,-20.873 L -26.5593,-20.8968
 L -26.6556,-20.9227 L -26.7513,-20.9507 L -26.8464,-20.9807 L -26.9408,-21.0127 L -27.0345,-21.0468 L -27.1275,-21.0828
 L -27.2197,-21.1208 L -27.311,-21.1608 L -27.4015,-21.2028 L -27.491,-21.2467 L -27.5796,-21.2925 L -27.6672,-21.3402
 L -27.7537,-21.3897 L -27.8392,-21.4411 L -27.9235,-21.4943 L -28.0067,-21.5493 L -28.0886,-21.6061 L -28.1694,-21.6646
 L -28.2488,-21.7249 L -28.327,-21.7868 L -28.4038,-21.8504 L -28.4792,-21.9156 L -28.5532,-21.9824 L -28.6258,-22.0508
 L -28.6968,-22.1208 L -28.7664,-22.1922 L -28.8344,-22.2652 L -28.9008,-22.3395 L -28.9657,-22.4153 L -29.0288,-22.4924
 L -29.0903,-22.5709 L -29.1502,-22.6507 L -29.2083,-22.7317 L -29.2646,-22.814 L -29.3192,-22.8975 L -29.3719,-22.9821
 L -29.4228,-23.0678 L -29.4719,-23.1546 L -29.5191,-23.2424 L -29.5645,-23.3313 L -29.6078,-23.421 L -29.6493,-23.5117
 L -29.6888,-23.6033 L -29.7264,-23.6956 L -29.7619,-23.7888 L -29.7955,-23.8827 L -29.827,-23.9773 L -29.8565,-24.0726
 L -29.8839,-24.1684 L -29.9093,-24.2649 L -29.9326,-24.3618 L -29.9538,-24.4592 L -29.9729,-24.5571 L -29.99,-24.6553
 L -30.0049,-24.7539 L -30.0177,-24.8528 L -30.0284,-24.952 L -30.0369,-25.0513 L -30.0433,-25.1508 L -30.0476,-25.2505
 L -30.0497,-25.3501 L -30.0497,-25.4498 L -30.0476,-25.5495 L -30.0433,-25.6492 L -30.0369,-25.7487 L -30.0284,-25.848
 L -30.0177,-25.9472 L -30.0049,-26.0461 L -29.99,-26.1446 L -29.9729,-26.2429 L -29.9538,-26.3407 L -29.9326,-26.4382
 L -29.9093,-26.5351 L -29.8839,-26.6316 L -29.8565,-26.7274 L -29.827,-26.8227 L -29.7955,-26.9173 L -29.7619,-27.0112
 L -29.7264,-27.1043 L -29.6888,-27.1967 L -29.6493,-27.2883 L -29.6078,-27.379 L -29.5645,-27.4687 L -29.5191,-27.5576
 L -29.4719,-27.6454 L -29.4228,-27.7322 L -29.3719,-27.8179 L -29.3192,-27.9025 L -29.2646,-27.986 L -29.2083,-28.0683
 L -29.1502,-28.1493 L -29.0903,-28.2291 L -29.0288,-28.3076 L -28.9657,-28.3847 L -28.9008,-28.4605 L -28.8344,-28.5348
 L -28.7664,-28.6078 L -28.6968,-28.6792 L -28.6258,-28.7491 L -28.5532,-28.8176 L -28.4792,-28.8844 L -28.4038,-28.9496
 L -28.327,-29.0132 L -28.2488,-29.0751 L -28.1694,-29.1354 L -28.0886,-29.1939 L -28.0067,-29.2507 L -27.9235,-29.3057
 L -27.8392,-29.3589 L -27.7537,-29.4103 L -27.6672,-29.4598 L -27.5796,-29.5075 L -27.491,-29.5533 L -27.4015,-29.5972
 L -27.311,-29.6391 L -27.2197,-29.6791 L -27.1275,-29.7172 L -27.0345,-29.7532 L -26.9408,-29.7873 L -26.8464,-29.8193
 L -26.7513,-29.8493 L -26.6556,-29.8773 L -26.5593,-29.9032 L -26.4625,-29.927 L -26.3651,-29.9487 L -26.2674,-29.9684
 L -26.1692,-29.9859 L -26.0707,-30.0014 L -25.9719,-30.0147 L -25.8728,-30.0259 L -25.7735,-30.035 L -25.674,-30.0419
 L -25.5744,-30.0467 L -25.4748,-30.0494 L -25.3751,-30.0499 L -25.2754,-30.0483 L -25.1757,-30.0446 L -25.0762,-30.0387
 L -24.9768,-30.0307 L -24.8776,-30.0206 L -24.7786,-30.0083 L -24.68,-29.9939 L -24.5816,-29.9774 L -24.4837,-29.9588
 L -24.3861,-29.9381 L -24.289,-29.9153 L -24.1925,-29.8905 L -24.0965,-29.8635 L -24.0011,-29.8346 L -23.9063,-29.8035
 L -23.8122,-29.7705 L -23.7189,-29.7355 L -23.6263,-29.6984 L -23.5345,-29.6594 L -23.4436,-29.6184 L -23.3536,-29.5755
 L -23.2646,-29.5306 L -23.1765,-29.4839 L -23.0894,-29.4353 L -23.0034,-29.3848 L -22.9185,-29.3325 L -22.8348,-29.2784
 L -22.7522,-29.2225 L -22.6708,-29.1648 L -22.5907,-29.1055 L -22.5119,-29.0444 L -22.4344,-28.9816 L -22.3583,-28.9172
 L -22.2836,-28.8512 L -22.2103,-28.7835 L -22.1385,-28.7144 L -22.0682,-28.6437 L -21.9994,-28.5715 L -21.9322,-28.4978
 L -21.8665,-28.4228 L -21.8025,-28.3463 L -21.7402,-28.2685 L -21.6795,-28.1893 L -21.6206,-28.1089 L -21.5634,-28.0273
 L -21.5079,-27.9444 L -21.4542,-27.8604 L -21.4024,-27.7752 L -21.3524,-27.6889 L -21.3042,-27.6016 L -21.2579,-27.5133
 L -21.2136,-27.424 L -21.1712,-27.3337 L -21.1307,-27.2426 L -21.0921,-27.1506 L -21.0556,-27.0579 L -21.021,-26.9643
 L -20.9885,-26.8701 L -20.958,-26.7751 L -20.9295,-26.6796 L -20.9031,-26.5834 L -20.8788,-26.4867 L -20.8565,-26.3895
 L -20.8363,-26.2919 L -20.8183,-26.1938 L -20.8023,-26.0954 L -20.7884,-25.9966 L -20.7767,-25.8976 L -20.7671,-25.7984
 L -20.7596,-25.6989 L -20.7543,-25.5993 L -20.7511,-25.4997 L -20.75,-25.4 L -20.7511,-25.3003 L -20.7543,-25.2006
 L -20.7596,-25.1011 L -20.7671,-25.0016 L -20.7767,-24.9024 L -20.7884,-24.8034 L -20.8023,-24.7046 L -20.8183,-24.6062
 L -20.8363,-24.5081 L -20.8565,-24.4105 L -20.8788,-24.3133 L -20.9031,-24.2166 L -20.9295,-24.1204 L -20.958,-24.0249
 L -20.9885,-23.9299 L -21.021,-23.8357 L -21.0556,-23.7421 L -21.0921,-23.6494 L -21.1307,-23.5574 L -21.1712,-23.4663
 L -21.2136,-23.376 L -21.2579,-23.2867 L -21.3042,-23.1984 L -21.3524,-23.1111 L -21.4024,-23.0248 L -21.4542,-22.9396
 L -21.5079,-22.8556 L -21.5634,-22.7727 L -21.6206,-22.6911 L -21.6795,-22.6106 L -21.7402,-22.5315 L -21.8025,-22.4537
 L -21.8665,-22.3772 L -21.9322,-22.3022 L -21.9994,-22.2285 L -22.0682,-22.1563 L -22.1385,-22.0856 L -22.2103,-22.0164
 L -22.2836,-21.9488 L -22.3583,-21.8828 L -22.4344,-21.8184 L -22.5119,-21.7556 L -22.5907,-21.6945 L -22.6708,-21.6351
 L -22.7522,-21.5775 L -22.8348,-21.5216 L -22.9185,-21.4675 L -23.0034,-21.4152 L -23.0894,-21.3647 L -23.1765,-21.3161
 L -23.2646,-21.2693 L -23.3536,-21.2245 L -23.4436,-21.1816 L -23.5345,-21.1406 L -23.6263,-21.1016 L -23.7189,-21.0645
 L -23.8122,-21.0295 L -23.9063,-20.9964 L -24.0011,-20.9654 L -24.0965,-20.9364 L -24.1925,-20.9095 L -24.289,-20.8847
 L -24.3861,-20.8619 L -24.4837,-20.8412 L -24.5816,-20.8226 L -24.68,-20.8061 L -24.7786,-20.7917 L -24.8776,-20.7794
 L -24.9768,-20.7693 L -25.0762,-20.7613 L -25.1757,-20.7554 L -25.2754,-20.7517 L -25.3751,-20.7501 z
M -67.375,11.9247 L -67.3001,11.9241 L -67.2003,11.9201 L -67.1007,11.9128 L -67.0013,11.9024 L -66.9024,11.8887
 L -66.8039,11.8719 L -66.7061,11.852 L -66.6089,11.8288 L -66.5125,11.8026 L -66.4171,11.7733 L -66.3226,11.7409
 L -66.2292,11.7055 L -66.137,11.6671 L -66.0461,11.6257 L -65.9565,11.5814 L -65.8685,11.5343 L -65.782,11.4844
 L -65.6971,11.4317 L -65.614,11.3762 L -65.5327,11.3182 L -65.4534,11.2575 L -65.376,11.1944 L -65.3007,11.1287
 L -65.2276,11.0607 L -65.1566,10.9904 L -65.088,10.9178 L -65.0218,10.843 L -64.958,10.7662 L -64.8967,10.6873
 L -64.838,10.6065 L -64.782,10.5238 L -64.7286,10.4394 L -64.6779,10.3533 L -64.6301,10.2656 L -64.5851,10.1765
 L -64.543,10.0859 L -64.5039,9.99399 L -64.4677,9.90088 L -64.4345,9.80666 L -64.4044,9.71143 L -64.3774,9.61526
 L -64.3535,9.51828 L -64.3328,9.42058 L -64.3152,9.32227 L -64.3007,9.22343 L -64.2895,9.12419 L -64.2814,9.02463
 L -64.2766,8.92487 L -64.275,8.825 L -64.275,-8.825 L -64.2766,-8.92487 L -64.2814,-9.02463 L -64.2895,-9.12419
 L -64.3007,-9.22343 L -64.3152,-9.32227 L -64.3328,-9.42058 L -64.3535,-9.51828 L -64.3774,-9.61526 L -64.4044,-9.71143
 L -64.4345,-9.80666 L -64.4677,-9.90088 L -64.5039,-9.99399 L -64.543,-10.0859 L -64.5851,-10.1765 L -64.6301,-10.2656
 L -64.6779,-10.3533 L -64.7286,-10.4394 L -64.782,-10.5238 L -64.838,-10.6065 L -64.8967,-10.6873 L -64.958,-10.7662
 L -65.0218,-10.843 L -65.088,-10.9178 L -65.1566,-10.9904 L -65.2276,-11.0607 L -65.3007,-11.1287 L -65.376,-11.1944
 L -65.4534,-11.2575 L -65.5327,-11.3182 L -65.614,-11.3762 L -65.6971,-11.4317 L -65.782,-11.4844 L -65.8685,-11.5343
 L -65.9565,-11.5814 L -66.0461,-11.6257 L -66.137,-11.6671 L -66.2292,-11.7055 L -66.3226,-11.7409 L -66.4171,-11.7733
 L -66.5125,-11.8026 L -66.6089,-11.8288 L -66.7061,-11.852 L -66.8039,-11.8719 L -66.9024,-11.8887 L -67.0013,-11.9024
 L -67.1007,-11.9128 L -67.2003,-11.9201 L -67.3001,-11.9241 L -67.375,-11.9247 L -67.375,-11.925 L -85.025,-11.925
 L -85.025,-11.9247 L -85.05,-11.9249 L -85.1498,-11.9225 L -85.2495,-11.9169 L -85.349,-11.908 L -85.4482,-11.896
 L -85.5469,-11.8807 L -85.6451,-11.8624 L -85.7426,-11.8408 L -85.8394,-11.8161 L -85.9353,-11.7883 L -86.0303,-11.7574
 L -86.1243,-11.7235 L -86.2171,-11.6866 L -86.3086,-11.6467 L -86.3989,-11.6039 L -86.4877,-11.5582 L -86.575,-11.5097
 L -86.6607,-11.4583 L -86.7447,-11.4043 L -86.8269,-11.3475 L -86.9072,-11.2882 L -86.9856,-11.2263 L -87.0619,-11.1619
 L -87.1361,-11.095 L -87.2082,-11.0258 L -87.2779,-10.9544 L -87.3454,-10.8807 L -87.4104,-10.8049 L -87.4729,-10.727
 L -87.5329,-10.6471 L -87.5903,-10.5654 L -87.6451,-10.4818 L -87.6971,-10.3966 L -87.7463,-10.3097 L -87.7928,-10.2212
 L -87.8363,-10.1313 L -87.8769,-10.0401 L -87.9146,-9.94759 L -87.9492,-9.85391 L -87.9809,-9.75917 L -88.0094,-9.66345
 L -88.0349,-9.56686 L -88.0573,-9.46951 L -88.0764,-9.37149 L -88.0925,-9.2729 L -88.1053,-9.17386 L -88.1149,-9.07443
 L -88.1214,-8.97476 L -88.1246,-8.87494 L -88.1246,-8.825 L -88.125,-8.825 L -88.125,8.825 L -88.1246,8.825
 L -88.1246,8.87494 L -88.1214,8.97476 L -88.1149,9.07443 L -88.1053,9.17386 L -88.0925,9.2729 L -88.0764,9.37149
 L -88.0573,9.46951 L -88.0349,9.56686 L -88.0094,9.66345 L -87.9809,9.75917 L -87.9492,9.85391 L -87.9146,9.94759
 L -87.8769,10.0401 L -87.8363,10.1313 L -87.7928,10.2212 L -87.7463,10.3097 L -87.6971,10.3966 L -87.6451,10.4818
 L -87.5903,10.5654 L -87.5329,10.6471 L -87.4729,10.727 L -87.4104,10.8049 L -87.3454,10.8807 L -87.2779,10.9544
 L -87.2082,11.0258 L -87.1361,11.095 L -87.0619,11.1619 L -86.9856,11.2263 L -86.9072,11.2882 L -86.8269,11.3475
 L -86.7447,11.4043 L -86.6607,11.4583 L -86.575,11.5097 L -86.4877,11.5582 L -86.3989,11.6039 L -86.3086,11.6467
 L -86.2171,11.6866 L -86.1243,11.7235 L -86.0303,11.7574 L -85.9353,11.7883 L -85.8394,11.8161 L -85.7426,11.8408
 L -85.6451,11.8624 L -85.5469,11.8807 L -85.4482,11.896 L -85.349,11.908 L -85.2495,11.9169 L -85.1498,11.9225
 L -85.05,11.9249 L -85.025,11.9247 L -85.025,11.925 L -67.375,11.925 z
M -76.2748,4.64938 L -76.3745,4.64671 L -76.474,4.64191 L -76.5735,4.63496 L -76.6728,4.62589 L -76.7719,4.61469
 L -76.8707,4.60136 L -76.9692,4.58592 L -77.0674,4.56837 L -77.1651,4.54872 L -77.2625,4.52698 L -77.3593,4.50316
 L -77.4556,4.47726 L -77.5513,4.44931 L -77.6464,4.41931 L -77.7408,4.38728 L -77.8345,4.35324 L -77.9275,4.31718
 L -78.0197,4.27914 L -78.111,4.23915 L -78.2015,4.19719 L -78.291,4.15331 L -78.3796,4.10751 L -78.4672,4.05983
 L -78.5537,4.01028 L -78.6392,3.95889 L -78.7235,3.90569 L -78.8067,3.85068 L -78.8886,3.7939 L -78.9694,3.73537
 L -79.0488,3.67513 L -79.127,3.6132 L -79.2038,3.54961 L -79.2792,3.48438 L -79.3532,3.41756 L -79.4258,3.34915
 L -79.4968,3.27922 L -79.5664,3.20776 L -79.6344,3.13484 L -79.7008,3.06049 L -79.7657,2.98471 L -79.8288,2.90756
 L -79.8904,2.82909 L -79.9502,2.7493 L -80.0083,2.66826 L -80.0646,2.58598 L -80.1192,2.50252 L -80.1719,2.41791
 L -80.2228,2.33218 L -80.2719,2.24539 L -80.3191,2.15756 L -80.3645,2.06874 L -80.4079,1.97896 L -80.4493,1.88828
 L -80.4888,1.79672 L -80.5264,1.70435 L -80.5619,1.61119 L -80.5955,1.51729 L -80.627,1.42268 L -80.6565,1.32744
 L -80.6839,1.23157 L -80.7093,1.13513 L -80.7326,1.03819 L -80.7538,0.94075 L -80.7729,0.842896 L -80.79,0.744644
 L -80.8049,0.646057 L -80.8177,0.547165 L -80.8284,0.448013 L -80.8369,0.348679 L -80.8433,0.249161 L -80.8476,0.149536
 L -80.8497,0.0498505 L -80.8497,-0.0498505 L -80.8476,-0.149536 L -80.8433,-0.249161 L -80.8369,-0.348679 L -80.8284,-0.448013
 L -80.8177,-0.547165 L -80.8049,-0.646057 L -80.79,-0.744644 L -80.7729,-0.842896 L -80.7538,-0.94075 L -80.7326,-1.03819
 L -80.7093,-1.13513 L -80.6839,-1.23157 L -80.6565,-1.32744 L -80.627,-1.42268 L -80.5955,-1.51729 L -80.5619,-1.61119
 L -80.5264,-1.70435 L -80.4888,-1.79672 L -80.4493,-1.88828 L -80.4079,-1.97896 L -80.3645,-2.06874 L -80.3191,-2.15756
 L -80.2719,-2.24539 L -80.2228,-2.33218 L -80.1719,-2.41791 L -80.1192,-2.50252 L -80.0646,-2.58598 L -80.0083,-2.66826
 L -79.9502,-2.7493 L -79.8904,-2.82909 L -79.8288,-2.90756 L -79.7657,-2.98471 L -79.7008,-3.06049 L -79.6344,-3.13484
 L -79.5664,-3.20776 L -79.4968,-3.27922 L -79.4258,-3.34915 L -79.3532,-3.41756 L -79.2792,-3.48438 L -79.2038,-3.54961
 L -79.127,-3.6132 L -79.0488,-3.67513 L -78.9694,-3.73537 L -78.8886,-3.7939 L -78.8067,-3.85068 L -78.7235,-3.90569
 L -78.6392,-3.95889 L -78.5537,-4.01028 L -78.4672,-4.05983 L -78.3796,-4.10751 L -78.291,-4.15331 L -78.2015,-4.19719
 L -78.111,-4.23915 L -78.0197,-4.27914 L -77.9275,-4.31718 L -77.8345,-4.35324 L -77.7408,-4.38728 L -77.6464,-4.41931
 L -77.5513,-4.44931 L -77.4556,-4.47726 L -77.3593,-4.50316 L -77.2625,-4.52698 L -77.1651,-4.54872 L -77.0674,-4.56837
 L -76.9692,-4.58592 L -76.8707,-4.60136 L -76.7719,-4.61469 L -76.6728,-4.62589 L -76.5735,-4.63496 L -76.474,-4.64191
 L -76.3745,-4.64671 L -76.2748,-4.64938 L -76.1751,-4.64993 L -76.0754,-4.64832 L -75.9757,-4.64458 L -75.8762,-4.6387
 L -75.7768,-4.63069 L -75.6776,-4.62056 L -75.5786,-4.60829 L -75.48,-4.5939 L -75.3816,-4.57741 L -75.2837,-4.55881
 L -75.1861,-4.53812 L -75.0891,-4.51534 L -74.9925,-4.49046 L -74.8965,-4.46355 L -74.8011,-4.43457 L -74.7063,-4.40355
 L -74.6122,-4.37051 L -74.5189,-4.33546 L -74.4263,-4.29842 L -74.3345,-4.25938 L -74.2436,-4.21841 L -74.1536,-4.17549
 L -74.0646,-4.13065 L -73.9765,-4.08391 L -73.8894,-4.03529 L -73.8034,-3.98482 L -73.7185,-3.93251 L -73.6348,-3.8784
 L -73.5522,-3.82251 L -73.4708,-3.76485 L -73.3907,-3.70546 L -73.3119,-3.64438 L -73.2345,-3.5816 L -73.1583,-3.5172
 L -73.0836,-3.45116 L -73.0103,-3.38354 L -72.9385,-3.31438 L -72.8682,-3.24368 L -72.7994,-3.17149 L -72.7322,-3.09784
 L -72.6665,-3.02277 L -72.6025,-2.9463 L -72.5402,-2.86848 L -72.4795,-2.78935 L -72.4206,-2.70894 L -72.3634,-2.62727
 L -72.3079,-2.5444 L -72.2542,-2.46036 L -72.2024,-2.37518 L -72.1524,-2.28893 L -72.1042,-2.2016 L -72.058,-2.11327
 L -72.0136,-2.02397 L -71.9712,-1.93373 L -71.9307,-1.84261 L -71.8921,-1.75064 L -71.8556,-1.65787 L -71.821,-1.56433
 L -71.7885,-1.47008 L -71.758,-1.37514 L -71.7295,-1.27957 L -71.7031,-1.18343 L -71.6788,-1.08673 L -71.6565,-0.989532
 L -71.6363,-0.891876 L -71.6183,-0.793808 L -71.6023,-0.695389 L -71.5884,-0.596634 L -71.5767,-0.49762 L -71.5671,-0.398361
 L -71.5596,-0.298935 L -71.5543,-0.199356 L -71.5511,-0.0997009 L -71.55,-0 L -71.5511,0.0997009 L -71.5543,0.199356
 L -71.5596,0.298935 L -71.5671,0.398361 L -71.5767,0.49762 L -71.5884,0.596634 L -71.6023,0.695389 L -71.6183,0.793808
 L -71.6363,0.891876 L -71.6565,0.989532 L -71.6788,1.08673 L -71.7031,1.18343 L -71.7295,1.27957 L -71.758,1.37514
 L -71.7885,1.47008 L -71.821,1.56433 L -71.8556,1.65787 L -71.8921,1.75064 L -71.9307,1.84261 L -71.9712,1.93373
 L -72.0136,2.02397 L -72.058,2.11327 L -72.1042,2.2016 L -72.1524,2.28893 L -72.2024,2.37518 L -72.2542,2.46036
 L -72.3079,2.5444 L -72.3634,2.62727 L -72.4206,2.70894 L -72.4795,2.78935 L -72.5402,2.86848 L -72.6025,2.9463
 L -72.6665,3.02277 L -72.7322,3.09784 L -72.7994,3.17149 L -72.8682,3.24368 L -72.9385,3.31438 L -73.0103,3.38354
 L -73.0836,3.45116 L -73.1583,3.5172 L -73.2345,3.5816 L -73.3119,3.64438 L -73.3907,3.70546 L -73.4708,3.76485
 L -73.5522,3.82251 L -73.6348,3.8784 L -73.7185,3.93251 L -73.8034,3.98482 L -73.8894,4.03529 L -73.9765,4.08391
 L -74.0646,4.13065 L -74.1536,4.17549 L -74.2436,4.21841 L -74.3345,4.25938 L -74.4263,4.29842 L -74.5189,4.33546
 L -74.6122,4.37051 L -74.7063,4.40355 L -74.8011,4.43457 L -74.8965,4.46355 L -74.9925,4.49046 L -75.0891,4.51534
 L -75.1861,4.53812 L -75.2837,4.55881 L -75.3816,4.57741 L -75.48,4.5939 L -75.5786,4.60829 L -75.6776,4.62056
 L -75.7768,4.63069 L -75.8762,4.6387 L -75.9757,4.64458 L -76.0754,4.64832 L -76.1751,4.64993 z
M -16.575,11.9247 L -16.5001,11.9241 L -16.4003,11.9201 L -16.3007,11.9128 L -16.2013,11.9024 L -16.1024,11.8887
 L -16.0039,11.8719 L -15.9061,11.852 L -15.8089,11.8288 L -15.7125,11.8026 L -15.6171,11.7733 L -15.5226,11.7409
 L -15.4292,11.7055 L -15.337,11.6671 L -15.246,11.6257 L -15.1565,11.5814 L -15.0685,11.5343 L -14.9819,11.4844
 L -14.8971,11.4317 L -14.814,11.3762 L -14.7327,11.3182 L -14.6534,11.2575 L -14.576,11.1944 L -14.5007,11.1287
 L -14.4276,11.0607 L -14.3566,10.9904 L -14.288,10.9178 L -14.2218,10.843 L -14.158,10.7662 L -14.0967,10.6873
 L -14.038,10.6065 L -13.9819,10.5238 L -13.9286,10.4394 L -13.8779,10.3533 L -13.8301,10.2656 L -13.7851,10.1765
 L -13.743,10.0859 L -13.7039,9.99399 L -13.6677,9.90088 L -13.6345,9.80666 L -13.6044,9.71143 L -13.5774,9.61526
 L -13.5535,9.51828 L -13.5328,9.42058 L -13.5152,9.32227 L -13.5007,9.22343 L -13.4895,9.12419 L -13.4814,9.02463
 L -13.4766,8.92487 L -13.475,8.825 L -13.475,-8.825 L -13.4766,-8.92487 L -13.4814,-9.02463 L -13.4895,-9.12419
 L -13.5007,-9.22343 L -13.5152,-9.32227 L -13.5328,-9.42058 L -13.5535,-9.51828 L -13.5774,-9.61526 L -13.6044,-9.71143
 L -13.6345,-9.80666 L -13.6677,-9.90088 L -13.7039,-9.99399 L -13.743,-10.0859 L -13.7851,-10.1765 L -13.8301,-10.2656
 L -13.8779,-10.3533 L -13.9286,-10.4394 L -13.9819,-10.5238 L -14.038,-10.6065 L -14.0967,-10.6873 L -14.158,-10.7662
 L -14.2218,-10.843 L -14.288,-10.9178 L -14.3566,-10.9904 L -14.4276,-11.0607 L -14.5007,-11.1287 L -14.576,-11.1944
 L -14.6534,-11.2575 L -14.7327,-11.3182 L -14.814,-11.3762 L -14.8971,-11.4317 L -14.9819,-11.4844 L -15.0685,-11.5343
 L -15.1565,-11.5814 L -15.246,-11.6257 L -15.337,-11.6671 L -15.4292,-11.7055 L -15.5226,-11.7409 L -15.6171,-11.7733
 L -15.7125,-11.8026 L -15.8089,-11.8288 L -15.9061,-11.852 L -16.0039,-11.8719 L -16.1024,-11.8887 L -16.2013,-11.9024
 L -16.3007,-11.9128 L -16.4003,-11.9201 L -16.5001,-11.9241 L -16.575,-11.9247 L -16.575,-11.925 L -34.225,-11.925
 L -34.225,-11.9247 L -34.25,-11.9249 L -34.3498,-11.9225 L -34.4495,-11.9169 L -34.549,-11.908 L -34.6482,-11.896
 L -34.7469,-11.8807 L -34.8451,-11.8624 L -34.9426,-11.8408 L -35.0394,-11.8161 L -35.1353,-11.7883 L -35.2303,-11.7574
 L -35.3243,-11.7235 L -35.4171,-11.6866 L -35.5086,-11.6467 L -35.5989,-11.6039 L -35.6877,-11.5582 L -35.775,-11.5097
 L -35.8607,-11.4583 L -35.9447,-11.4043 L -36.0269,-11.3475 L -36.1072,-11.2882 L -36.1856,-11.2263 L -36.2619,-11.1619
 L -36.3361,-11.095 L -36.4082,-11.0258 L -36.4779,-10.9544 L -36.5454,-10.8807 L -36.6104,-10.8049 L -36.6729,-10.727
 L -36.7329,-10.6471 L -36.7903,-10.5654 L -36.8451,-10.4818 L -36.8971,-10.3966 L -36.9463,-10.3097 L -36.9928,-10.2212
 L -37.0363,-10.1313 L -37.0769,-10.0401 L -37.1146,-9.94759 L -37.1492,-9.85391 L -37.1809,-9.75917 L -37.2094,-9.66345
 L -37.2349,-9.56686 L -37.2572,-9.46951 L -37.2764,-9.37149 L -37.2924,-9.2729 L -37.3053,-9.17386 L -37.3149,-9.07443
 L -37.3214,-8.97476 L -37.3246,-8.87494 L -37.3246,-8.825 L -37.325,-8.825 L -37.325,8.825 L -37.3246,8.825
 L -37.3246,8.87494 L -37.3214,8.97476 L -37.3149,9.07443 L -37.3053,9.17386 L -37.2924,9.2729 L -37.2764,9.37149
 L -37.2572,9.46951 L -37.2349,9.56686 L -37.2094,9.66345 L -37.1809,9.75917 L -37.1492,9.85391 L -37.1146,9.94759
 L -37.0769,10.0401 L -37.0363,10.1313 L -36.9928,10.2212 L -36.9463,10.3097 L -36.8971,10.3966 L -36.8451,10.4818
 L -36.7903,10.5654 L -36.7329,10.6471 L -36.6729,10.727 L -36.6104,10.8049 L -36.5454,10.8807 L -36.4779,10.9544
 L -36.4082,11.0258 L -36.3361,11.095 L -36.2619,11.1619 L -36.1856,11.2263 L -36.1072,11.2882 L -36.0269,11.3475
 L -35.9447,11.4043 L -35.8607,11.4583 L -35.775,11.5097 L -35.6877,11.5582 L -35.5989,11.6039 L -35.5086,11.6467
 L -35.4171,11.6866 L -35.3243,11.7235 L -35.2303,11.7574 L -35.1353,11.7883 L -35.0394,11.8161 L -34.9426,11.8408
 L -34.8451,11.8624 L -34.7469,11.8807 L -34.6482,11.896 L -34.549,11.908 L -34.4495,11.9169 L -34.3498,11.9225
 L -34.25,11.9249 L -34.225,11.9247 L -34.225,11.925 L -16.575,11.925 z
M -25.4748,4.64938 L -25.5744,4.64671 L -25.674,4.64191 L -25.7735,4.63496 L -25.8728,4.62589 L -25.9719,4.61469
 L -26.0707,4.60136 L -26.1692,4.58592 L -26.2674,4.56837 L -26.3651,4.54872 L -26.4625,4.52698 L -26.5593,4.50316
 L -26.6556,4.47726 L -26.7513,4.44931 L -26.8464,4.41931 L -26.9408,4.38728 L -27.0345,4.35324 L -27.1275,4.31718
 L -27.2197,4.27914 L -27.311,4.23915 L -27.4015,4.19719 L -27.491,4.15331 L -27.5796,4.10751 L -27.6672,4.05983
 L -27.7537,4.01028 L -27.8392,3.95889 L -27.9235,3.90569 L -28.0067,3.85068 L -28.0886,3.7939 L -28.1694,3.73537
 L -28.2488,3.67513 L -28.327,3.6132 L -28.4038,3.54961 L -28.4792,3.48438 L -28.5532,3.41756 L -28.6258,3.34915
 L -28.6968,3.27922 L -28.7664,3.20776 L -28.8344,3.13484 L -28.9008,3.06049 L -28.9657,2.98471 L -29.0288,2.90756
 L -29.0903,2.82909 L -29.1502,2.7493 L -29.2083,2.66826 L -29.2646,2.58598 L -29.3192,2.50252 L -29.3719,2.41791
 L -29.4228,2.33218 L -29.4719,2.24539 L -29.5191,2.15756 L -29.5645,2.06874 L -29.6078,1.97896 L -29.6493,1.88828
 L -29.6888,1.79672 L -29.7264,1.70435 L -29.7619,1.61119 L -29.7955,1.51729 L -29.827,1.42268 L -29.8565,1.32744
 L -29.8839,1.23157 L -29.9093,1.13513 L -29.9326,1.03819 L -29.9538,0.94075 L -29.9729,0.842896 L -29.99,0.744644
 L -30.0049,0.646057 L -30.0177,0.547165 L -30.0284,0.448013 L -30.0369,0.348679 L -30.0433,0.249161 L -30.0476,0.149536
 L -30.0497,0.0498505 L -30.0497,-0.0498505 L -30.0476,-0.149536 L -30.0433,-0.249161 L -30.0369,-0.348679 L -30.0284,-0.448013
 L -30.0177,-0.547165 L -30.0049,-0.646057 L -29.99,-0.744644 L -29.9729,-0.842896 L -29.9538,-0.94075 L -29.9326,-1.03819
 L -29.9093,-1.13513 L -29.8839,-1.23157 L -29.8565,-1.32744 L -29.827,-1.42268 L -29.7955,-1.51729 L -29.7619,-1.61119
 L -29.7264,-1.70435 L -29.6888,-1.79672 L -29.6493,-1.88828 L -29.6078,-1.97896 L -29.5645,-2.06874 L -29.5191,-2.15756
 L -29.4719,-2.24539 L -29.4228,-2.33218 L -29.3719,-2.41791 L -29.3192,-2.50252 L -29.2646,-2.58598 L -29.2083,-2.66826
 L -29.1502,-2.7493 L -29.0903,-2.82909 L -29.0288,-2.90756 L -28.9657,-2.98471 L -28.9008,-3.06049 L -28.8344,-3.13484
 L -28.7664,-3.20776 L -28.6968,-3.27922 L -28.6258,-3.34915 L -28.5532,-3.41756 L -28.4792,-3.48438 L -28.4038,-3.54961
 L -28.327,-3.6132 L -28.2488,-3.67513 L -28.1694,-3.73537 L -28.0886,-3.7939 L -28.0067,-3.85068 L -27.9235,-3.90569
 L -27.8392,-3.95889 L -27.7537,-4.01028 L -27.6672,-4.05983 L -27.5796,-4.10751 L -27.491,-4.15331 L -27.4015,-4.19719
 L -27.311,-4.23915 L -27.2197,-4.27914 L -27.1275,-4.31718 L -27.0345,-4.35324 L -26.9408,-4.38728 L -26.8464,-4.41931
 L -26.7513,-4.44931 L -26.6556,-4.47726 L -26.5593,-4.50316 L -26.4625,-4.52698 L -26.3651,-4.54872 L -26.2674,-4.56837
 L -26.1692,-4.58592 L -26.0707,-4.60136 L -25.9719,-4.61469 L -25.8728,-4.62589 L -25.7735,-4.63496 L -25.674,-4.64191
 L -25.5744,-4.64671 L -25.4748,-4.64938 L -25.3751,-4.64993 L -25.2754,-4.64832 L -25.1757,-4.64458 L -25.0762,-4.6387
 L -24.9768,-4.63069 L -24.8776,-4.62056 L -24.7786,-4.60829 L -24.68,-4.5939 L -24.5816,-4.57741 L -24.4837,-4.55881
 L -24.3861,-4.53812 L -24.289,-4.51534 L -24.1925,-4.49046 L -24.0965,-4.46355 L -24.0011,-4.43457 L -23.9063,-4.40355
 L -23.8122,-4.37051 L -23.7189,-4.33546 L -23.6263,-4.29842 L -23.5345,-4.25938 L -23.4436,-4.21841 L -23.3536,-4.17549
 L -23.2646,-4.13065 L -23.1765,-4.08391 L -23.0894,-4.03529 L -23.0034,-3.98482 L -22.9185,-3.93251 L -22.8348,-3.8784
 L -22.7522,-3.82251 L -22.6708,-3.76485 L -22.5907,-3.70546 L -22.5119,-3.64438 L -22.4344,-3.5816 L -22.3583,-3.5172
 L -22.2836,-3.45116 L -22.2103,-3.38354 L -22.1385,-3.31438 L -22.0682,-3.24368 L -21.9994,-3.17149 L -21.9322,-3.09784
 L -21.8665,-3.02277 L -21.8025,-2.9463 L -21.7402,-2.86848 L -21.6795,-2.78935 L -21.6206,-2.70894 L -21.5634,-2.62727
 L -21.5079,-2.5444 L -21.4542,-2.46036 L -21.4024,-2.37518 L -21.3524,-2.28893 L -21.3042,-2.2016 L -21.2579,-2.11327
 L -21.2136,-2.02397 L -21.1712,-1.93373 L -21.1307,-1.84261 L -21.0921,-1.75064 L -21.0556,-1.65787 L -21.021,-1.56433
 L -20.9885,-1.47008 L -20.958,-1.37514 L -20.9295,-1.27957 L -20.9031,-1.18343 L -20.8788,-1.08673 L -20.8565,-0.989532
 L -20.8363,-0.891876 L -20.8183,-0.793808 L -20.8023,-0.695389 L -20.7884,-0.596634 L -20.7767,-0.49762 L -20.7671,-0.398361
 L -20.7596,-0.298935 L -20.7543,-0.199356 L -20.7511,-0.0997009 L -20.75,-0 L -20.7511,0.0997009 L -20.7543,0.199356
 L -20.7596,0.298935 L -20.7671,0.398361 L -20.7767,0.49762 L -20.7884,0.596634 L -20.8023,0.695389 L -20.8183,0.793808
 L -20.8363,0.891876 L -20.8565,0.989532 L -20.8788,1.08673 L -20.9031,1.18343 L -20.9295,1.27957 L -20.958,1.37514
 L -20.9885,1.47008 L -21.021,1.56433 L -21.0556,1.65787 L -21.0921,1.75064 L -21.1307,1.84261 L -21.1712,1.93373
 L -21.2136,2.02397 L -21.2579,2.11327 L -21.3042,2.2016 L -21.3524,2.28893 L -21.4024,2.37518 L -21.4542,2.46036
 L -21.5079,2.5444 L -21.5634,2.62727 L -21.6206,2.70894 L -21.6795,2.78935 L -21.7402,2.86848 L -21.8025,2.9463
 L -21.8665,3.02277 L -21.9322,3.09784 L -21.9994,3.17149 L -22.0682,3.24368 L -22.1385,3.31438 L -22.2103,3.38354
 L -22.2836,3.45116 L -22.3583,3.5172 L -22.4344,3.5816 L -22.5119,3.64438 L -22.5907,3.70546 L -22.6708,3.76485
 L -22.7522,3.82251 L -22.8348,3.8784 L -22.9185,3.93251 L -23.0034,3.98482 L -23.0894,4.03529 L -23.1765,4.08391
 L -23.2646,4.13065 L -23.3536,4.17549 L -23.4436,4.21841 L -23.5345,4.25938 L -23.6263,4.29842 L -23.7189,4.33546
 L -23.8122,4.37051 L -23.9063,4.40355 L -24.0011,4.43457 L -24.0965,4.46355 L -24.1925,4.49046 L -24.289,4.51534
 L -24.3861,4.53812 L -24.4837,4.55881 L -24.5816,4.57741 L -24.68,4.5939 L -24.7786,4.60829 L -24.8776,4.62056
 L -24.9768,4.63069 L -25.0762,4.6387 L -25.1757,4.64458 L -25.2754,4.64832 L -25.3751,4.64993 z
M -92.775,11.9247 L -92.7001,11.9241 L -92.6003,11.9201 L -92.5007,11.9128 L -92.4013,11.9024 L -92.3024,11.8887
 L -92.2039,11.8719 L -92.1061,11.852 L -92.0089,11.8288 L -91.9125,11.8026 L -91.817,11.7733 L -91.7226,11.7409
 L -91.6292,11.7055 L -91.537,11.6671 L -91.446,11.6257 L -91.3565,11.5814 L -91.2684,11.5343 L -91.1819,11.4844
 L -91.0971,11.4317 L -91.014,11.3762 L -90.9327,11.3182 L -90.8534,11.2575 L -90.776,11.1944 L -90.7007,11.1287
 L -90.6275,11.0607 L -90.5566,10.9904 L -90.488,10.9178 L -90.4218,10.843 L -90.358,10.7662 L -90.2967,10.6873
 L -90.238,10.6065 L -90.1819,10.5238 L -90.1286,10.4394 L -90.0779,10.3533 L -90.0301,10.2656 L -89.9851,10.1765
 L -89.943,10.0859 L -89.9039,9.99399 L -89.8677,9.90088 L -89.8345,9.80666 L -89.8044,9.71143 L -89.7774,9.61526
 L -89.7535,9.51828 L -89.7328,9.42058 L -89.7151,9.32227 L -89.7007,9.22343 L -89.6895,9.12419 L -89.6814,9.02463
 L -89.6766,8.92487 L -89.675,8.825 L -89.675,-8.825 L -89.6766,-8.92487 L -89.6814,-9.02463 L -89.6895,-9.12419
 L -89.7007,-9.22343 L -89.7151,-9.32227 L -89.7328,-9.42058 L -89.7535,-9.51828 L -89.7774,-9.61526 L -89.8044,-9.71143
 L -89.8345,-9.80666 L -89.8677,-9.90088 L -89.9039,-9.99399 L -89.943,-10.0859 L -89.9851,-10.1765 L -90.0301,-10.2656
 L -90.0779,-10.3533 L -90.1286,-10.4394 L -90.1819,-10.5238 L -90.238,-10.6065 L -90.2967,-10.6873 L -90.358,-10.7662
 L -90.4218,-10.843 L -90.488,-10.9178 L -90.5566,-10.9904 L -90.6275,-11.0607 L -90.7007,-11.1287 L -90.776,-11.1944
 L -90.8534,-11.2575 L -90.9327,-11.3182 L -91.014,-11.3762 L -91.0971,-11.4317 L -91.1819,-11.4844 L -91.2684,-11.5343
 L -91.3565,-11.5814 L -91.446,-11.6257 L -91.537,-11.6671 L -91.6292,-11.7055 L -91.7226,-11.7409 L -91.817,-11.7733
 L -91.9125,-11.8026 L -92.0089,-11.8288 L -92.1061,-11.852 L -92.2039,-11.8719 L -92.3024,-11.8887 L -92.4013,-11.9024
 L -92.5007,-11.9128 L -92.6003,-11.9201 L -92.7001,-11.9241 L -92.775,-11.9247 L -92.775,-11.925 L -110.425,-11.925
 L -110.425,-11.9247 L -110.45,-11.9249 L -110.55,-11.9225 L -110.65,-11.9169 L -110.749,-11.908 L -110.848,-11.896
 L -110.947,-11.8807 L -111.045,-11.8624 L -111.143,-11.8408 L -111.239,-11.8161 L -111.335,-11.7883 L -111.43,-11.7574
 L -111.524,-11.7235 L -111.617,-11.6866 L -111.709,-11.6467 L -111.799,-11.6039 L -111.888,-11.5582 L -111.975,-11.5097
 L -112.061,-11.4583 L -112.145,-11.4043 L -112.227,-11.3475 L -112.307,-11.2882 L -112.386,-11.2263 L -112.462,-11.1619
 L -112.536,-11.095 L -112.608,-11.0258 L -112.678,-10.9544 L -112.745,-10.8807 L -112.81,-10.8049 L -112.873,-10.727
 L -112.933,-10.6471 L -112.99,-10.5654 L -113.045,-10.4818 L -113.097,-10.3966 L -113.146,-10.3097 L -113.193,-10.2212
 L -113.236,-10.1313 L -113.277,-10.0401 L -113.315,-9.94759 L -113.349,-9.85391 L -113.381,-9.75917 L -113.409,-9.66345
 L -113.435,-9.56686 L -113.457,-9.46951 L -113.476,-9.37149 L -113.492,-9.2729 L -113.505,-9.17386 L -113.515,-9.07443
 L -113.521,-8.97476 L -113.525,-8.87494 L -113.525,-8.825 L -113.525,-8.825 L -113.525,8.825 L -113.525,8.825
 L -113.525,8.87494 L -113.521,8.97476 L -113.515,9.07443 L -113.505,9.17386 L -113.492,9.2729 L -113.476,9.37149
 L -113.457,9.46951 L -113.435,9.56686 L -113.409,9.66345 L -113.381,9.75917 L -113.349,9.85391 L -113.315,9.94759
 L -113.277,10.0401 L -113.236,10.1313 L -113.193,10.2212 L -113.146,10.3097 L -113.097,10.3966 L -113.045,10.4818
 L -112.99,10.5654 L -112.933,10.6471 L -112.873,10.727 L -112.81,10.8049 L -112.745,10.8807 L -112.678,10.9544
 L -112.608,11.0258 L -112.536,11.095 L -112.462,11.1619 L -112.386,11.2263 L -112.307,11.2882 L -112.227,11.3475
 L -112.145,11.4043 L -112.061,11.4583 L -111.975,11.5097 L -111.888,11.5582 L -111.799,11.6039 L -111.709,11.6467
 L -111.617,11.6866 L -111.524,11.7235 L -111.43,11.7574 L -111.335,11.7883 L -111.239,11.8161 L -111.143,11.8408
 L -111.045,11.8624 L -110.947,11.8807 L -110.848,11.896 L -110.749,11.908 L -110.65,11.9169 L -110.55,11.9225
 L -110.45,11.9249 L -110.425,11.9247 L -110.425,11.925 L -92.775,11.925 z
M -101.675,4.64938 L -101.774,4.64671 L -101.874,4.64191 L -101.974,4.63496 L -102.073,4.62589 L -102.172,4.61469
 L -102.271,4.60136 L -102.369,4.58592 L -102.467,4.56837 L -102.565,4.54872 L -102.662,4.52698 L -102.759,4.50316
 L -102.856,4.47726 L -102.951,4.44931 L -103.046,4.41931 L -103.141,4.38728 L -103.235,4.35324 L -103.328,4.31718
 L -103.42,4.27914 L -103.511,4.23915 L -103.601,4.19719 L -103.691,4.15331 L -103.78,4.10751 L -103.867,4.05983
 L -103.954,4.01028 L -104.039,3.95889 L -104.123,3.90569 L -104.207,3.85068 L -104.289,3.7939 L -104.369,3.73537
 L -104.449,3.67513 L -104.527,3.6132 L -104.604,3.54961 L -104.679,3.48438 L -104.753,3.41756 L -104.826,3.34915
 L -104.897,3.27922 L -104.966,3.20776 L -105.034,3.13484 L -105.101,3.06049 L -105.166,2.98471 L -105.229,2.90756
 L -105.29,2.82909 L -105.35,2.7493 L -105.408,2.66826 L -105.465,2.58598 L -105.519,2.50252 L -105.572,2.41791
 L -105.623,2.33218 L -105.672,2.24539 L -105.719,2.15756 L -105.764,2.06874 L -105.808,1.97896 L -105.849,1.88828
 L -105.889,1.79672 L -105.926,1.70435 L -105.962,1.61119 L -105.995,1.51729 L -106.027,1.42268 L -106.056,1.32744
 L -106.084,1.23157 L -106.109,1.13513 L -106.133,1.03819 L -106.154,0.94075 L -106.173,0.842896 L -106.19,0.744644
 L -106.205,0.646057 L -106.218,0.547165 L -106.228,0.448013 L -106.237,0.348679 L -106.243,0.249161 L -106.248,0.149536
 L -106.25,0.0498505 L -106.25,-0.0498505 L -106.248,-0.149536 L -106.243,-0.249161 L -106.237,-0.348679 L -106.228,-0.448013
 L -106.218,-0.547165 L -106.205,-0.646057 L -106.19,-0.744644 L -106.173,-0.842896 L -106.154,-0.94075 L -106.133,-1.03819
 L -106.109,-1.13513 L -106.084,-1.23157 L -106.056,-1.32744 L -106.027,-1.42268 L -105.995,-1.51729 L -105.962,-1.61119
 L -105.926,-1.70435 L -105.889,-1.79672 L -105.849,-1.88828 L -105.808,-1.97896 L -105.764,-2.06874 L -105.719,-2.15756
 L -105.672,-2.24539 L -105.623,-2.33218 L -105.572,-2.41791 L -105.519,-2.50252 L -105.465,-2.58598 L -105.408,-2.66826
 L -105.35,-2.7493 L -105.29,-2.82909 L -105.229,-2.90756 L -105.166,-2.98471 L -105.101,-3.06049 L -105.034,-3.13484
 L -104.966,-3.20776 L -104.897,-3.27922 L -104.826,-3.34915 L -104.753,-3.41756 L -104.679,-3.48438 L -104.604,-3.54961
 L -104.527,-3.6132 L -104.449,-3.67513 L -104.369,-3.73537 L -104.289,-3.7939 L -104.207,-3.85068 L -104.123,-3.90569
 L -104.039,-3.95889 L -103.954,-4.01028 L -103.867,-4.05983 L -103.78,-4.10751 L -103.691,-4.15331 L -103.601,-4.19719
 L -103.511,-4.23915 L -103.42,-4.27914 L -103.328,-4.31718 L -103.235,-4.35324 L -103.141,-4.38728 L -103.046,-4.41931
 L -102.951,-4.44931 L -102.856,-4.47726 L -102.759,-4.50316 L -102.662,-4.52698 L -102.565,-4.54872 L -102.467,-4.56837
 L -102.369,-4.58592 L -102.271,-4.60136 L -102.172,-4.61469 L -102.073,-4.62589 L -101.974,-4.63496 L -101.874,-4.64191
 L -101.774,-4.64671 L -101.675,-4.64938 L -101.575,-4.64993 L -101.475,-4.64832 L -101.376,-4.64458 L -101.276,-4.6387
 L -101.177,-4.63069 L -101.078,-4.62056 L -100.979,-4.60829 L -100.88,-4.5939 L -100.782,-4.57741 L -100.684,-4.55881
 L -100.586,-4.53812 L -100.489,-4.51534 L -100.392,-4.49046 L -100.296,-4.46355 L -100.201,-4.43457 L -100.106,-4.40355
 L -100.012,-4.37051 L -99.9189,-4.33546 L -99.8263,-4.29842 L -99.7345,-4.25938 L -99.6436,-4.21841 L -99.5536,-4.17549
 L -99.4646,-4.13065 L -99.3765,-4.08391 L -99.2894,-4.03529 L -99.2034,-3.98482 L -99.1185,-3.93251 L -99.0348,-3.8784
 L -98.9522,-3.82251 L -98.8708,-3.76485 L -98.7907,-3.70546 L -98.7119,-3.64438 L -98.6344,-3.5816 L -98.5583,-3.5172
 L -98.4836,-3.45116 L -98.4103,-3.38354 L -98.3385,-3.31438 L -98.2682,-3.24368 L -98.1994,-3.17149 L -98.1322,-3.09784
 L -98.0665,-3.02277 L -98.0025,-2.9463 L -97.9402,-2.86848 L -97.8795,-2.78935 L -97.8206,-2.70894 L -97.7634,-2.62727
 L -97.7079,-2.5444 L -97.6542,-2.46036 L -97.6024,-2.37518 L -97.5524,-2.28893 L -97.5042,-2.2016 L -97.4579,-2.11327
 L -97.4136,-2.02397 L -97.3712,-1.93373 L -97.3307,-1.84261 L -97.2921,-1.75064 L -97.2556,-1.65787 L -97.221,-1.56433
 L -97.1885,-1.47008 L -97.158,-1.37514 L -97.1295,-1.27957 L -97.1031,-1.18343 L -97.0788,-1.08673 L -97.0565,-0.989532
 L -97.0363,-0.891876 L -97.0183,-0.793808 L -97.0023,-0.695389 L -96.9884,-0.596634 L -96.9767,-0.49762 L -96.9671,-0.398361
 L -96.9596,-0.298935 L -96.9543,-0.199356 L -96.9511,-0.0997009 L -96.95,-0 L -96.9511,0.0997009 L -96.9543,0.199356
 L -96.9596,0.298935 L -96.9671,0.398361 L -96.9767,0.49762 L -96.9884,0.596634 L -97.0023,0.695389 L -97.0183,0.793808
 L -97.0363,0.891876 L -97.0565,0.989532 L -97.0788,1.08673 L -97.1031,1.18343 L -97.1295,1.27957 L -97.158,1.37514
 L -97.1885,1.47008 L -97.221,1.56433 L -97.2556,1.65787 L -97.2921,1.75064 L -97.3307,1.84261 L -97.3712,1.93373
 L -97.4136,2.02397 L -97.4579,2.11327 L -97.5042,2.2016 L -97.5524,2.28893 L -97.6024,2.37518 L -97.6542,2.46036
 L -97.7079,2.5444 L -97.7634,2.62727 L -97.8206,2.70894 L -97.8795,2.78935 L -97.9402,2.86848 L -98.0025,2.9463
 L -98.0665,3.02277 L -98.1322,3.09784 L -98.1994,3.17149 L -98.2682,3.24368 L -98.3385,3.31438 L -98.4103,3.38354
 L -98.4836,3.45116 L -98.5583,3.5172 L -98.6344,3.5816 L -98.7119,3.64438 L -98.7907,3.70546 L -98.8708,3.76485
 L -98.9522,3.82251 L -99.0348,3.8784 L -99.1185,3.93251 L -99.2034,3.98482 L -99.2894,4.03529 L -99.3765,4.08391
 L -99.4646,4.13065 L -99.5536,4.17549 L -99.6436,4.21841 L -99.7345,4.25938 L -99.8263,4.29842 L -99.9189,4.33546
 L -100.012,4.37051 L -100.106,4.40355 L -100.201,4.43457 L -100.296,4.46355 L -100.392,4.49046 L -100.489,4.51534
 L -100.586,4.53812 L -100.684,4.55881 L -100.782,4.57741 L -100.88,4.5939 L -100.979,4.60829 L -101.078,4.62056
 L -101.177,4.63069 L -101.276,4.6387 L -101.376,4.64458 L -101.475,4.64832 L -101.575,4.64993 z
" stroke="black" fill="lightgray" stroke-width="0.5"/>
</svg>
